G04 Layer: TopLayer*
G04 EasyEDA v6.4.25, 2021-10-22T16:38:50--7:00*
G04 a8c8939794724f679426a10ff434762e,1286d1f709c949e68cfeef46812bcf49,10*
G04 Gerber Generator version 0.2*
G04 Scale: 100 percent, Rotated: No, Reflected: No *
G04 Dimensions in millimeters *
G04 leading zeros omitted , absolute positions ,4 integer and 5 decimal *
%FSLAX45Y45*%
%MOMM*%

%ADD12C,0.2500*%
%ADD13C,1.0000*%
%ADD14C,0.7000*%
%ADD15C,0.6096*%
%ADD16C,1.5000*%
%ADD18R,0.9000X0.7000*%
%ADD19R,0.7000X0.9000*%
%ADD20C,1.5240*%
%ADD23R,3.2000X3.0000*%

%LPD*%
G36*
X-1131519Y5426608D02*
G01*
X-1135989Y5427218D01*
X-1139748Y5429707D01*
X-1142085Y5433568D01*
X-1142492Y5438038D01*
X-1142034Y5441645D01*
X-1141120Y5456478D01*
X-1141120Y8428939D01*
X-1142187Y8441131D01*
X-1143304Y8446820D01*
X-1145946Y8455507D01*
X-1148181Y8460892D01*
X-1152448Y8468868D01*
X-1155700Y8473694D01*
X-1161440Y8480704D01*
X-1165555Y8484819D01*
X-1172565Y8490559D01*
X-1177391Y8493810D01*
X-1185367Y8498078D01*
X-1190752Y8500313D01*
X-1199388Y8502904D01*
X-1205128Y8504072D01*
X-1214374Y8504986D01*
X-1361948Y8505088D01*
X-1365808Y8505901D01*
X-1369110Y8508085D01*
X-1371295Y8511387D01*
X-1372108Y8515248D01*
X-1372108Y8791397D01*
X-1372819Y8797747D01*
X-1374698Y8803182D01*
X-1377797Y8808110D01*
X-1381861Y8812174D01*
X-1386789Y8815273D01*
X-1392224Y8817203D01*
X-1398574Y8817914D01*
X-1537106Y8817914D01*
X-1541018Y8818676D01*
X-1544269Y8820861D01*
X-1546504Y8824163D01*
X-1547266Y8828074D01*
X-1547266Y8837422D01*
X-1548079Y8843924D01*
X-1550212Y8849664D01*
X-1552092Y8852916D01*
X-1556562Y8857945D01*
X-1572361Y8871864D01*
X-1586179Y8886494D01*
X-1598726Y8902242D01*
X-1609801Y8919057D01*
X-1619351Y8936786D01*
X-1627327Y8955278D01*
X-1633677Y8974378D01*
X-1635556Y8982354D01*
X-1635607Y8986723D01*
X-1633829Y8990736D01*
X-1630527Y8993581D01*
X-1626311Y8994800D01*
X-1621993Y8994140D01*
X-1618335Y8991752D01*
X-1612595Y8985758D01*
X-1603349Y8978696D01*
X-1593138Y8973159D01*
X-1582216Y8969248D01*
X-1570786Y8967012D01*
X-1559204Y8966555D01*
X-1547672Y8967927D01*
X-1544726Y8968689D01*
X-1541068Y8969044D01*
X-1537462Y8967978D01*
X-1534515Y8965742D01*
X-1532585Y8962542D01*
X-1531874Y8958935D01*
X-1531874Y8889542D01*
X-1531162Y8883243D01*
X-1529283Y8877757D01*
X-1526184Y8872880D01*
X-1522120Y8868765D01*
X-1517192Y8865666D01*
X-1511757Y8863787D01*
X-1505407Y8863076D01*
X-1436573Y8863076D01*
X-1430223Y8863787D01*
X-1424787Y8865666D01*
X-1421384Y8867800D01*
X-1417878Y8869172D01*
X-1414119Y8869172D01*
X-1410563Y8867800D01*
X-1407210Y8865666D01*
X-1401724Y8863787D01*
X-1395425Y8863076D01*
X-1384858Y8863076D01*
X-1384858Y8905138D01*
X-1399895Y8905138D01*
X-1403807Y8905900D01*
X-1407109Y8908084D01*
X-1409293Y8911386D01*
X-1410055Y8915298D01*
X-1410055Y8952636D01*
X-1409293Y8956548D01*
X-1407109Y8959850D01*
X-1403807Y8962034D01*
X-1399895Y8962796D01*
X-1384858Y8962796D01*
X-1384858Y9004858D01*
X-1395425Y9004858D01*
X-1401724Y9004147D01*
X-1407210Y9002268D01*
X-1410563Y9000134D01*
X-1414119Y8998762D01*
X-1417878Y8998762D01*
X-1421384Y9000134D01*
X-1424787Y9002268D01*
X-1430223Y9004147D01*
X-1436573Y9004858D01*
X-1480616Y9004858D01*
X-1484274Y9005570D01*
X-1487424Y9007500D01*
X-1489659Y9010446D01*
X-1490726Y9014002D01*
X-1490421Y9017660D01*
X-1488643Y9024264D01*
X-1487170Y9027414D01*
X-1484731Y9029903D01*
X-1481378Y9032240D01*
X-1470558Y9041942D01*
X-1460855Y9052763D01*
X-1453743Y9062821D01*
X-1451457Y9065107D01*
X-1448612Y9066580D01*
X-1445463Y9067088D01*
X-1436573Y9067088D01*
X-1430223Y9067800D01*
X-1424787Y9069730D01*
X-1421384Y9071813D01*
X-1417878Y9073184D01*
X-1414119Y9073184D01*
X-1410614Y9071813D01*
X-1407210Y9069730D01*
X-1401775Y9067800D01*
X-1395425Y9067088D01*
X-1326591Y9067088D01*
X-1320241Y9067800D01*
X-1314805Y9069730D01*
X-1309878Y9072778D01*
X-1305814Y9076893D01*
X-1302715Y9081770D01*
X-1300784Y9087256D01*
X-1300429Y9090558D01*
X-1299362Y9094063D01*
X-1297127Y9097010D01*
X-1293977Y9098889D01*
X-1290320Y9099550D01*
X-768654Y9099550D01*
X-763270Y9098686D01*
X-759612Y9097162D01*
X-756716Y9095232D01*
X-753922Y9092438D01*
X-751992Y9089542D01*
X-750468Y9085884D01*
X-749604Y9080500D01*
X-749604Y5499100D01*
X-750468Y5492902D01*
X-751433Y5489854D01*
X-753567Y5485688D01*
X-755446Y5483148D01*
X-758748Y5479846D01*
X-761288Y5477967D01*
X-765454Y5475833D01*
X-768502Y5474868D01*
X-774700Y5474004D01*
X-952296Y5474004D01*
X-977900Y5473090D01*
X-1003147Y5470398D01*
X-1028141Y5465876D01*
X-1052779Y5459577D01*
X-1076858Y5451551D01*
X-1100328Y5441848D01*
X-1123086Y5430469D01*
X-1127252Y5427980D01*
G37*

%LPC*%
G36*
X-1337157Y8863076D02*
G01*
X-1326540Y8863076D01*
X-1320241Y8863787D01*
X-1314754Y8865666D01*
X-1309878Y8868765D01*
X-1305763Y8872880D01*
X-1302715Y8877757D01*
X-1300784Y8883243D01*
X-1300073Y8889542D01*
X-1300073Y8905138D01*
X-1337157Y8905138D01*
G37*
G36*
X-1337157Y8962796D02*
G01*
X-1300073Y8962796D01*
X-1300073Y8978392D01*
X-1300784Y8984742D01*
X-1302715Y8990177D01*
X-1305763Y8995105D01*
X-1309878Y8999169D01*
X-1314754Y9002268D01*
X-1320241Y9004147D01*
X-1326540Y9004858D01*
X-1337157Y9004858D01*
G37*

%LPD*%
G36*
X-825500Y4458004D02*
G01*
X-835609Y4458868D01*
X-837336Y4459173D01*
X-846277Y4461560D01*
X-847953Y4462170D01*
X-857859Y4466945D01*
X-865428Y4472228D01*
X-874471Y4481271D01*
X-879754Y4488840D01*
X-884529Y4498746D01*
X-885139Y4500422D01*
X-887526Y4509363D01*
X-887831Y4511090D01*
X-888695Y4521200D01*
X-888695Y5029200D01*
X-887628Y5039309D01*
X-887120Y5041544D01*
X-884123Y5050078D01*
X-883158Y5052110D01*
X-878332Y5059730D01*
X-876909Y5061508D01*
X-870508Y5067909D01*
X-868730Y5069332D01*
X-861110Y5074158D01*
X-859078Y5075123D01*
X-850544Y5078120D01*
X-848309Y5078628D01*
X-838200Y5079695D01*
X-608431Y5079695D01*
X-604824Y5079034D01*
X-601675Y5077104D01*
X-599389Y5074158D01*
X-598373Y5070602D01*
X-598627Y5066893D01*
X-600151Y5061305D01*
X-600913Y5052568D01*
X-600913Y5007051D01*
X-601675Y5003190D01*
X-603859Y4999888D01*
X-607161Y4997653D01*
X-611073Y4996891D01*
X-684580Y4996891D01*
X-694842Y4996078D01*
X-698804Y4995113D01*
X-702462Y4994960D01*
X-705967Y4996027D01*
X-708812Y4998313D01*
X-710692Y5001412D01*
X-711352Y5005019D01*
X-711352Y5039918D01*
X-779424Y5039918D01*
X-785774Y5039207D01*
X-791210Y5037277D01*
X-796137Y5034178D01*
X-800201Y5030114D01*
X-803300Y5025186D01*
X-805180Y5019751D01*
X-805891Y5013401D01*
X-805891Y4920335D01*
X-758088Y4920335D01*
X-754176Y4919573D01*
X-750874Y4917338D01*
X-748690Y4914087D01*
X-747928Y4910175D01*
X-747928Y4717796D01*
X-748690Y4713935D01*
X-750874Y4710633D01*
X-754176Y4708398D01*
X-758088Y4707636D01*
X-805891Y4707636D01*
X-805891Y4614570D01*
X-805180Y4608220D01*
X-803300Y4602784D01*
X-800201Y4597857D01*
X-796137Y4593793D01*
X-791210Y4590694D01*
X-785774Y4588814D01*
X-779424Y4588103D01*
X-711352Y4588103D01*
X-711352Y4619345D01*
X-710692Y4622901D01*
X-708812Y4626051D01*
X-705967Y4628286D01*
X-702462Y4629404D01*
X-687578Y4628083D01*
X-611073Y4628083D01*
X-607161Y4627321D01*
X-603859Y4625086D01*
X-601675Y4621834D01*
X-600913Y4617923D01*
X-600913Y4569256D01*
X-600049Y4554423D01*
X-597611Y4540097D01*
X-593598Y4526076D01*
X-588010Y4512614D01*
X-580999Y4499864D01*
X-572566Y4488027D01*
X-562864Y4477156D01*
X-561289Y4475734D01*
X-558850Y4472482D01*
X-557885Y4468571D01*
X-558546Y4464558D01*
X-560730Y4461103D01*
X-564083Y4458817D01*
X-568045Y4458004D01*
G37*

%LPD*%
G36*
X-584200Y2997504D02*
G01*
X-594055Y2998571D01*
X-596290Y2999079D01*
X-602742Y3001314D01*
X-606196Y3003397D01*
X-608584Y3006598D01*
X-609549Y3010509D01*
X-608939Y3014472D01*
X-603707Y3022803D01*
X-601827Y3028238D01*
X-601116Y3034588D01*
X-601116Y3103422D01*
X-601827Y3109772D01*
X-603707Y3115208D01*
X-605840Y3118612D01*
X-607212Y3122117D01*
X-607212Y3125876D01*
X-605840Y3129381D01*
X-603707Y3132785D01*
X-601827Y3138220D01*
X-601116Y3144570D01*
X-601116Y3190646D01*
X-600303Y3194608D01*
X-597966Y3197961D01*
X-594563Y3200146D01*
X-590550Y3200806D01*
X-568452Y3199942D01*
X-544474Y3200857D01*
X-527100Y3202838D01*
X-496620Y3202838D01*
X-495249Y3206242D01*
X-492709Y3208934D01*
X-489458Y3210509D01*
X-473964Y3214878D01*
X-452831Y3222701D01*
X-448970Y3223310D01*
X-445211Y3222447D01*
X-442010Y3220212D01*
X-439877Y3216960D01*
X-439115Y3213150D01*
X-439115Y3202838D01*
X-397103Y3202838D01*
X-397103Y3213455D01*
X-397814Y3219754D01*
X-399694Y3225241D01*
X-402793Y3230118D01*
X-405282Y3232658D01*
X-407670Y3236417D01*
X-408228Y3240836D01*
X-406806Y3245053D01*
X-403758Y3248253D01*
X-388670Y3258362D01*
X-369824Y3273247D01*
X-352145Y3289503D01*
X-335889Y3307181D01*
X-321005Y3326028D01*
X-307644Y3345992D01*
X-295910Y3366973D01*
X-285851Y3388766D01*
X-277520Y3411321D01*
X-274269Y3423005D01*
X-272338Y3426663D01*
X-269138Y3429254D01*
X-265176Y3430371D01*
X-261061Y3429812D01*
X-257505Y3427679D01*
X-255168Y3424275D01*
X-254304Y3420211D01*
X-254304Y3191510D01*
X-255117Y3187547D01*
X-257403Y3184245D01*
X-273913Y3175050D01*
X-284886Y3166973D01*
X-294690Y3157474D01*
X-303174Y3146755D01*
X-310134Y3135071D01*
X-315518Y3122269D01*
X-317652Y3117951D01*
X-320548Y3115513D01*
X-324154Y3114294D01*
X-327914Y3114497D01*
X-331368Y3116072D01*
X-340106Y3122218D01*
X-349046Y3126333D01*
X-358495Y3128873D01*
X-368300Y3129737D01*
X-378104Y3128873D01*
X-385114Y3126994D01*
X-389026Y3126740D01*
X-392734Y3128010D01*
X-395732Y3130550D01*
X-397510Y3134055D01*
X-397814Y3137966D01*
X-397103Y3144570D01*
X-397103Y3155137D01*
X-439115Y3155137D01*
X-439115Y3140049D01*
X-439928Y3136188D01*
X-442112Y3132886D01*
X-445414Y3130702D01*
X-449275Y3129889D01*
X-486664Y3129889D01*
X-490575Y3130702D01*
X-493877Y3132886D01*
X-496062Y3136188D01*
X-496824Y3140049D01*
X-496824Y3155137D01*
X-538886Y3155137D01*
X-538886Y3144570D01*
X-538175Y3138271D01*
X-536295Y3132785D01*
X-534162Y3129432D01*
X-532790Y3125876D01*
X-532790Y3122117D01*
X-534162Y3118612D01*
X-536295Y3115208D01*
X-538175Y3109772D01*
X-538886Y3103422D01*
X-538886Y3034588D01*
X-538175Y3028238D01*
X-536295Y3022803D01*
X-533196Y3017875D01*
X-530148Y3014827D01*
X-527964Y3011576D01*
X-527202Y3007664D01*
X-527964Y3003804D01*
X-530148Y3000502D01*
X-533450Y2998266D01*
X-537362Y2997504D01*
G37*

%LPD*%
G36*
X-871931Y2629204D02*
G01*
X-875842Y2629966D01*
X-879144Y2632202D01*
X-881329Y2635504D01*
X-882091Y2639364D01*
X-882091Y2644394D01*
X-882802Y2650744D01*
X-884732Y2656179D01*
X-887780Y2661107D01*
X-891895Y2665171D01*
X-896772Y2668270D01*
X-902258Y2670200D01*
X-908558Y2670911D01*
X-977442Y2670911D01*
X-983742Y2670200D01*
X-989228Y2668270D01*
X-992581Y2666136D01*
X-996086Y2664764D01*
X-999896Y2664764D01*
X-1003401Y2666136D01*
X-1006754Y2668270D01*
X-1012240Y2670200D01*
X-1018540Y2670911D01*
X-1060399Y2670911D01*
X-1064361Y2671724D01*
X-1067714Y2674010D01*
X-1069898Y2677464D01*
X-1070559Y2681427D01*
X-1069594Y2705963D01*
X-1070508Y2729941D01*
X-1073353Y2753817D01*
X-1076655Y2770479D01*
X-1076858Y2778099D01*
X-1078484Y2780131D01*
X-1079500Y2782570D01*
X-1084529Y2800451D01*
X-1091438Y2819196D01*
X-1092098Y2823006D01*
X-1091234Y2826816D01*
X-1088999Y2829966D01*
X-1085748Y2832100D01*
X-1081938Y2832862D01*
X-1076858Y2832862D01*
X-1076858Y2874924D01*
X-1087424Y2874924D01*
X-1093774Y2874213D01*
X-1099210Y2872282D01*
X-1104798Y2868777D01*
X-1108405Y2867406D01*
X-1112316Y2867456D01*
X-1115923Y2868980D01*
X-1118666Y2871724D01*
X-1128014Y2885744D01*
X-1142847Y2904591D01*
X-1159154Y2922270D01*
X-1176832Y2938526D01*
X-1195679Y2953410D01*
X-1215644Y2966770D01*
X-1236624Y2978505D01*
X-1258417Y2988564D01*
X-1262075Y2989884D01*
X-1265478Y2992018D01*
X-1267815Y2995269D01*
X-1268679Y2999181D01*
X-1267968Y3003143D01*
X-1265783Y3006547D01*
X-1262481Y3008782D01*
X-1258519Y3009595D01*
X-1143203Y3009595D01*
X-1123035Y3010458D01*
X-1103274Y3013100D01*
X-1083767Y3017418D01*
X-1064717Y3023412D01*
X-1046276Y3031032D01*
X-1028547Y3040278D01*
X-1011732Y3050997D01*
X-995883Y3063138D01*
X-981151Y3076651D01*
X-967638Y3091383D01*
X-955497Y3107232D01*
X-944778Y3124047D01*
X-935532Y3141776D01*
X-927912Y3160217D01*
X-921918Y3179267D01*
X-917600Y3198774D01*
X-914958Y3218535D01*
X-914095Y3238703D01*
X-914095Y4184599D01*
X-914958Y4202074D01*
X-917498Y4219143D01*
X-921664Y4235907D01*
X-927506Y4252163D01*
X-934872Y4267758D01*
X-943762Y4282592D01*
X-954024Y4296460D01*
X-966165Y4309821D01*
X-974648Y4319930D01*
X-981456Y4331258D01*
X-986383Y4343552D01*
X-989330Y4356404D01*
X-990295Y4368800D01*
X-990295Y4392930D01*
X-989482Y4396892D01*
X-987196Y4400194D01*
X-983792Y4402378D01*
X-979779Y4403090D01*
X-975868Y4402124D01*
X-972616Y4399737D01*
X-960424Y4386275D01*
X-946556Y4373727D01*
X-931519Y4362551D01*
X-915416Y4352950D01*
X-898499Y4344924D01*
X-880871Y4338624D01*
X-862736Y4334052D01*
X-844194Y4331309D01*
X-825246Y4330395D01*
X-292100Y4330395D01*
X-283616Y4329379D01*
X-281076Y4328668D01*
X-274370Y4325924D01*
X-272084Y4324604D01*
X-266395Y4320184D01*
X-264515Y4318304D01*
X-260096Y4312615D01*
X-258775Y4310278D01*
X-256032Y4303623D01*
X-255320Y4301083D01*
X-254304Y4292600D01*
X-254304Y3591458D01*
X-255168Y3587394D01*
X-257505Y3583990D01*
X-261061Y3581857D01*
X-265176Y3581298D01*
X-269138Y3582415D01*
X-272338Y3585006D01*
X-274269Y3588664D01*
X-277520Y3600348D01*
X-285851Y3622903D01*
X-295910Y3644696D01*
X-307644Y3665677D01*
X-321005Y3685641D01*
X-335889Y3704488D01*
X-352145Y3722166D01*
X-369824Y3738422D01*
X-388670Y3753307D01*
X-408635Y3766667D01*
X-429615Y3778402D01*
X-451408Y3788460D01*
X-473964Y3796792D01*
X-497078Y3803294D01*
X-520598Y3807968D01*
X-544474Y3810812D01*
X-568452Y3811727D01*
X-592480Y3810812D01*
X-616356Y3807968D01*
X-639876Y3803294D01*
X-662990Y3796792D01*
X-685546Y3788460D01*
X-707339Y3778402D01*
X-728319Y3766667D01*
X-748284Y3753307D01*
X-767130Y3738422D01*
X-784809Y3722166D01*
X-801065Y3704488D01*
X-815949Y3685641D01*
X-829310Y3665677D01*
X-841044Y3644696D01*
X-851103Y3622903D01*
X-859434Y3600348D01*
X-865936Y3577234D01*
X-870610Y3553714D01*
X-873455Y3529837D01*
X-874369Y3505809D01*
X-873455Y3481832D01*
X-870610Y3457956D01*
X-865936Y3434435D01*
X-859434Y3411321D01*
X-851103Y3388766D01*
X-841044Y3366973D01*
X-829310Y3345992D01*
X-815949Y3326028D01*
X-801065Y3307181D01*
X-784809Y3289503D01*
X-767130Y3273247D01*
X-748284Y3258362D01*
X-735025Y3249472D01*
X-731926Y3246272D01*
X-730554Y3242005D01*
X-731062Y3237585D01*
X-733450Y3233826D01*
X-737209Y3230118D01*
X-740308Y3225190D01*
X-742188Y3219754D01*
X-742543Y3216605D01*
X-743610Y3213100D01*
X-745896Y3210204D01*
X-748995Y3208274D01*
X-763422Y3202736D01*
X-779221Y3194710D01*
X-794054Y3185058D01*
X-807872Y3173882D01*
X-820369Y3161334D01*
X-831545Y3147568D01*
X-841197Y3132683D01*
X-849274Y3116884D01*
X-855624Y3100324D01*
X-860196Y3083204D01*
X-862990Y3065729D01*
X-863904Y3047746D01*
X-863904Y2921457D01*
X-865022Y2908350D01*
X-867562Y2897784D01*
X-872185Y2886303D01*
X-878586Y2875635D01*
X-881024Y2872638D01*
X-883767Y2870352D01*
X-887171Y2869184D01*
X-890778Y2869285D01*
X-894130Y2870606D01*
X-896772Y2872282D01*
X-902258Y2874213D01*
X-908558Y2874924D01*
X-977442Y2874924D01*
X-983742Y2874213D01*
X-989228Y2872282D01*
X-992581Y2870149D01*
X-996137Y2868777D01*
X-999896Y2868777D01*
X-1003401Y2870149D01*
X-1006805Y2872282D01*
X-1012240Y2874213D01*
X-1018590Y2874924D01*
X-1029157Y2874924D01*
X-1029157Y2832862D01*
X-1014069Y2832862D01*
X-1010208Y2832100D01*
X-1006906Y2829864D01*
X-1004671Y2826562D01*
X-1003909Y2822702D01*
X-1003909Y2785313D01*
X-1004671Y2781401D01*
X-1006906Y2778150D01*
X-1010208Y2775915D01*
X-1014069Y2775153D01*
X-1029157Y2775153D01*
X-1029157Y2733090D01*
X-1018590Y2733090D01*
X-1012240Y2733802D01*
X-1006805Y2735732D01*
X-1003401Y2737866D01*
X-999896Y2739237D01*
X-996137Y2739237D01*
X-992581Y2737866D01*
X-989228Y2735732D01*
X-983742Y2733802D01*
X-977442Y2733090D01*
X-908558Y2733090D01*
X-902258Y2733802D01*
X-896772Y2735732D01*
X-891895Y2738780D01*
X-887780Y2742895D01*
X-884732Y2747772D01*
X-882802Y2753258D01*
X-882091Y2759557D01*
X-882091Y2771546D01*
X-881430Y2775204D01*
X-879500Y2778353D01*
X-876553Y2780588D01*
X-865073Y2786481D01*
X-851357Y2795371D01*
X-838708Y2805633D01*
X-827125Y2817164D01*
X-816864Y2829864D01*
X-807974Y2843530D01*
X-800608Y2858058D01*
X-794715Y2873298D01*
X-790498Y2889046D01*
X-787958Y2905201D01*
X-787095Y2921762D01*
X-787095Y3048000D01*
X-786231Y3060446D01*
X-783539Y3073400D01*
X-779018Y3085795D01*
X-772769Y3097428D01*
X-764946Y3108045D01*
X-760069Y3113074D01*
X-756564Y3115360D01*
X-752500Y3116072D01*
X-748436Y3115056D01*
X-745185Y3112516D01*
X-743153Y3108909D01*
X-742899Y3103422D01*
X-742899Y3034588D01*
X-742188Y3028238D01*
X-740308Y3022803D01*
X-737209Y3017875D01*
X-733145Y3013811D01*
X-728218Y3010712D01*
X-722782Y3008782D01*
X-716432Y3008071D01*
X-711454Y3008071D01*
X-707644Y3007360D01*
X-704392Y3005277D01*
X-702157Y3002127D01*
X-695960Y2988259D01*
X-688035Y2975203D01*
X-678637Y2963214D01*
X-667867Y2952445D01*
X-655878Y2943047D01*
X-642823Y2935173D01*
X-628954Y2928924D01*
X-614375Y2924352D01*
X-599389Y2921609D01*
X-583895Y2920695D01*
X-436524Y2920695D01*
X-432968Y2920034D01*
X-429920Y2918256D01*
X-427634Y2915462D01*
X-426466Y2912059D01*
X-424891Y2901848D01*
X-421385Y2890774D01*
X-416204Y2880360D01*
X-409549Y2870860D01*
X-401472Y2862478D01*
X-392226Y2855417D01*
X-382066Y2849880D01*
X-375310Y2847492D01*
X-371805Y2845308D01*
X-369468Y2841955D01*
X-368604Y2837891D01*
X-368604Y2730500D01*
X-369773Y2715361D01*
X-372922Y2701290D01*
X-378104Y2687777D01*
X-385114Y2675128D01*
X-393852Y2663647D01*
X-404114Y2653487D01*
X-415747Y2644902D01*
X-428498Y2638094D01*
X-442061Y2633116D01*
X-456184Y2630170D01*
X-469900Y2629204D01*
G37*

%LPD*%
G36*
X4389831Y2222804D02*
G01*
X4374134Y2223719D01*
X4359249Y2226360D01*
X4344720Y2230577D01*
X4330750Y2236419D01*
X4317542Y2243836D01*
X4305198Y2252624D01*
X4294378Y2262378D01*
X4195826Y2360879D01*
X4184599Y2373528D01*
X4175251Y2386838D01*
X4167378Y2401163D01*
X4161180Y2416251D01*
X4156760Y2431948D01*
X4154068Y2448052D01*
X4153204Y2463800D01*
X4153204Y2562758D01*
X4154170Y2567025D01*
X4156760Y2570480D01*
X4160621Y2572562D01*
X4164990Y2572816D01*
X4169054Y2571191D01*
X4172051Y2568041D01*
X4174998Y2563215D01*
X4184396Y2551176D01*
X4195165Y2540406D01*
X4207205Y2530957D01*
X4220260Y2523083D01*
X4234180Y2516835D01*
X4248759Y2512263D01*
X4263745Y2509520D01*
X4278680Y2508605D01*
X4282541Y2507640D01*
X4285691Y2505252D01*
X4289806Y2498394D01*
X4291177Y2494889D01*
X4291177Y2491079D01*
X4289806Y2487574D01*
X4287672Y2484221D01*
X4285792Y2478735D01*
X4285081Y2472436D01*
X4285081Y2461818D01*
X4327144Y2461818D01*
X4327144Y2476906D01*
X4327906Y2480818D01*
X4330090Y2484120D01*
X4333392Y2486304D01*
X4337304Y2487066D01*
X4374692Y2487066D01*
X4378553Y2486304D01*
X4381855Y2484120D01*
X4384040Y2480818D01*
X4384852Y2476906D01*
X4384852Y2461818D01*
X4426864Y2461818D01*
X4426864Y2472436D01*
X4426153Y2478735D01*
X4424273Y2484221D01*
X4422140Y2487574D01*
X4420768Y2491079D01*
X4420768Y2494889D01*
X4422140Y2498394D01*
X4424273Y2501747D01*
X4426153Y2507234D01*
X4426864Y2513533D01*
X4426864Y2582418D01*
X4426153Y2588717D01*
X4424273Y2594203D01*
X4422952Y2596235D01*
X4421479Y2600452D01*
X4421936Y2604871D01*
X4424222Y2608681D01*
X4427931Y2611120D01*
X4432300Y2611780D01*
X4443272Y2610967D01*
X4469282Y2610967D01*
X4483811Y2612034D01*
X4488230Y2611374D01*
X4491939Y2608935D01*
X4494225Y2605125D01*
X4494682Y2600706D01*
X4493158Y2596489D01*
X4491736Y2594203D01*
X4489805Y2588717D01*
X4489094Y2582418D01*
X4489094Y2513533D01*
X4489805Y2507234D01*
X4491736Y2501747D01*
X4493818Y2498394D01*
X4495241Y2494889D01*
X4495241Y2491130D01*
X4493818Y2487574D01*
X4491736Y2484221D01*
X4489805Y2478735D01*
X4489094Y2472436D01*
X4489094Y2403551D01*
X4489805Y2397252D01*
X4491736Y2391765D01*
X4494784Y2386888D01*
X4498898Y2382774D01*
X4503775Y2379726D01*
X4509262Y2377795D01*
X4515561Y2377084D01*
X4604410Y2377084D01*
X4610760Y2377795D01*
X4616196Y2379726D01*
X4621123Y2382774D01*
X4625187Y2386888D01*
X4628286Y2391765D01*
X4630978Y2396540D01*
X4634738Y2398979D01*
X4639157Y2399538D01*
X4646777Y2398826D01*
X4648758Y2398420D01*
X4655667Y2396337D01*
X4657496Y2395575D01*
X4663897Y2392172D01*
X4665522Y2391105D01*
X4671822Y2385822D01*
X4683658Y2373934D01*
X4689043Y2367381D01*
X4690160Y2365705D01*
X4694174Y2358186D01*
X4694936Y2356358D01*
X4697425Y2348230D01*
X4697831Y2346248D01*
X4698644Y2337816D01*
X4698644Y2335784D01*
X4697831Y2327351D01*
X4697425Y2325370D01*
X4694936Y2317242D01*
X4694174Y2315413D01*
X4690160Y2307894D01*
X4689043Y2306218D01*
X4682998Y2298903D01*
X4667097Y2283053D01*
X4652060Y2269439D01*
X4635703Y2257399D01*
X4618278Y2247036D01*
X4599889Y2238400D01*
X4580788Y2231593D01*
X4561078Y2226716D01*
X4540961Y2223770D01*
X4521200Y2222804D01*
G37*

%LPC*%
G36*
X4311548Y2377084D02*
G01*
X4327144Y2377084D01*
X4327144Y2414117D01*
X4285081Y2414117D01*
X4285081Y2403551D01*
X4285792Y2397252D01*
X4287672Y2391765D01*
X4290771Y2386888D01*
X4294886Y2382774D01*
X4299762Y2379675D01*
X4305249Y2377795D01*
G37*
G36*
X4384852Y2377084D02*
G01*
X4400397Y2377084D01*
X4406747Y2377795D01*
X4412183Y2379675D01*
X4417110Y2382774D01*
X4421174Y2386888D01*
X4424273Y2391765D01*
X4426153Y2397252D01*
X4426864Y2403551D01*
X4426864Y2414117D01*
X4384852Y2414117D01*
G37*

%LPD*%
G36*
X3346551Y2021433D02*
G01*
X3342589Y2022246D01*
X3339236Y2024532D01*
X3337051Y2027936D01*
X3336391Y2031949D01*
X3337356Y2035911D01*
X3339795Y2039162D01*
X3343960Y2042871D01*
X3351377Y2051862D01*
X3357321Y2061819D01*
X3361639Y2072589D01*
X3364280Y2083917D01*
X3365195Y2095500D01*
X3364280Y2107082D01*
X3361639Y2118410D01*
X3357321Y2129180D01*
X3351377Y2139137D01*
X3343960Y2148128D01*
X3335274Y2155850D01*
X3325571Y2162149D01*
X3314954Y2166924D01*
X3303727Y2169972D01*
X3292195Y2171344D01*
X3280613Y2170887D01*
X3269183Y2168652D01*
X3258261Y2164740D01*
X3248050Y2159203D01*
X3238804Y2152142D01*
X3230219Y2143201D01*
X3227171Y2141067D01*
X3223564Y2140102D01*
X3219196Y2140762D01*
X3216960Y2141778D01*
X3215030Y2143302D01*
X3210102Y2148179D01*
X3205226Y2151278D01*
X3199739Y2153208D01*
X3193440Y2153920D01*
X3170732Y2153920D01*
X3166770Y2154682D01*
X3163468Y2156917D01*
X3161284Y2160270D01*
X3160572Y2164232D01*
X3161385Y2168144D01*
X3163722Y2171395D01*
X3167075Y2173528D01*
X3186531Y2180996D01*
X3210052Y2192020D01*
X3232708Y2204720D01*
X3254400Y2219096D01*
X3274974Y2234946D01*
X3294329Y2252319D01*
X3312363Y2271014D01*
X3329025Y2291029D01*
X3344113Y2312162D01*
X3357676Y2334361D01*
X3369564Y2357475D01*
X3379724Y2381402D01*
X3388106Y2405989D01*
X3394710Y2431135D01*
X3399434Y2456688D01*
X3402279Y2482545D01*
X3403193Y2508504D01*
X3402279Y2534513D01*
X3399434Y2560370D01*
X3394710Y2585923D01*
X3388106Y2611069D01*
X3379724Y2635656D01*
X3369564Y2659583D01*
X3357676Y2682697D01*
X3344113Y2704896D01*
X3329025Y2726029D01*
X3312363Y2746044D01*
X3294329Y2764739D01*
X3274974Y2782112D01*
X3254400Y2797962D01*
X3232708Y2812338D01*
X3210052Y2825038D01*
X3186531Y2836062D01*
X3182670Y2837535D01*
X3179318Y2839669D01*
X3176981Y2842971D01*
X3176168Y2846882D01*
X3176879Y2850794D01*
X3179064Y2854147D01*
X3182366Y2856382D01*
X3186328Y2857195D01*
X3924300Y2857195D01*
X3941876Y2856179D01*
X3958691Y2853232D01*
X3975049Y2848457D01*
X3990797Y2841853D01*
X4005681Y2833573D01*
X4019550Y2823667D01*
X4032250Y2812237D01*
X4043527Y2799486D01*
X4053382Y2785516D01*
X4061561Y2770581D01*
X4068013Y2754782D01*
X4072686Y2738374D01*
X4075480Y2721559D01*
X4075937Y2713583D01*
X4075429Y2709773D01*
X4073499Y2706420D01*
X4070502Y2703982D01*
X4066794Y2702915D01*
X4062984Y2703220D01*
X4050334Y2710027D01*
X4040835Y2713329D01*
X4030929Y2714955D01*
X4020870Y2714955D01*
X4010964Y2713329D01*
X4001465Y2710027D01*
X3992626Y2705252D01*
X3984650Y2699105D01*
X3977843Y2691688D01*
X3972356Y2683256D01*
X3968343Y2674061D01*
X3965854Y2664307D01*
X3965041Y2654300D01*
X3965854Y2644292D01*
X3968343Y2634538D01*
X3972356Y2625344D01*
X3977843Y2616911D01*
X3984802Y2609342D01*
X3986784Y2606192D01*
X3987495Y2602484D01*
X3987495Y2550464D01*
X3986733Y2546604D01*
X3984498Y2543302D01*
X3981196Y2541066D01*
X3977335Y2540304D01*
X3632454Y2540304D01*
X3613404Y2539441D01*
X3594811Y2536850D01*
X3576523Y2532532D01*
X3558692Y2526538D01*
X3541471Y2518968D01*
X3525062Y2509824D01*
X3509568Y2499207D01*
X3495090Y2487168D01*
X3481832Y2473909D01*
X3469792Y2459431D01*
X3459175Y2443937D01*
X3450031Y2427528D01*
X3442462Y2410307D01*
X3436467Y2392476D01*
X3432149Y2374188D01*
X3429558Y2355596D01*
X3428695Y2336546D01*
X3428695Y2070100D01*
X3427679Y2060397D01*
X3427171Y2058162D01*
X3424326Y2050034D01*
X3423310Y2048002D01*
X3418738Y2040686D01*
X3417315Y2038908D01*
X3411220Y2032812D01*
X3409442Y2031390D01*
X3402126Y2026767D01*
X3400094Y2025802D01*
X3391915Y2022957D01*
X3389731Y2022449D01*
X3380028Y2021433D01*
G37*

%LPD*%
G36*
X803198Y56337D02*
G01*
X785266Y57251D01*
X768400Y59791D01*
X751840Y64008D01*
X735787Y69799D01*
X720344Y77165D01*
X705713Y85953D01*
X692048Y96215D01*
X679399Y107696D01*
X667969Y120396D01*
X657860Y134112D01*
X649122Y148793D01*
X641858Y164287D01*
X636168Y180390D01*
X632053Y196951D01*
X629615Y213867D01*
X628751Y231241D01*
X628751Y1232103D01*
X627837Y1246936D01*
X627329Y1250746D01*
X624890Y1263091D01*
X623874Y1266850D01*
X619861Y1278788D01*
X618337Y1282344D01*
X612800Y1293672D01*
X610819Y1297025D01*
X603859Y1307490D01*
X601472Y1310538D01*
X593191Y1320038D01*
X590448Y1322781D01*
X580999Y1331061D01*
X577900Y1333449D01*
X567436Y1340408D01*
X564083Y1342339D01*
X552805Y1347927D01*
X549198Y1349400D01*
X537260Y1353464D01*
X533552Y1354480D01*
X521208Y1356918D01*
X517347Y1357426D01*
X502513Y1358341D01*
X-1219098Y1358341D01*
X-1231595Y1359306D01*
X-1241856Y1361643D01*
X-1251712Y1365402D01*
X-1260957Y1370584D01*
X-1269339Y1376984D01*
X-1276705Y1384503D01*
X-1282954Y1393037D01*
X-1287932Y1402334D01*
X-1291539Y1412290D01*
X-1293672Y1422603D01*
X-1294434Y1433677D01*
X-1294434Y1462633D01*
X-1295349Y1477467D01*
X-1295857Y1481328D01*
X-1298295Y1493672D01*
X-1299311Y1497431D01*
X-1303324Y1509318D01*
X-1304848Y1512925D01*
X-1310386Y1524203D01*
X-1312316Y1527556D01*
X-1319326Y1538020D01*
X-1321714Y1541119D01*
X-1329994Y1550568D01*
X-1332738Y1553311D01*
X-1342186Y1561592D01*
X-1345285Y1563979D01*
X-1355750Y1570990D01*
X-1359103Y1572920D01*
X-1370380Y1578457D01*
X-1373987Y1579981D01*
X-1385874Y1583994D01*
X-1389634Y1585010D01*
X-1401978Y1587449D01*
X-1405839Y1587957D01*
X-1420672Y1588871D01*
X-1678330Y1588871D01*
X-1690827Y1589836D01*
X-1701139Y1592173D01*
X-1710994Y1595983D01*
X-1720189Y1601114D01*
X-1728571Y1607515D01*
X-1735988Y1615084D01*
X-1742186Y1623568D01*
X-1747164Y1632915D01*
X-1750771Y1642821D01*
X-1752904Y1653133D01*
X-1753666Y1664207D01*
X-1753666Y2372766D01*
X-1752854Y2376779D01*
X-1750517Y2380132D01*
X-1747012Y2382316D01*
X-1742998Y2382926D01*
X-1739036Y2381910D01*
X-1735785Y2379370D01*
X-1733804Y2375814D01*
X-1732737Y2372360D01*
X-1727047Y2359761D01*
X-1719884Y2347925D01*
X-1711350Y2337003D01*
X-1701596Y2327249D01*
X-1690674Y2318715D01*
X-1678838Y2311552D01*
X-1666239Y2305862D01*
X-1653032Y2301748D01*
X-1639417Y2299258D01*
X-1625295Y2298395D01*
X-1045311Y2298395D01*
X-1041908Y2297785D01*
X-1038860Y2296058D01*
X-1036574Y2293416D01*
X-1031138Y2284222D01*
X-1022705Y2273554D01*
X-1012901Y2264054D01*
X-1001928Y2255977D01*
X-989990Y2249424D01*
X-977239Y2244496D01*
X-963980Y2241346D01*
X-950417Y2239975D01*
X-936752Y2240432D01*
X-923340Y2242718D01*
X-910285Y2246731D01*
X-897940Y2252472D01*
X-886460Y2259838D01*
X-876046Y2268626D01*
X-866902Y2278735D01*
X-859180Y2289962D01*
X-853033Y2302154D01*
X-848512Y2315057D01*
X-845819Y2328418D01*
X-844905Y2341981D01*
X-845819Y2355596D01*
X-848512Y2368956D01*
X-853033Y2381859D01*
X-859180Y2394051D01*
X-866902Y2405278D01*
X-876046Y2415387D01*
X-886409Y2424176D01*
X-898855Y2432050D01*
X-901903Y2435098D01*
X-903478Y2439162D01*
X-903173Y2443480D01*
X-901090Y2447290D01*
X-897636Y2449880D01*
X-893419Y2450795D01*
X-805230Y2450795D01*
X-792480Y2449880D01*
X-779221Y2447137D01*
X-766521Y2442514D01*
X-754583Y2436114D01*
X-743712Y2428087D01*
X-737057Y2421585D01*
X-734872Y2418334D01*
X-734110Y2414422D01*
X-734872Y2410510D01*
X-740308Y2402179D01*
X-742188Y2396744D01*
X-742899Y2390394D01*
X-742899Y2321560D01*
X-742188Y2315260D01*
X-740308Y2309774D01*
X-738174Y2306370D01*
X-736803Y2302865D01*
X-736803Y2299106D01*
X-738174Y2295601D01*
X-740308Y2292197D01*
X-742188Y2286711D01*
X-742899Y2280412D01*
X-742899Y2269845D01*
X-700836Y2269845D01*
X-700836Y2284933D01*
X-700074Y2288794D01*
X-697890Y2292096D01*
X-694588Y2294280D01*
X-690676Y2295093D01*
X-653338Y2295093D01*
X-649427Y2294280D01*
X-646125Y2292096D01*
X-643940Y2288794D01*
X-643178Y2284933D01*
X-643178Y2269845D01*
X-601116Y2269845D01*
X-601116Y2280412D01*
X-601827Y2286711D01*
X-603707Y2292197D01*
X-605840Y2295601D01*
X-607212Y2299106D01*
X-607212Y2302865D01*
X-605840Y2306370D01*
X-603707Y2309774D01*
X-601827Y2315260D01*
X-601116Y2321560D01*
X-601116Y2390394D01*
X-601827Y2396744D01*
X-603707Y2402179D01*
X-606806Y2407107D01*
X-610920Y2411171D01*
X-615797Y2414270D01*
X-621284Y2416200D01*
X-627583Y2416911D01*
X-638048Y2416911D01*
X-642010Y2417724D01*
X-645363Y2420010D01*
X-647547Y2423414D01*
X-648462Y2425801D01*
X-656590Y2441803D01*
X-666394Y2456840D01*
X-677672Y2470810D01*
X-690372Y2483510D01*
X-704342Y2494838D01*
X-719429Y2504592D01*
X-735431Y2512771D01*
X-752195Y2519172D01*
X-769569Y2523845D01*
X-787298Y2526639D01*
X-805484Y2527604D01*
X-876503Y2527604D01*
X-880414Y2528417D01*
X-883767Y2530652D01*
X-885952Y2534056D01*
X-886663Y2538018D01*
X-885748Y2541930D01*
X-883767Y2546400D01*
X-881532Y2549550D01*
X-878281Y2551633D01*
X-874521Y2552395D01*
X-546100Y2552395D01*
X-537108Y2551277D01*
X-534568Y2550617D01*
X-527456Y2547670D01*
X-525170Y2546350D01*
X-519023Y2541625D01*
X-517143Y2539746D01*
X-512470Y2533650D01*
X-511149Y2531364D01*
X-508203Y2524252D01*
X-507492Y2521661D01*
X-506425Y2512669D01*
X-506425Y2426665D01*
X-507085Y2423007D01*
X-508965Y2419858D01*
X-511911Y2417622D01*
X-515416Y2416556D01*
X-518718Y2416200D01*
X-524205Y2414270D01*
X-529082Y2411171D01*
X-533196Y2407107D01*
X-536295Y2402179D01*
X-538175Y2396744D01*
X-538886Y2390394D01*
X-538886Y2321560D01*
X-538175Y2315260D01*
X-536295Y2309774D01*
X-534162Y2306421D01*
X-532790Y2302865D01*
X-532790Y2299106D01*
X-534162Y2295601D01*
X-536295Y2292197D01*
X-538175Y2286762D01*
X-538886Y2280412D01*
X-538886Y2231999D01*
X-539699Y2228037D01*
X-542036Y2224684D01*
X-545439Y2222500D01*
X-549452Y2221839D01*
X-570230Y2222652D01*
X-590550Y2221890D01*
X-593293Y2222144D01*
X-643178Y2222144D01*
X-644093Y2217216D01*
X-646734Y2213762D01*
X-650544Y2211730D01*
X-664768Y2207717D01*
X-687171Y2199436D01*
X-691032Y2198827D01*
X-694791Y2199690D01*
X-697992Y2201875D01*
X-700125Y2205126D01*
X-700836Y2208987D01*
X-700836Y2222144D01*
X-742899Y2222144D01*
X-742899Y2211578D01*
X-742188Y2205228D01*
X-740308Y2199792D01*
X-737209Y2194864D01*
X-732739Y2190394D01*
X-730351Y2186635D01*
X-729843Y2182215D01*
X-731215Y2177999D01*
X-734314Y2174798D01*
X-750062Y2164232D01*
X-768908Y2149348D01*
X-786587Y2133092D01*
X-802843Y2115413D01*
X-817727Y2096566D01*
X-831087Y2076602D01*
X-842822Y2055622D01*
X-852881Y2033828D01*
X-861212Y2011273D01*
X-867714Y1988159D01*
X-872388Y1964639D01*
X-875233Y1940763D01*
X-876147Y1916734D01*
X-875233Y1892757D01*
X-872388Y1868881D01*
X-867714Y1845360D01*
X-861212Y1822246D01*
X-852881Y1799691D01*
X-842822Y1777898D01*
X-831087Y1756918D01*
X-817727Y1736953D01*
X-802843Y1718106D01*
X-786587Y1700428D01*
X-768908Y1684172D01*
X-750062Y1669288D01*
X-730097Y1655927D01*
X-709117Y1644192D01*
X-687324Y1634134D01*
X-664768Y1625803D01*
X-641654Y1619300D01*
X-618134Y1614627D01*
X-594258Y1611782D01*
X-570230Y1610868D01*
X-546252Y1611782D01*
X-522376Y1614627D01*
X-498856Y1619300D01*
X-475742Y1625803D01*
X-453186Y1634134D01*
X-431393Y1644192D01*
X-410413Y1655927D01*
X-390448Y1669288D01*
X-371602Y1684172D01*
X-353923Y1700428D01*
X-337667Y1718106D01*
X-322783Y1736953D01*
X-309422Y1756918D01*
X-297688Y1777898D01*
X-287629Y1799691D01*
X-279298Y1822246D01*
X-272796Y1845360D01*
X-268122Y1868881D01*
X-265277Y1892757D01*
X-264363Y1916734D01*
X-265277Y1940763D01*
X-268122Y1964639D01*
X-272796Y1988159D01*
X-279298Y2011273D01*
X-287629Y2033828D01*
X-297688Y2055622D01*
X-309422Y2076602D01*
X-322783Y2096566D01*
X-337667Y2115413D01*
X-353923Y2133092D01*
X-371602Y2149348D01*
X-390448Y2164232D01*
X-405942Y2174595D01*
X-408990Y2177796D01*
X-410362Y2182012D01*
X-409854Y2186432D01*
X-407466Y2190191D01*
X-402793Y2194915D01*
X-399694Y2199792D01*
X-397814Y2205278D01*
X-397256Y2210054D01*
X-396036Y2213813D01*
X-393547Y2216861D01*
X-390042Y2218690D01*
X-375310Y2223058D01*
X-353364Y2231644D01*
X-332130Y2242007D01*
X-311912Y2254046D01*
X-292709Y2267762D01*
X-274675Y2283002D01*
X-258013Y2299716D01*
X-242773Y2317699D01*
X-229057Y2336901D01*
X-216966Y2357170D01*
X-206603Y2378354D01*
X-198069Y2400350D01*
X-191312Y2422956D01*
X-186486Y2446020D01*
X-183540Y2469438D01*
X-182575Y2493213D01*
X-182575Y2527757D01*
X-181711Y2531821D01*
X-179324Y2535224D01*
X-171399Y2539847D01*
X-167894Y2541219D01*
X-164084Y2541219D01*
X-160578Y2539847D01*
X-157226Y2537714D01*
X-151739Y2535783D01*
X-145440Y2535072D01*
X-134823Y2535072D01*
X-134823Y2577134D01*
X-149910Y2577134D01*
X-153822Y2577896D01*
X-157124Y2580132D01*
X-159308Y2583383D01*
X-160070Y2587294D01*
X-160070Y2624683D01*
X-159308Y2628544D01*
X-157124Y2631846D01*
X-153822Y2634081D01*
X-149910Y2634843D01*
X-134823Y2634843D01*
X-134823Y2639466D01*
X-133959Y2643530D01*
X-131521Y2646934D01*
X-127965Y2649067D01*
X-123799Y2649575D01*
X-114300Y2648762D01*
X-104495Y2649626D01*
X-99923Y2650845D01*
X-96215Y2651150D01*
X-92710Y2650083D01*
X-89763Y2647797D01*
X-87833Y2644648D01*
X-87122Y2641041D01*
X-87122Y2634843D01*
X-82397Y2633878D01*
X-78943Y2631287D01*
X-76911Y2627426D01*
X-73710Y2616047D01*
X-65379Y2593543D01*
X-64465Y2591562D01*
X-63550Y2587599D01*
X-64211Y2583637D01*
X-66395Y2580233D01*
X-69748Y2577947D01*
X-73710Y2577134D01*
X-87122Y2577134D01*
X-87122Y2535072D01*
X-76555Y2535072D01*
X-70256Y2535783D01*
X-64769Y2537714D01*
X-59893Y2540762D01*
X-54914Y2545791D01*
X-51155Y2548178D01*
X-46736Y2548737D01*
X-42468Y2547366D01*
X-39268Y2544267D01*
X-30226Y2530754D01*
X-15341Y2511907D01*
X914Y2494280D01*
X18592Y2477973D01*
X37439Y2463088D01*
X57404Y2449779D01*
X78384Y2438044D01*
X100177Y2427986D01*
X122732Y2419654D01*
X145846Y2413152D01*
X169367Y2408428D01*
X193243Y2405634D01*
X217271Y2404668D01*
X241249Y2405634D01*
X265125Y2408428D01*
X288645Y2413152D01*
X311759Y2419654D01*
X334314Y2427986D01*
X356108Y2438044D01*
X377088Y2449779D01*
X397052Y2463088D01*
X415899Y2477973D01*
X433578Y2494280D01*
X449834Y2511907D01*
X464718Y2530754D01*
X478078Y2550769D01*
X489813Y2571699D01*
X499872Y2593543D01*
X508203Y2616047D01*
X514705Y2639161D01*
X519379Y2662732D01*
X522224Y2686608D01*
X523138Y2710586D01*
X522224Y2734564D01*
X519379Y2758440D01*
X514705Y2782011D01*
X508203Y2805125D01*
X499872Y2827629D01*
X489813Y2849473D01*
X478078Y2870403D01*
X464718Y2890418D01*
X449834Y2909265D01*
X433578Y2926892D01*
X415899Y2943199D01*
X397052Y2958084D01*
X377088Y2971393D01*
X356108Y2983128D01*
X334314Y2993186D01*
X311759Y3001518D01*
X288645Y3008020D01*
X265125Y3012744D01*
X241249Y3015538D01*
X217271Y3016504D01*
X193243Y3015538D01*
X169367Y3012744D01*
X145846Y3008020D01*
X122732Y3001518D01*
X100177Y2993186D01*
X78384Y2983128D01*
X57404Y2971393D01*
X37439Y2958084D01*
X18592Y2943199D01*
X914Y2926892D01*
X-15341Y2909265D01*
X-30226Y2890418D01*
X-41300Y2873806D01*
X-44551Y2870758D01*
X-48768Y2869336D01*
X-53187Y2869895D01*
X-56946Y2872282D01*
X-59893Y2875229D01*
X-64769Y2878277D01*
X-70256Y2880207D01*
X-76555Y2880918D01*
X-145440Y2880918D01*
X-151739Y2880207D01*
X-157226Y2878277D01*
X-160578Y2876194D01*
X-164134Y2874772D01*
X-167894Y2874772D01*
X-171399Y2876194D01*
X-174752Y2878277D01*
X-180238Y2880207D01*
X-186537Y2880918D01*
X-255422Y2880918D01*
X-261721Y2880207D01*
X-267817Y2878074D01*
X-271627Y2877515D01*
X-275336Y2878429D01*
X-278485Y2880664D01*
X-280568Y2883916D01*
X-281330Y2887675D01*
X-280568Y2891485D01*
X-278638Y2896209D01*
X-275996Y2907538D01*
X-275132Y2919120D01*
X-275996Y2930702D01*
X-278638Y2942031D01*
X-283006Y2952800D01*
X-288950Y2962757D01*
X-296316Y2971749D01*
X-305003Y2979470D01*
X-314756Y2985770D01*
X-325374Y2990545D01*
X-336550Y2993593D01*
X-348081Y2994964D01*
X-359714Y2994507D01*
X-371195Y2992272D01*
X-378917Y2989630D01*
X-381965Y2989072D01*
X-385013Y2989478D01*
X-400659Y2993999D01*
X-404114Y2994558D01*
X-407924Y2996031D01*
X-410819Y2998876D01*
X-412394Y3002584D01*
X-412394Y3006648D01*
X-410768Y3010408D01*
X-406857Y3013811D01*
X-400304Y3020517D01*
X-397052Y3022142D01*
X-393446Y3022498D01*
X-389940Y3021584D01*
X-387553Y3020466D01*
X-378104Y3017926D01*
X-368300Y3017062D01*
X-358495Y3017926D01*
X-349046Y3020466D01*
X-340106Y3024581D01*
X-332079Y3030220D01*
X-325120Y3037179D01*
X-324154Y3038551D01*
X-321259Y3041345D01*
X-317500Y3042767D01*
X-313436Y3042615D01*
X-309829Y3040888D01*
X-307086Y3037890D01*
X-303174Y3031236D01*
X-294690Y3020517D01*
X-284886Y3011068D01*
X-273913Y3002940D01*
X-261975Y2996387D01*
X-249224Y2991510D01*
X-235966Y2988360D01*
X-222402Y2986989D01*
X-208788Y2987446D01*
X-195326Y2989681D01*
X-182321Y2993745D01*
X-169926Y2999486D01*
X-158445Y3006801D01*
X-148031Y3015640D01*
X-138887Y3025749D01*
X-131165Y3036976D01*
X-125018Y3049168D01*
X-120548Y3062020D01*
X-117805Y3075381D01*
X-116890Y3088995D01*
X-117805Y3102610D01*
X-118719Y3106978D01*
X-118618Y3111500D01*
X-116585Y3115513D01*
X-113030Y3118256D01*
X-94589Y3126689D01*
X-72593Y3134817D01*
X-50038Y3141116D01*
X-27025Y3145688D01*
X-3759Y3148380D01*
X19304Y3149295D01*
X217525Y3149295D01*
X221437Y3148533D01*
X224688Y3146298D01*
X226517Y3144520D01*
X234543Y3138881D01*
X243433Y3134766D01*
X252933Y3132226D01*
X262737Y3131362D01*
X272491Y3132226D01*
X281990Y3134766D01*
X290880Y3138881D01*
X298958Y3144520D01*
X305866Y3151479D01*
X311505Y3159506D01*
X315671Y3168446D01*
X318211Y3177895D01*
X319074Y3187700D01*
X318211Y3197504D01*
X315671Y3206953D01*
X311505Y3215894D01*
X305866Y3223920D01*
X298958Y3230880D01*
X290880Y3236518D01*
X281990Y3240633D01*
X272491Y3243173D01*
X262737Y3244037D01*
X252933Y3243173D01*
X243433Y3240633D01*
X234543Y3236518D01*
X226517Y3230880D01*
X224688Y3229102D01*
X221437Y3226866D01*
X217525Y3226104D01*
X19456Y3226104D01*
X-7467Y3225139D01*
X-34137Y3222294D01*
X-60502Y3217519D01*
X-86461Y3210915D01*
X-111912Y3202432D01*
X-136652Y3192170D01*
X-160934Y3180029D01*
X-164287Y3178860D01*
X-168046Y3178403D01*
X-171704Y3179368D01*
X-174752Y3181604D01*
X-176784Y3184804D01*
X-177495Y3188512D01*
X-177495Y4292295D01*
X-178358Y4306417D01*
X-180848Y4320032D01*
X-184962Y4333240D01*
X-190652Y4345838D01*
X-197815Y4357674D01*
X-203352Y4364786D01*
X-205232Y4368850D01*
X-205232Y4373321D01*
X-203250Y4377385D01*
X-199745Y4380179D01*
X-195326Y4381195D01*
X1371600Y4381195D01*
X1381709Y4380128D01*
X1383944Y4379620D01*
X1392478Y4376623D01*
X1394510Y4375658D01*
X1402130Y4370832D01*
X1403908Y4369409D01*
X1410309Y4363008D01*
X1411732Y4361230D01*
X1416558Y4353610D01*
X1417523Y4351578D01*
X1420520Y4343044D01*
X1421028Y4340809D01*
X1422095Y4330700D01*
X1422095Y3594100D01*
X1421231Y3583990D01*
X1420926Y3582263D01*
X1418539Y3573322D01*
X1417929Y3571646D01*
X1413154Y3561740D01*
X1407871Y3554171D01*
X1400149Y3546297D01*
X1398828Y3545179D01*
X1391259Y3539845D01*
X1381353Y3535070D01*
X1379677Y3534460D01*
X1370736Y3532073D01*
X1369009Y3531768D01*
X1358900Y3530904D01*
X1109421Y3530904D01*
X1105357Y3531768D01*
X1101953Y3534156D01*
X1099820Y3537712D01*
X1098397Y3541826D01*
X1095298Y3546703D01*
X1091234Y3550818D01*
X1086307Y3553866D01*
X1080871Y3555796D01*
X1074521Y3556508D01*
X923290Y3556508D01*
X916940Y3555796D01*
X911504Y3553866D01*
X906576Y3550818D01*
X902512Y3546703D01*
X899414Y3541826D01*
X897534Y3536340D01*
X896823Y3530041D01*
X896823Y3454958D01*
X897534Y3448659D01*
X899414Y3443173D01*
X902512Y3438296D01*
X904595Y3436162D01*
X906830Y3432911D01*
X907592Y3429000D01*
X906830Y3425088D01*
X904595Y3421837D01*
X902512Y3419703D01*
X899414Y3414826D01*
X897534Y3409340D01*
X896823Y3403041D01*
X896823Y3327958D01*
X897534Y3321659D01*
X899414Y3316173D01*
X902512Y3311296D01*
X904595Y3309162D01*
X906830Y3305911D01*
X907592Y3302000D01*
X906830Y3298088D01*
X904595Y3294837D01*
X902512Y3292703D01*
X899414Y3287826D01*
X897991Y3283712D01*
X895858Y3280156D01*
X892454Y3277768D01*
X888390Y3276904D01*
X740206Y3276904D01*
X715975Y3277920D01*
X691946Y3280765D01*
X668172Y3285540D01*
X644906Y3292144D01*
X622147Y3300526D01*
X600202Y3310737D01*
X579069Y3322574D01*
X558952Y3336086D01*
X539953Y3351072D01*
X522071Y3367684D01*
X512013Y3379012D01*
X503326Y3391408D01*
X496062Y3404666D01*
X490321Y3418687D01*
X486206Y3433267D01*
X483717Y3448202D01*
X482904Y3462731D01*
X482904Y3752850D01*
X481990Y3776472D01*
X479247Y3799738D01*
X474675Y3822750D01*
X468274Y3845306D01*
X460197Y3867302D01*
X450342Y3888587D01*
X438912Y3909060D01*
X425856Y3928516D01*
X411378Y3946956D01*
X395478Y3964127D01*
X379018Y3979214D01*
X361391Y3992727D01*
X342595Y4004716D01*
X322834Y4014978D01*
X302260Y4023512D01*
X281025Y4030218D01*
X259334Y4035044D01*
X237236Y4037939D01*
X214782Y4038904D01*
X-24638Y4038904D01*
X-28702Y4039768D01*
X-32105Y4042206D01*
X-34950Y4045305D01*
X-42926Y4051452D01*
X-51765Y4056227D01*
X-61264Y4059529D01*
X-71170Y4061155D01*
X-81229Y4061155D01*
X-91135Y4059529D01*
X-100634Y4056227D01*
X-109474Y4051452D01*
X-117449Y4045305D01*
X-124256Y4037888D01*
X-129743Y4029456D01*
X-133756Y4020261D01*
X-136245Y4010507D01*
X-137058Y4000500D01*
X-136245Y3990492D01*
X-133756Y3980738D01*
X-129743Y3971544D01*
X-124256Y3963111D01*
X-117449Y3955694D01*
X-109474Y3949547D01*
X-100634Y3944772D01*
X-91135Y3941470D01*
X-81229Y3939844D01*
X-71170Y3939844D01*
X-61264Y3941470D01*
X-51765Y3944772D01*
X-42926Y3949547D01*
X-34950Y3955694D01*
X-32105Y3958793D01*
X-28702Y3961231D01*
X-24638Y3962095D01*
X214985Y3962095D01*
X232968Y3961180D01*
X250291Y3958539D01*
X267258Y3954272D01*
X283718Y3948328D01*
X299516Y3940759D01*
X314502Y3931716D01*
X328523Y3921251D01*
X341426Y3909517D01*
X354482Y3895242D01*
X366217Y3879850D01*
X376580Y3863543D01*
X385470Y3846372D01*
X392836Y3828440D01*
X398627Y3810000D01*
X402793Y3791102D01*
X405282Y3771900D01*
X406095Y3753053D01*
X406095Y3462985D01*
X406908Y3444290D01*
X409295Y3425951D01*
X413308Y3407918D01*
X418896Y3390290D01*
X425958Y3373221D01*
X434492Y3356813D01*
X444398Y3341217D01*
X455676Y3326587D01*
X468172Y3312922D01*
X488289Y3294227D01*
X509676Y3276955D01*
X532282Y3261258D01*
X555955Y3247237D01*
X580542Y3234893D01*
X605942Y3224377D01*
X632053Y3215690D01*
X658672Y3208883D01*
X685749Y3204006D01*
X713079Y3201060D01*
X740765Y3200095D01*
X888390Y3200095D01*
X892454Y3199231D01*
X895858Y3196844D01*
X897991Y3193288D01*
X899414Y3189173D01*
X902512Y3184296D01*
X904595Y3182162D01*
X906830Y3178911D01*
X907592Y3175000D01*
X906830Y3171088D01*
X904595Y3167837D01*
X902512Y3165703D01*
X899414Y3160826D01*
X897534Y3155340D01*
X896823Y3149041D01*
X896823Y3073958D01*
X897534Y3067659D01*
X899414Y3062173D01*
X902512Y3057296D01*
X906576Y3053181D01*
X911504Y3050133D01*
X916940Y3048203D01*
X923290Y3047492D01*
X1074521Y3047492D01*
X1080871Y3048203D01*
X1086307Y3050133D01*
X1091234Y3053181D01*
X1095298Y3057296D01*
X1098397Y3062173D01*
X1099820Y3066288D01*
X1101953Y3069844D01*
X1105357Y3072231D01*
X1109421Y3073095D01*
X1335887Y3073095D01*
X1339037Y3072587D01*
X1341932Y3071114D01*
X1344168Y3068777D01*
X1348079Y3063240D01*
X1356156Y3054858D01*
X1365402Y3047796D01*
X1375562Y3042259D01*
X1386535Y3038348D01*
X1397914Y3036112D01*
X1409547Y3035655D01*
X1421079Y3037027D01*
X1432255Y3040075D01*
X1442872Y3044850D01*
X1452626Y3051149D01*
X1461312Y3058871D01*
X1468678Y3067862D01*
X1474622Y3077819D01*
X1478686Y3087979D01*
X1480870Y3091281D01*
X1484172Y3093516D01*
X1488084Y3094329D01*
X1491996Y3093567D01*
X1495298Y3091383D01*
X1497533Y3088081D01*
X1498295Y3084169D01*
X1498295Y2286000D01*
X1497279Y2273706D01*
X1493977Y2260904D01*
X1493367Y2259228D01*
X1488541Y2248865D01*
X1487627Y2247290D01*
X1479956Y2236571D01*
X1471828Y2228443D01*
X1461109Y2220772D01*
X1459534Y2219858D01*
X1449171Y2215032D01*
X1447495Y2214422D01*
X1434693Y2211120D01*
X1422400Y2210104D01*
X1283004Y2210104D01*
X1268018Y2209292D01*
X1253540Y2206802D01*
X1239418Y2202738D01*
X1225804Y2197100D01*
X1212951Y2189988D01*
X1200962Y2181504D01*
X1189990Y2171700D01*
X1180185Y2160727D01*
X1171702Y2148738D01*
X1164590Y2135886D01*
X1158951Y2122271D01*
X1154887Y2108149D01*
X1152398Y2093671D01*
X1151585Y2078685D01*
X1151585Y958087D01*
X1150924Y954582D01*
X1149096Y951484D01*
X1146302Y949198D01*
X1135075Y943051D01*
X1124102Y934923D01*
X1114298Y925474D01*
X1105814Y914755D01*
X1098905Y903020D01*
X1093571Y890473D01*
X1089964Y877316D01*
X1088136Y863803D01*
X1088136Y850188D01*
X1089964Y836676D01*
X1093571Y823518D01*
X1098905Y810971D01*
X1105814Y799236D01*
X1114298Y788517D01*
X1124102Y779018D01*
X1135075Y770940D01*
X1147013Y764387D01*
X1159764Y759510D01*
X1173022Y756310D01*
X1186586Y754938D01*
X1200200Y755396D01*
X1213662Y757682D01*
X1226667Y761746D01*
X1239062Y767486D01*
X1250543Y774801D01*
X1260957Y783590D01*
X1270101Y793699D01*
X1277823Y804976D01*
X1283970Y817118D01*
X1288440Y830021D01*
X1291183Y843381D01*
X1292098Y856996D01*
X1291183Y870610D01*
X1288440Y883970D01*
X1283970Y896823D01*
X1277823Y909015D01*
X1270101Y920242D01*
X1260957Y930351D01*
X1250543Y939190D01*
X1239062Y946505D01*
X1234287Y948740D01*
X1231188Y950976D01*
X1229106Y954176D01*
X1228394Y957935D01*
X1228394Y2078989D01*
X1229309Y2088591D01*
X1229664Y2090572D01*
X1232204Y2098852D01*
X1232966Y2100681D01*
X1237030Y2108301D01*
X1238148Y2109978D01*
X1243634Y2116632D01*
X1245057Y2118055D01*
X1251712Y2123541D01*
X1253388Y2124659D01*
X1261008Y2128723D01*
X1262837Y2129485D01*
X1271117Y2132025D01*
X1273098Y2132380D01*
X1282700Y2133295D01*
X1422146Y2133295D01*
X1438351Y2134158D01*
X1454150Y2136648D01*
X1469593Y2140762D01*
X1484528Y2146503D01*
X1498752Y2153767D01*
X1512163Y2162454D01*
X1524558Y2172512D01*
X1535887Y2183841D01*
X1545945Y2196236D01*
X1554632Y2209647D01*
X1561896Y2223871D01*
X1567637Y2238806D01*
X1571752Y2254250D01*
X1574241Y2270048D01*
X1575104Y2286254D01*
X1575104Y3314496D01*
X1574190Y3334664D01*
X1571396Y3354425D01*
X1566824Y3373882D01*
X1560474Y3392830D01*
X1552448Y3411067D01*
X1542694Y3428542D01*
X1531416Y3445001D01*
X1518666Y3460343D01*
X1504543Y3474465D01*
X1489202Y3487216D01*
X1474317Y3497427D01*
X1471523Y3500272D01*
X1470101Y3504031D01*
X1470152Y3507994D01*
X1471777Y3511651D01*
X1477416Y3519627D01*
X1485036Y3533343D01*
X1491030Y3547872D01*
X1495399Y3562959D01*
X1497990Y3578402D01*
X1498904Y3594404D01*
X1498904Y4330395D01*
X1497939Y4346041D01*
X1495196Y4361180D01*
X1490624Y4375861D01*
X1484325Y4389831D01*
X1476349Y4402988D01*
X1466900Y4415129D01*
X1460246Y4421733D01*
X1458061Y4425035D01*
X1457248Y4428896D01*
X1458061Y4432808D01*
X1460246Y4436110D01*
X1463548Y4438294D01*
X1467408Y4439056D01*
X4001363Y4439056D01*
X4005275Y4438294D01*
X4008577Y4436110D01*
X4011879Y4432757D01*
X4016806Y4429709D01*
X4022242Y4427778D01*
X4025137Y4427474D01*
X4029252Y4426051D01*
X4032402Y4423054D01*
X4034028Y4418990D01*
X4033774Y4414621D01*
X4031691Y4410760D01*
X4028236Y4408170D01*
X4023969Y4407204D01*
X2299004Y4407204D01*
X2283002Y4406290D01*
X2267559Y4403699D01*
X2252472Y4399330D01*
X2237943Y4393336D01*
X2224227Y4385716D01*
X2211425Y4376674D01*
X2199690Y4366209D01*
X2189226Y4354474D01*
X2180183Y4341672D01*
X2172563Y4327956D01*
X2166569Y4313428D01*
X2162200Y4298340D01*
X2159609Y4282897D01*
X2158695Y4266895D01*
X2158695Y3779265D01*
X2158238Y3776218D01*
X2156866Y3773424D01*
X2154682Y3771188D01*
X2146604Y3765042D01*
X2138578Y3756660D01*
X2131872Y3747160D01*
X2126742Y3736746D01*
X2123236Y3725672D01*
X2121458Y3714191D01*
X2121458Y3702608D01*
X2123236Y3691128D01*
X2126742Y3680053D01*
X2131872Y3669639D01*
X2138578Y3660140D01*
X2146604Y3651758D01*
X2153818Y3646271D01*
X2156002Y3644036D01*
X2157374Y3641242D01*
X2157831Y3638194D01*
X2157831Y3570782D01*
X2156968Y3566718D01*
X2154580Y3563365D01*
X2151024Y3561181D01*
X2144674Y3558997D01*
X2139797Y3555898D01*
X2135682Y3551834D01*
X2132634Y3546906D01*
X2130501Y3540861D01*
X2128367Y3537305D01*
X2124964Y3534867D01*
X2120900Y3534054D01*
X2116836Y3534867D01*
X2113432Y3537305D01*
X2111298Y3540861D01*
X2109165Y3546906D01*
X2106117Y3551834D01*
X2102002Y3555898D01*
X2097125Y3558997D01*
X2091639Y3560876D01*
X2085339Y3561587D01*
X2072081Y3561587D01*
X2072081Y3520440D01*
X2119833Y3520440D01*
X2123744Y3519678D01*
X2126996Y3517493D01*
X2129231Y3514191D01*
X2129993Y3510279D01*
X2129993Y3474720D01*
X2129231Y3470808D01*
X2126996Y3467506D01*
X2123744Y3465322D01*
X2119833Y3464560D01*
X2072081Y3464560D01*
X2072081Y3423412D01*
X2085339Y3423412D01*
X2091639Y3424123D01*
X2097125Y3426002D01*
X2102002Y3429101D01*
X2106117Y3433165D01*
X2109165Y3438093D01*
X2111298Y3444138D01*
X2113432Y3447694D01*
X2116836Y3450132D01*
X2120900Y3450945D01*
X2124964Y3450132D01*
X2128367Y3447694D01*
X2130501Y3444138D01*
X2132634Y3438093D01*
X2135682Y3433165D01*
X2139797Y3429101D01*
X2144674Y3426002D01*
X2150160Y3424123D01*
X2156460Y3423412D01*
X2235962Y3423412D01*
X2242312Y3424123D01*
X2247747Y3426002D01*
X2252675Y3429101D01*
X2256739Y3433165D01*
X2259838Y3438093D01*
X2261768Y3443528D01*
X2262479Y3449878D01*
X2262479Y3535121D01*
X2261768Y3541471D01*
X2259838Y3546906D01*
X2256739Y3551834D01*
X2252675Y3555898D01*
X2247747Y3558997D01*
X2241448Y3561181D01*
X2237892Y3563315D01*
X2235504Y3566718D01*
X2234641Y3570782D01*
X2234641Y3637076D01*
X2235200Y3640378D01*
X2236825Y3643325D01*
X2239264Y3645560D01*
X2243074Y3648049D01*
X2251760Y3655771D01*
X2259177Y3664762D01*
X2265121Y3674719D01*
X2269439Y3685489D01*
X2272080Y3696817D01*
X2272995Y3708400D01*
X2272080Y3719982D01*
X2269439Y3731310D01*
X2265121Y3742080D01*
X2259177Y3752037D01*
X2251760Y3761028D01*
X2243074Y3768750D01*
X2240127Y3770680D01*
X2237689Y3772915D01*
X2236063Y3775862D01*
X2235504Y3779164D01*
X2235504Y4267200D01*
X2236368Y4277309D01*
X2236673Y4279036D01*
X2239060Y4287977D01*
X2239670Y4289653D01*
X2244445Y4299559D01*
X2249728Y4307128D01*
X2258771Y4316171D01*
X2266340Y4321454D01*
X2276246Y4326229D01*
X2277922Y4326839D01*
X2286863Y4329226D01*
X2288590Y4329531D01*
X2298700Y4330395D01*
X4127144Y4330395D01*
X4140200Y4331309D01*
X4152646Y4334052D01*
X4164533Y4338472D01*
X4175709Y4344568D01*
X4185920Y4352188D01*
X4194911Y4361180D01*
X4202531Y4371390D01*
X4208627Y4382566D01*
X4213047Y4394454D01*
X4215790Y4406900D01*
X4216552Y4417618D01*
X4217517Y4421276D01*
X4219752Y4424375D01*
X4222953Y4426356D01*
X4226661Y4427067D01*
X4327448Y4427067D01*
X4333748Y4427778D01*
X4339234Y4429709D01*
X4344111Y4432757D01*
X4348226Y4436872D01*
X4351274Y4441748D01*
X4353204Y4447235D01*
X4353915Y4453534D01*
X4353915Y4752390D01*
X4353204Y4758740D01*
X4351274Y4764176D01*
X4348226Y4769104D01*
X4344111Y4773168D01*
X4339234Y4776266D01*
X4333748Y4778197D01*
X4327448Y4778908D01*
X4090060Y4778908D01*
X4086148Y4779670D01*
X4082897Y4781854D01*
X4080662Y4785156D01*
X4079900Y4789068D01*
X4079900Y4980686D01*
X4078986Y4995418D01*
X4076395Y5009692D01*
X4072077Y5023510D01*
X4066133Y5036718D01*
X4058665Y5049113D01*
X4049725Y5060492D01*
X4039514Y5070703D01*
X4028084Y5079644D01*
X4015689Y5087162D01*
X4002481Y5093106D01*
X3988663Y5097373D01*
X3983431Y5099253D01*
X3980484Y5102352D01*
X3979113Y5106416D01*
X3979468Y5110632D01*
X3981602Y5114391D01*
X3985006Y5116880D01*
X3989171Y5117795D01*
X4457700Y5117795D01*
X4472330Y5116525D01*
X4485843Y5113172D01*
X4498594Y5107736D01*
X4509109Y5101336D01*
X4519777Y5092395D01*
X4529836Y5080609D01*
X4536948Y5068671D01*
X4542180Y5055819D01*
X4545279Y5042255D01*
X4546295Y5029200D01*
X4546295Y4330700D01*
X4545431Y4324502D01*
X4544466Y4321454D01*
X4542332Y4317288D01*
X4540453Y4314748D01*
X4537151Y4311446D01*
X4534611Y4309567D01*
X4530445Y4307433D01*
X4527397Y4306468D01*
X4521200Y4305604D01*
X2629204Y4305604D01*
X2615082Y4304741D01*
X2601468Y4302252D01*
X2588260Y4298137D01*
X2575661Y4292447D01*
X2563825Y4285284D01*
X2552903Y4276750D01*
X2543149Y4266996D01*
X2534615Y4256074D01*
X2527452Y4244238D01*
X2521762Y4231640D01*
X2517648Y4218432D01*
X2515158Y4204817D01*
X2514295Y4190695D01*
X2514295Y3491026D01*
X2513584Y3487318D01*
X2511602Y3484168D01*
X2504643Y3476599D01*
X2499156Y3468166D01*
X2495143Y3458972D01*
X2492654Y3449218D01*
X2491841Y3439210D01*
X2492654Y3429203D01*
X2495143Y3419449D01*
X2499156Y3410254D01*
X2504643Y3401822D01*
X2511450Y3394405D01*
X2519426Y3388258D01*
X2528265Y3383483D01*
X2537764Y3380181D01*
X2547670Y3378555D01*
X2557729Y3378555D01*
X2567635Y3380181D01*
X2577134Y3383483D01*
X2585974Y3388258D01*
X2593949Y3394405D01*
X2600756Y3401822D01*
X2606243Y3410254D01*
X2610256Y3419449D01*
X2612745Y3429203D01*
X2613558Y3439210D01*
X2612745Y3449218D01*
X2610256Y3458972D01*
X2606243Y3468166D01*
X2600756Y3476599D01*
X2593797Y3484168D01*
X2591816Y3487318D01*
X2591104Y3491026D01*
X2591104Y4191000D01*
X2592120Y4199483D01*
X2592832Y4202023D01*
X2595575Y4208678D01*
X2596896Y4211015D01*
X2601315Y4216704D01*
X2603195Y4218584D01*
X2608884Y4223004D01*
X2611221Y4224324D01*
X2617876Y4227068D01*
X2620416Y4227779D01*
X2628900Y4228795D01*
X4520844Y4228795D01*
X4534509Y4229709D01*
X4547565Y4232300D01*
X4560214Y4236567D01*
X4572152Y4242460D01*
X4583226Y4249877D01*
X4593234Y4258665D01*
X4602022Y4268673D01*
X4609439Y4279747D01*
X4615434Y4291939D01*
X4617466Y4295444D01*
X4620717Y4297883D01*
X4624628Y4298848D01*
X4628642Y4298188D01*
X4632096Y4296003D01*
X4634382Y4292650D01*
X4635195Y4288688D01*
X4635195Y3810000D01*
X4634331Y3799890D01*
X4634026Y3798163D01*
X4631639Y3789222D01*
X4631029Y3787546D01*
X4626254Y3777640D01*
X4620971Y3770071D01*
X4611928Y3761028D01*
X4604359Y3755745D01*
X4594453Y3750970D01*
X4592777Y3750360D01*
X4583836Y3747973D01*
X4582109Y3747668D01*
X4572000Y3746804D01*
X4127804Y3746804D01*
X4113682Y3745941D01*
X4100068Y3743451D01*
X4086860Y3739337D01*
X4074261Y3733647D01*
X4062425Y3726484D01*
X4051503Y3717950D01*
X4041749Y3708196D01*
X4033215Y3697274D01*
X4026052Y3685438D01*
X4020362Y3672840D01*
X4016248Y3659632D01*
X4013758Y3646017D01*
X4012895Y3631895D01*
X4012895Y3568700D01*
X4012031Y3562502D01*
X4011066Y3559454D01*
X4008932Y3555288D01*
X4007053Y3552748D01*
X4003751Y3549446D01*
X4001211Y3547567D01*
X3997045Y3545433D01*
X3993997Y3544468D01*
X3987800Y3543604D01*
X3890619Y3543604D01*
X3886809Y3544366D01*
X3883558Y3546500D01*
X3881323Y3549700D01*
X3880459Y3553460D01*
X3881120Y3557320D01*
X3883151Y3560622D01*
X3886301Y3562959D01*
X3898950Y3568954D01*
X3913733Y3577793D01*
X3927601Y3588105D01*
X3940403Y3599687D01*
X3951986Y3612489D01*
X3962247Y3626358D01*
X3971137Y3641140D01*
X3978503Y3656736D01*
X3984345Y3672992D01*
X3988511Y3689756D01*
X3991051Y3706825D01*
X3991914Y3724300D01*
X3991914Y3990441D01*
X3991051Y4007967D01*
X3988511Y4025036D01*
X3984345Y4041749D01*
X3978503Y4058005D01*
X3971137Y4073601D01*
X3962247Y4088434D01*
X3951986Y4102303D01*
X3940403Y4115104D01*
X3927601Y4126687D01*
X3913733Y4136948D01*
X3898950Y4145838D01*
X3883355Y4153204D01*
X3867099Y4159046D01*
X3850335Y4163212D01*
X3833266Y4165752D01*
X3815791Y4166615D01*
X3553866Y4166615D01*
X3536340Y4165752D01*
X3519271Y4163212D01*
X3502558Y4159046D01*
X3486302Y4153204D01*
X3470656Y4145838D01*
X3455873Y4136948D01*
X3442004Y4126687D01*
X3429203Y4115104D01*
X3417620Y4102303D01*
X3407359Y4088434D01*
X3398469Y4073601D01*
X3391103Y4058005D01*
X3385261Y4041749D01*
X3381095Y4025036D01*
X3378555Y4007967D01*
X3377692Y3990441D01*
X3377692Y3674364D01*
X3378606Y3658870D01*
X3381349Y3643934D01*
X3385870Y3629406D01*
X3392119Y3615537D01*
X3399993Y3602532D01*
X3409391Y3590594D01*
X3420110Y3579825D01*
X3432098Y3570478D01*
X3445306Y3562451D01*
X3448456Y3559454D01*
X3450082Y3555390D01*
X3449828Y3551021D01*
X3447796Y3547160D01*
X3444341Y3544570D01*
X3440074Y3543604D01*
X3086404Y3543604D01*
X3070402Y3542690D01*
X3054959Y3540099D01*
X3039872Y3535730D01*
X3025343Y3529736D01*
X3011627Y3522116D01*
X2998825Y3513074D01*
X2987090Y3502609D01*
X2976626Y3490874D01*
X2967583Y3478072D01*
X2959963Y3464356D01*
X2953969Y3449828D01*
X2949600Y3434740D01*
X2947009Y3419297D01*
X2946095Y3403295D01*
X2946095Y3135680D01*
X2945282Y3131718D01*
X2942996Y3128365D01*
X2939592Y3126181D01*
X2938018Y3125571D01*
X2926029Y3119018D01*
X2915056Y3110941D01*
X2905252Y3101441D01*
X2896819Y3090773D01*
X2889859Y3079038D01*
X2884525Y3066491D01*
X2880969Y3053334D01*
X2879140Y3039821D01*
X2879140Y3026156D01*
X2880969Y3012643D01*
X2884525Y2999486D01*
X2889859Y2986938D01*
X2896819Y2975203D01*
X2905252Y2964484D01*
X2915056Y2955036D01*
X2918714Y2952343D01*
X2921508Y2949194D01*
X2922778Y2945180D01*
X2922320Y2941015D01*
X2920238Y2937357D01*
X2916783Y2934868D01*
X2912668Y2934004D01*
X2895600Y2934004D01*
X2887116Y2935020D01*
X2884576Y2935732D01*
X2877921Y2938475D01*
X2875584Y2939796D01*
X2869895Y2944215D01*
X2868015Y2946095D01*
X2863596Y2951784D01*
X2862275Y2954070D01*
X2859532Y2960776D01*
X2858820Y2963316D01*
X2857804Y2971800D01*
X2857804Y3174746D01*
X2856890Y3192272D01*
X2854198Y3209391D01*
X2849676Y3226104D01*
X2843479Y3242259D01*
X2835656Y3257702D01*
X2826207Y3272231D01*
X2815336Y3285693D01*
X2803093Y3297936D01*
X2789631Y3308807D01*
X2775102Y3318256D01*
X2759659Y3326079D01*
X2743504Y3332276D01*
X2726791Y3336798D01*
X2709672Y3339490D01*
X2692146Y3340404D01*
X2272030Y3340404D01*
X2268372Y3341065D01*
X2265222Y3342995D01*
X2262987Y3345891D01*
X2261768Y3350971D01*
X2259838Y3356406D01*
X2256739Y3361334D01*
X2252675Y3365398D01*
X2247747Y3368497D01*
X2242312Y3370376D01*
X2235962Y3371087D01*
X2156460Y3371087D01*
X2150160Y3370376D01*
X2144674Y3368497D01*
X2139797Y3365398D01*
X2135682Y3361334D01*
X2132634Y3356406D01*
X2130501Y3350361D01*
X2128367Y3346805D01*
X2124964Y3344367D01*
X2120900Y3343554D01*
X2116836Y3344367D01*
X2113432Y3346805D01*
X2111298Y3350361D01*
X2109165Y3356406D01*
X2106117Y3361334D01*
X2102002Y3365398D01*
X2097125Y3368497D01*
X2091639Y3370376D01*
X2085339Y3371087D01*
X2081022Y3371087D01*
X2077669Y3371697D01*
X2074621Y3373374D01*
X2065020Y3384956D01*
X2057298Y3391509D01*
X2048662Y3396843D01*
X2039264Y3400704D01*
X2024786Y3404158D01*
X2021738Y3406394D01*
X2019757Y3409594D01*
X2019046Y3413302D01*
X2019046Y3464560D01*
X1979320Y3464560D01*
X1979320Y3449878D01*
X1980031Y3443528D01*
X1981962Y3438093D01*
X1985060Y3433165D01*
X1989124Y3429101D01*
X1993950Y3426053D01*
X2001012Y3423716D01*
X2004568Y3421684D01*
X2007006Y3418433D01*
X2007971Y3414471D01*
X2007311Y3410458D01*
X2005177Y3407054D01*
X2001824Y3404717D01*
X1997811Y3403904D01*
X1850389Y3403904D01*
X1846325Y3404768D01*
X1842973Y3407156D01*
X1840839Y3410712D01*
X1839366Y3414826D01*
X1836318Y3419703D01*
X1834184Y3421837D01*
X1832000Y3425088D01*
X1831238Y3429000D01*
X1832000Y3432911D01*
X1834184Y3436162D01*
X1836318Y3438296D01*
X1839366Y3443173D01*
X1841093Y3448050D01*
X1765300Y3448050D01*
X1765300Y3439668D01*
X1764538Y3435756D01*
X1762302Y3432505D01*
X1759051Y3430270D01*
X1755139Y3429508D01*
X1724660Y3429508D01*
X1720748Y3430270D01*
X1717497Y3432505D01*
X1715262Y3435756D01*
X1714500Y3439668D01*
X1714500Y3448050D01*
X1638706Y3448050D01*
X1640433Y3443173D01*
X1643481Y3438296D01*
X1645615Y3436162D01*
X1647799Y3432911D01*
X1648561Y3429000D01*
X1647799Y3425088D01*
X1645615Y3421837D01*
X1643481Y3419703D01*
X1640433Y3414826D01*
X1638503Y3409340D01*
X1637792Y3403041D01*
X1637792Y3327958D01*
X1638503Y3321659D01*
X1640433Y3316173D01*
X1643481Y3311296D01*
X1645615Y3309162D01*
X1647799Y3305911D01*
X1648561Y3302000D01*
X1647799Y3298088D01*
X1645615Y3294837D01*
X1643481Y3292703D01*
X1640433Y3287826D01*
X1638503Y3282340D01*
X1637792Y3276041D01*
X1637792Y3200958D01*
X1638503Y3194659D01*
X1640433Y3189173D01*
X1643481Y3184296D01*
X1645615Y3182162D01*
X1647799Y3178911D01*
X1648561Y3175000D01*
X1647799Y3171088D01*
X1645615Y3167837D01*
X1643481Y3165703D01*
X1640433Y3160826D01*
X1638503Y3155340D01*
X1637792Y3149041D01*
X1637792Y3073958D01*
X1638503Y3067659D01*
X1640433Y3062173D01*
X1643481Y3057296D01*
X1647596Y3053181D01*
X1652473Y3050133D01*
X1657959Y3048203D01*
X1664258Y3047492D01*
X1815541Y3047492D01*
X1821840Y3048203D01*
X1827326Y3050133D01*
X1832203Y3053181D01*
X1836318Y3057296D01*
X1839366Y3062173D01*
X1841296Y3067659D01*
X1842007Y3073958D01*
X1842007Y3149041D01*
X1841296Y3155340D01*
X1839366Y3160826D01*
X1836318Y3165703D01*
X1834184Y3167837D01*
X1832000Y3171088D01*
X1831238Y3175000D01*
X1832000Y3178911D01*
X1834184Y3182162D01*
X1836318Y3184296D01*
X1839366Y3189173D01*
X1841296Y3194659D01*
X1842007Y3200958D01*
X1842007Y3276041D01*
X1841296Y3282340D01*
X1839366Y3287826D01*
X1836318Y3292703D01*
X1834184Y3294837D01*
X1832000Y3298088D01*
X1831238Y3302000D01*
X1832000Y3305911D01*
X1834184Y3309162D01*
X1836318Y3311296D01*
X1839366Y3316173D01*
X1840839Y3320287D01*
X1842973Y3323844D01*
X1846325Y3326231D01*
X1850389Y3327095D01*
X1969160Y3327095D01*
X1973072Y3326333D01*
X1976374Y3324098D01*
X1978558Y3320796D01*
X1979320Y3316935D01*
X1979320Y3259378D01*
X1980031Y3253028D01*
X1981962Y3247593D01*
X1985060Y3242665D01*
X1989124Y3238601D01*
X1994052Y3235502D01*
X1999488Y3233623D01*
X2005838Y3232912D01*
X2085339Y3232912D01*
X2091639Y3233623D01*
X2097125Y3235502D01*
X2102002Y3238601D01*
X2106117Y3242665D01*
X2109165Y3247593D01*
X2111298Y3253638D01*
X2113432Y3257194D01*
X2116836Y3259632D01*
X2120900Y3260445D01*
X2124964Y3259632D01*
X2128367Y3257194D01*
X2130501Y3253638D01*
X2132634Y3247593D01*
X2135682Y3242665D01*
X2139797Y3238601D01*
X2144674Y3235502D01*
X2150160Y3233623D01*
X2156460Y3232912D01*
X2235962Y3232912D01*
X2242312Y3233623D01*
X2247747Y3235502D01*
X2252675Y3238601D01*
X2256739Y3242665D01*
X2259838Y3247593D01*
X2261768Y3253028D01*
X2262987Y3258108D01*
X2265222Y3261004D01*
X2268372Y3262934D01*
X2272030Y3263595D01*
X2692400Y3263595D01*
X2707030Y3262325D01*
X2720543Y3258972D01*
X2733294Y3253536D01*
X2743809Y3247136D01*
X2754477Y3238195D01*
X2764536Y3226409D01*
X2771648Y3214471D01*
X2776880Y3201619D01*
X2779979Y3188055D01*
X2780995Y3175000D01*
X2780995Y2972104D01*
X2781858Y2957982D01*
X2784348Y2944368D01*
X2788462Y2931160D01*
X2794152Y2918561D01*
X2801315Y2906725D01*
X2809849Y2895803D01*
X2819603Y2886049D01*
X2830525Y2877515D01*
X2842361Y2870352D01*
X2854960Y2864662D01*
X2868168Y2860548D01*
X2881782Y2858058D01*
X2895904Y2857195D01*
X2908300Y2857195D01*
X2912262Y2856382D01*
X2915564Y2854147D01*
X2917748Y2850794D01*
X2918460Y2846882D01*
X2917647Y2842971D01*
X2915310Y2839669D01*
X2911957Y2837535D01*
X2908147Y2836062D01*
X2884576Y2825038D01*
X2861919Y2812338D01*
X2840228Y2797962D01*
X2819654Y2782112D01*
X2800299Y2764739D01*
X2782265Y2746044D01*
X2765602Y2726029D01*
X2750515Y2704896D01*
X2736951Y2682697D01*
X2725064Y2659583D01*
X2714904Y2635656D01*
X2706522Y2611069D01*
X2699918Y2585923D01*
X2695194Y2560370D01*
X2692349Y2534513D01*
X2691434Y2508504D01*
X2692349Y2482545D01*
X2695194Y2456688D01*
X2699918Y2431135D01*
X2706522Y2405989D01*
X2714904Y2381402D01*
X2725064Y2357475D01*
X2736951Y2334361D01*
X2750515Y2312162D01*
X2765602Y2291029D01*
X2782265Y2271014D01*
X2800299Y2252319D01*
X2819654Y2234946D01*
X2840228Y2219096D01*
X2861919Y2204720D01*
X2884576Y2192020D01*
X2908147Y2180996D01*
X2927553Y2173528D01*
X2930956Y2171395D01*
X2933242Y2168144D01*
X2934055Y2164232D01*
X2933344Y2160270D01*
X2931160Y2156917D01*
X2927858Y2154682D01*
X2923895Y2153920D01*
X2900578Y2153920D01*
X2894228Y2153208D01*
X2888792Y2151278D01*
X2883865Y2148179D01*
X2879801Y2144115D01*
X2876702Y2139188D01*
X2874772Y2133752D01*
X2874213Y2128570D01*
X2872994Y2124862D01*
X2870504Y2121814D01*
X2866999Y2119985D01*
X2854655Y2116328D01*
X2833217Y2107946D01*
X2812542Y2097836D01*
X2792780Y2086051D01*
X2774086Y2072690D01*
X2756509Y2057857D01*
X2740253Y2041550D01*
X2725369Y2024024D01*
X2712008Y2005279D01*
X2700223Y1985518D01*
X2690164Y1964893D01*
X2681782Y1943455D01*
X2675229Y1921408D01*
X2670505Y1898904D01*
X2667660Y1876043D01*
X2666695Y1852879D01*
X2666695Y1338122D01*
X2665780Y1333957D01*
X2663240Y1330502D01*
X2659532Y1328420D01*
X2655265Y1328064D01*
X2651252Y1329436D01*
X2648153Y1332382D01*
X2644140Y1338275D01*
X2634996Y1348384D01*
X2624582Y1357172D01*
X2613050Y1364538D01*
X2600706Y1370279D01*
X2598267Y1371041D01*
X2594559Y1373124D01*
X2592019Y1376527D01*
X2591104Y1380744D01*
X2591104Y3125876D01*
X2591816Y3129584D01*
X2593797Y3132734D01*
X2600756Y3140303D01*
X2606243Y3148736D01*
X2610256Y3157931D01*
X2612745Y3167684D01*
X2613558Y3177692D01*
X2612745Y3187700D01*
X2610256Y3197453D01*
X2606243Y3206648D01*
X2600756Y3215081D01*
X2593949Y3222447D01*
X2585974Y3228644D01*
X2577134Y3233420D01*
X2567635Y3236671D01*
X2557729Y3238347D01*
X2547670Y3238347D01*
X2537764Y3236671D01*
X2528265Y3233420D01*
X2519426Y3228644D01*
X2511450Y3222447D01*
X2504643Y3215081D01*
X2499156Y3206648D01*
X2495143Y3197453D01*
X2492654Y3187700D01*
X2491841Y3177692D01*
X2492654Y3167684D01*
X2495143Y3157931D01*
X2499156Y3148736D01*
X2504643Y3140303D01*
X2511602Y3132734D01*
X2513584Y3129584D01*
X2514295Y3125876D01*
X2514295Y1369923D01*
X2513787Y1366774D01*
X2512364Y1363980D01*
X2510129Y1361694D01*
X2498090Y1352956D01*
X2488285Y1343456D01*
X2479852Y1332788D01*
X2472893Y1321054D01*
X2467559Y1308506D01*
X2463952Y1295349D01*
X2462123Y1281836D01*
X2462123Y1268171D01*
X2463952Y1254658D01*
X2467559Y1241501D01*
X2472893Y1228953D01*
X2479852Y1217218D01*
X2488285Y1206500D01*
X2498090Y1197051D01*
X2509062Y1188974D01*
X2521051Y1182420D01*
X2533751Y1177493D01*
X2547010Y1174343D01*
X2560574Y1172972D01*
X2574239Y1173429D01*
X2587650Y1175715D01*
X2600706Y1179728D01*
X2613050Y1185468D01*
X2624582Y1192834D01*
X2634996Y1201623D01*
X2644140Y1211732D01*
X2648153Y1217625D01*
X2651252Y1220520D01*
X2655265Y1221943D01*
X2659532Y1221587D01*
X2663240Y1219454D01*
X2665780Y1216050D01*
X2666695Y1211884D01*
X2666695Y722325D01*
X2665780Y718108D01*
X2663240Y714654D01*
X2659430Y712571D01*
X2655163Y712216D01*
X2650185Y714298D01*
X2644749Y716178D01*
X2638399Y716889D01*
X1889556Y716889D01*
X1883257Y716178D01*
X1877771Y714298D01*
X1872894Y711200D01*
X1868779Y707136D01*
X1865680Y702208D01*
X1863801Y696772D01*
X1863089Y690422D01*
X1863089Y331571D01*
X1863801Y325221D01*
X1865680Y319786D01*
X1868728Y314909D01*
X1873961Y309829D01*
X1876196Y306527D01*
X1877009Y302666D01*
X1876247Y298754D01*
X1874062Y295402D01*
X1870760Y293166D01*
X1866849Y292404D01*
X1841754Y292404D01*
X1822704Y291490D01*
X1804111Y288696D01*
X1785874Y284124D01*
X1768144Y277825D01*
X1751126Y269748D01*
X1734972Y260096D01*
X1719884Y248869D01*
X1705762Y236067D01*
X1686864Y217220D01*
X1674977Y206908D01*
X1661820Y198221D01*
X1647698Y191363D01*
X1632762Y186385D01*
X1617319Y183388D01*
X1602282Y182422D01*
X1431696Y182422D01*
X1427683Y183235D01*
X1424330Y185521D01*
X1422196Y188976D01*
X1421536Y192989D01*
X1422501Y196900D01*
X1424889Y200152D01*
X1426260Y201371D01*
X1433677Y210362D01*
X1439621Y220319D01*
X1443939Y231089D01*
X1446580Y242417D01*
X1447495Y254000D01*
X1446580Y265582D01*
X1443939Y276910D01*
X1439621Y287680D01*
X1435354Y294843D01*
X1433982Y298856D01*
X1434388Y303072D01*
X1436471Y306781D01*
X1439926Y309270D01*
X1444091Y310184D01*
X1488744Y310184D01*
X1495094Y310896D01*
X1500530Y312826D01*
X1505458Y315874D01*
X1509522Y319989D01*
X1512620Y324866D01*
X1514551Y330352D01*
X1515262Y336651D01*
X1515262Y685495D01*
X1514551Y691845D01*
X1512620Y697280D01*
X1509522Y702208D01*
X1505458Y706272D01*
X1500530Y709371D01*
X1495094Y711301D01*
X1488744Y712012D01*
X749909Y712012D01*
X743610Y711301D01*
X738124Y709371D01*
X733247Y706272D01*
X729132Y702208D01*
X726033Y697280D01*
X724154Y691845D01*
X723442Y685495D01*
X723442Y336651D01*
X724154Y330352D01*
X726033Y324866D01*
X729132Y319989D01*
X733247Y315874D01*
X738124Y312826D01*
X743610Y310896D01*
X749909Y310184D01*
X828548Y310184D01*
X832459Y309422D01*
X835761Y307187D01*
X837946Y303885D01*
X838708Y300024D01*
X837946Y296113D01*
X835761Y292862D01*
X833119Y290220D01*
X827481Y282194D01*
X823366Y273253D01*
X820826Y263804D01*
X819962Y254000D01*
X820826Y244195D01*
X823366Y234746D01*
X827481Y225806D01*
X833119Y217779D01*
X840079Y210820D01*
X848106Y205181D01*
X857046Y201066D01*
X866495Y198526D01*
X876300Y197662D01*
X886104Y198526D01*
X895553Y201066D01*
X904494Y205181D01*
X912520Y210820D01*
X914298Y212598D01*
X917600Y214833D01*
X921461Y215595D01*
X940765Y215595D01*
X944829Y214731D01*
X948182Y212344D01*
X952804Y204419D01*
X954227Y200863D01*
X954227Y197104D01*
X952804Y193598D01*
X950721Y190195D01*
X948791Y184759D01*
X948080Y178409D01*
X948080Y167843D01*
X990142Y167843D01*
X990142Y182930D01*
X990904Y186791D01*
X993089Y190093D01*
X996391Y192328D01*
X1000302Y193090D01*
X1037691Y193090D01*
X1041552Y192328D01*
X1044854Y190093D01*
X1047038Y186791D01*
X1047851Y182930D01*
X1047851Y167843D01*
X1089914Y167843D01*
X1089914Y178409D01*
X1089202Y184759D01*
X1087272Y190195D01*
X1085138Y193598D01*
X1083767Y197104D01*
X1083767Y200863D01*
X1085138Y204419D01*
X1087272Y207771D01*
X1089202Y213258D01*
X1089914Y219557D01*
X1089914Y288442D01*
X1089202Y294741D01*
X1088491Y296672D01*
X1087932Y300482D01*
X1088847Y304241D01*
X1091082Y307390D01*
X1094333Y309473D01*
X1098092Y310184D01*
X1143914Y310184D01*
X1147673Y309473D01*
X1150924Y307390D01*
X1153160Y304241D01*
X1154023Y300482D01*
X1153464Y296672D01*
X1152804Y294741D01*
X1152093Y288442D01*
X1152093Y219557D01*
X1152804Y213258D01*
X1154734Y207771D01*
X1156868Y204419D01*
X1158240Y200863D01*
X1158240Y197104D01*
X1156868Y193598D01*
X1154734Y190246D01*
X1152804Y184759D01*
X1152093Y178460D01*
X1152093Y109575D01*
X1152804Y103276D01*
X1154734Y97790D01*
X1157782Y92913D01*
X1161897Y88798D01*
X1166774Y85699D01*
X1172260Y83820D01*
X1178560Y83108D01*
X1267460Y83108D01*
X1273759Y83820D01*
X1279245Y85699D01*
X1284122Y88798D01*
X1288237Y92913D01*
X1291285Y97790D01*
X1293774Y102362D01*
X1297178Y104749D01*
X1301242Y105613D01*
X1602028Y105613D01*
X1621586Y106578D01*
X1640738Y109423D01*
X1659483Y114096D01*
X1677720Y120599D01*
X1695196Y128879D01*
X1711807Y138836D01*
X1727301Y150368D01*
X1741830Y163525D01*
X1760728Y182372D01*
X1772107Y192227D01*
X1784654Y200507D01*
X1798167Y207060D01*
X1812391Y211836D01*
X1827174Y214680D01*
X1841500Y215595D01*
X2084425Y215595D01*
X2088489Y214731D01*
X2091842Y212344D01*
X2093975Y208788D01*
X2094687Y206756D01*
X2096820Y203403D01*
X2098192Y199898D01*
X2098192Y196088D01*
X2096820Y192582D01*
X2094687Y189179D01*
X2092807Y183743D01*
X2092096Y177393D01*
X2092096Y166827D01*
X2134158Y166827D01*
X2134158Y181914D01*
X2134920Y185826D01*
X2137105Y189128D01*
X2140407Y191312D01*
X2144318Y192074D01*
X2181656Y192074D01*
X2185568Y191312D01*
X2188870Y189128D01*
X2191054Y185826D01*
X2191816Y181914D01*
X2191816Y166827D01*
X2233879Y166827D01*
X2233879Y177393D01*
X2233168Y183743D01*
X2231288Y189179D01*
X2229154Y192582D01*
X2227783Y196088D01*
X2227783Y199898D01*
X2229154Y203403D01*
X2231288Y206756D01*
X2233168Y212242D01*
X2233879Y218541D01*
X2233879Y287426D01*
X2233168Y293776D01*
X2233574Y297992D01*
X2235708Y301701D01*
X2239111Y304190D01*
X2243277Y305104D01*
X2286711Y305104D01*
X2290876Y304190D01*
X2294280Y301701D01*
X2296414Y297992D01*
X2296820Y293776D01*
X2296109Y287426D01*
X2296109Y218541D01*
X2296820Y212242D01*
X2298700Y206756D01*
X2300833Y203403D01*
X2302205Y199898D01*
X2302205Y196088D01*
X2300833Y192582D01*
X2298700Y189230D01*
X2296820Y183743D01*
X2296109Y177444D01*
X2296109Y108559D01*
X2296820Y102260D01*
X2298700Y96774D01*
X2301798Y91897D01*
X2305913Y87782D01*
X2310790Y84734D01*
X2316276Y82804D01*
X2322576Y82092D01*
X2411425Y82092D01*
X2417775Y82804D01*
X2423210Y84734D01*
X2428138Y87782D01*
X2432202Y91897D01*
X2435301Y96774D01*
X2437790Y101346D01*
X2441143Y103733D01*
X2445207Y104597D01*
X2619197Y104597D01*
X2634437Y105511D01*
X2649169Y108204D01*
X2663444Y112674D01*
X2677109Y118821D01*
X2689910Y126542D01*
X2701696Y135788D01*
X2712313Y146405D01*
X2721559Y158191D01*
X2729280Y170992D01*
X2735427Y184658D01*
X2739898Y198932D01*
X2742590Y213664D01*
X2743504Y228904D01*
X2743504Y1853082D01*
X2744520Y1873351D01*
X2747467Y1892858D01*
X2752344Y1912061D01*
X2759049Y1930654D01*
X2767533Y1948484D01*
X2777744Y1965452D01*
X2789580Y1981301D01*
X2802890Y1995881D01*
X2817571Y2009139D01*
X2833471Y2020874D01*
X2850489Y2030984D01*
X2860700Y2035860D01*
X2864916Y2036825D01*
X2869133Y2035962D01*
X2872638Y2033422D01*
X2874772Y2029663D01*
X2875127Y2025345D01*
X2874060Y2017318D01*
X2874060Y2006854D01*
X2916123Y2006854D01*
X2916123Y2021941D01*
X2916885Y2025802D01*
X2919120Y2029104D01*
X2922422Y2031288D01*
X2926283Y2032101D01*
X2963672Y2032101D01*
X2967583Y2031288D01*
X2970834Y2029104D01*
X2973070Y2025802D01*
X2973832Y2021941D01*
X2973832Y2006854D01*
X3015894Y2006854D01*
X3015894Y2017420D01*
X3015183Y2023719D01*
X3013252Y2029206D01*
X3011119Y2032558D01*
X3009747Y2036114D01*
X3009747Y2039874D01*
X3011119Y2043379D01*
X3013252Y2046782D01*
X3015183Y2052218D01*
X3015894Y2058568D01*
X3015894Y2127402D01*
X3015183Y2133752D01*
X3012897Y2140204D01*
X3012389Y2144166D01*
X3013405Y2148027D01*
X3015843Y2151176D01*
X3019298Y2153158D01*
X3023260Y2153666D01*
X3034334Y2152853D01*
X3060293Y2152853D01*
X3070707Y2153615D01*
X3074670Y2153107D01*
X3078175Y2151126D01*
X3080562Y2147976D01*
X3081578Y2144115D01*
X3081070Y2140153D01*
X3078784Y2133752D01*
X3078073Y2127402D01*
X3078073Y2058568D01*
X3078784Y2052218D01*
X3080715Y2046782D01*
X3082848Y2043379D01*
X3084220Y2039874D01*
X3084220Y2036114D01*
X3082848Y2032609D01*
X3080715Y2029206D01*
X3078784Y2023770D01*
X3078073Y2017420D01*
X3078073Y1948586D01*
X3078784Y1942236D01*
X3080715Y1936800D01*
X3083814Y1931873D01*
X3087878Y1927809D01*
X3092805Y1924710D01*
X3098241Y1922830D01*
X3104591Y1922119D01*
X3193440Y1922119D01*
X3199739Y1922830D01*
X3205226Y1924710D01*
X3210102Y1927809D01*
X3214217Y1931873D01*
X3219805Y1941322D01*
X3223158Y1943760D01*
X3227222Y1944573D01*
X3379673Y1944573D01*
X3395116Y1945538D01*
X3410051Y1948281D01*
X3424478Y1952752D01*
X3438296Y1959000D01*
X3451301Y1966823D01*
X3463239Y1976170D01*
X3473907Y1986889D01*
X3483254Y1998827D01*
X3491128Y2011781D01*
X3497326Y2025599D01*
X3501847Y2040077D01*
X3504590Y2054961D01*
X3505504Y2070404D01*
X3505504Y2336800D01*
X3506724Y2353970D01*
X3510026Y2370226D01*
X3515410Y2385872D01*
X3522827Y2400706D01*
X3532124Y2414422D01*
X3543096Y2426817D01*
X3555593Y2437688D01*
X3569462Y2446832D01*
X3584346Y2454097D01*
X3600043Y2459329D01*
X3616350Y2462479D01*
X3632200Y2463495D01*
X3886708Y2463495D01*
X3891076Y2462530D01*
X3894582Y2459736D01*
X3896563Y2455773D01*
X3896664Y2451303D01*
X3894836Y2447239D01*
X3891432Y2444343D01*
X3887114Y2443175D01*
X3874719Y2442667D01*
X3850741Y2439873D01*
X3827018Y2435148D01*
X3803751Y2428595D01*
X3781094Y2420213D01*
X3759149Y2410104D01*
X3738016Y2398268D01*
X3717950Y2384856D01*
X3698951Y2369870D01*
X3681222Y2353462D01*
X3664813Y2335733D01*
X3649827Y2316734D01*
X3636416Y2296668D01*
X3624579Y2275586D01*
X3614470Y2253589D01*
X3606088Y2230932D01*
X3599535Y2207666D01*
X3594862Y2183942D01*
X3592017Y2159965D01*
X3591051Y2135835D01*
X3592017Y2111654D01*
X3594862Y2087676D01*
X3599535Y2063953D01*
X3606088Y2040686D01*
X3614470Y2018030D01*
X3624579Y1996084D01*
X3636416Y1974951D01*
X3649827Y1954885D01*
X3664813Y1935886D01*
X3681222Y1918157D01*
X3698951Y1901748D01*
X3717950Y1886762D01*
X3738016Y1873351D01*
X3759149Y1861515D01*
X3781094Y1851406D01*
X3803751Y1843074D01*
X3827018Y1836470D01*
X3850741Y1831797D01*
X3874719Y1828952D01*
X3898900Y1827987D01*
X3923029Y1828952D01*
X3947007Y1831797D01*
X3970731Y1836470D01*
X3993997Y1843074D01*
X4016654Y1851406D01*
X4038650Y1861515D01*
X4059732Y1873351D01*
X4079798Y1886762D01*
X4098798Y1901748D01*
X4116527Y1918157D01*
X4132935Y1935886D01*
X4147921Y1954885D01*
X4161332Y1974951D01*
X4173169Y1996084D01*
X4183278Y2018030D01*
X4191660Y2040686D01*
X4198213Y2063953D01*
X4202938Y2087676D01*
X4205732Y2111654D01*
X4206697Y2135835D01*
X4205732Y2159965D01*
X4202938Y2183942D01*
X4198213Y2207666D01*
X4192168Y2229002D01*
X4191965Y2233422D01*
X4193590Y2237486D01*
X4196842Y2240534D01*
X4201058Y2241854D01*
X4205427Y2241296D01*
X4209135Y2238908D01*
X4239869Y2208174D01*
X4253687Y2195576D01*
X4268317Y2184298D01*
X4283913Y2174392D01*
X4300321Y2165858D01*
X4317390Y2158796D01*
X4335018Y2153208D01*
X4353052Y2149195D01*
X4371390Y2146808D01*
X4390085Y2145995D01*
X4520996Y2145995D01*
X4543450Y2146858D01*
X4565599Y2149500D01*
X4587443Y2153818D01*
X4608880Y2159863D01*
X4629759Y2167585D01*
X4649978Y2176932D01*
X4669434Y2187803D01*
X4687925Y2200198D01*
X4705451Y2213965D01*
X4721961Y2229205D01*
X4737100Y2244394D01*
X4747056Y2255520D01*
X4755489Y2267458D01*
X4762601Y2280208D01*
X4768189Y2293721D01*
X4772202Y2307793D01*
X4774692Y2322220D01*
X4775504Y2336800D01*
X4774692Y2351379D01*
X4772202Y2365806D01*
X4768189Y2379878D01*
X4762601Y2393391D01*
X4755489Y2406142D01*
X4747056Y2418080D01*
X4737100Y2429205D01*
X4726381Y2439974D01*
X4715814Y2449372D01*
X4704486Y2457399D01*
X4699508Y2460193D01*
X4696460Y2462733D01*
X4694631Y2466289D01*
X4694326Y2470251D01*
X4695545Y2474061D01*
X4698187Y2477058D01*
X4701743Y2478887D01*
X4711649Y2481580D01*
X4722266Y2486355D01*
X4731969Y2492654D01*
X4740656Y2500376D01*
X4748072Y2509367D01*
X4754016Y2519324D01*
X4758334Y2530094D01*
X4760976Y2541422D01*
X4761890Y2553004D01*
X4760976Y2564587D01*
X4758334Y2575915D01*
X4754016Y2586685D01*
X4748072Y2596642D01*
X4740656Y2605633D01*
X4731969Y2613355D01*
X4722266Y2619654D01*
X4711649Y2624429D01*
X4700422Y2627477D01*
X4688890Y2628849D01*
X4677308Y2628392D01*
X4665878Y2626156D01*
X4654956Y2622245D01*
X4644745Y2616708D01*
X4635500Y2609646D01*
X4631944Y2605938D01*
X4629150Y2603906D01*
X4625848Y2602890D01*
X4622393Y2603093D01*
X4619193Y2604363D01*
X4616196Y2606294D01*
X4610760Y2608173D01*
X4604410Y2608884D01*
X4570679Y2608884D01*
X4566666Y2609748D01*
X4563313Y2612085D01*
X4561128Y2615590D01*
X4560519Y2619654D01*
X4561586Y2623616D01*
X4564126Y2626817D01*
X4567732Y2628798D01*
X4571187Y2629814D01*
X4595469Y2639110D01*
X4618990Y2650134D01*
X4641646Y2662834D01*
X4663338Y2677210D01*
X4683912Y2693111D01*
X4703267Y2710434D01*
X4721301Y2729128D01*
X4737963Y2749143D01*
X4753102Y2770276D01*
X4766614Y2792476D01*
X4778502Y2815590D01*
X4788662Y2839516D01*
X4797094Y2864104D01*
X4803648Y2889250D01*
X4808372Y2914853D01*
X4811217Y2940659D01*
X4812182Y2966618D01*
X4811217Y2992628D01*
X4808372Y3018485D01*
X4803648Y3044037D01*
X4797094Y3069183D01*
X4788662Y3093770D01*
X4778502Y3117697D01*
X4766614Y3140811D01*
X4753102Y3163011D01*
X4737963Y3184144D01*
X4721301Y3204159D01*
X4703267Y3222853D01*
X4683912Y3240227D01*
X4663338Y3256076D01*
X4641646Y3270453D01*
X4618990Y3283153D01*
X4595469Y3294176D01*
X4571187Y3303473D01*
X4546295Y3310991D01*
X4520895Y3316630D01*
X4495190Y3320389D01*
X4469282Y3322320D01*
X4443272Y3322320D01*
X4417314Y3320389D01*
X4391609Y3316630D01*
X4366260Y3310991D01*
X4341368Y3303473D01*
X4317085Y3294176D01*
X4293514Y3283153D01*
X4270857Y3270453D01*
X4249166Y3256076D01*
X4228592Y3240227D01*
X4209237Y3222853D01*
X4191203Y3204159D01*
X4174540Y3184144D01*
X4159453Y3163011D01*
X4145889Y3140811D01*
X4134002Y3117697D01*
X4123842Y3093770D01*
X4115460Y3069183D01*
X4108856Y3044037D01*
X4104132Y3018485D01*
X4101287Y2992628D01*
X4100372Y2966669D01*
X4101287Y2940659D01*
X4104132Y2914853D01*
X4108856Y2889250D01*
X4115612Y2863596D01*
X4116120Y2859735D01*
X4115155Y2855925D01*
X4112768Y2852775D01*
X4109415Y2850743D01*
X4105503Y2850184D01*
X4101693Y2851150D01*
X4098493Y2853486D01*
X4086148Y2866948D01*
X4071416Y2880461D01*
X4055567Y2892602D01*
X4038752Y2903321D01*
X4021023Y2912567D01*
X4002582Y2920187D01*
X3983532Y2926181D01*
X3964025Y2930499D01*
X3944264Y2933141D01*
X3924096Y2934004D01*
X3049422Y2934004D01*
X3045409Y2934817D01*
X3042056Y2937205D01*
X3039872Y2940659D01*
X3039313Y2944723D01*
X3040329Y2948686D01*
X3042869Y2951937D01*
X3051962Y2959608D01*
X3061106Y2969717D01*
X3068828Y2980944D01*
X3074974Y2993136D01*
X3079445Y3006039D01*
X3082137Y3019399D01*
X3083052Y3032963D01*
X3082137Y3046577D01*
X3079445Y3059938D01*
X3074974Y3072841D01*
X3068828Y3085033D01*
X3061106Y3096260D01*
X3051962Y3106369D01*
X3041548Y3115157D01*
X3025698Y3125317D01*
X3023616Y3128568D01*
X3022904Y3132328D01*
X3022904Y3403600D01*
X3023768Y3413709D01*
X3024073Y3415436D01*
X3026460Y3424377D01*
X3027070Y3426053D01*
X3031845Y3435959D01*
X3037128Y3443528D01*
X3046171Y3452571D01*
X3053740Y3457854D01*
X3063646Y3462629D01*
X3065322Y3463239D01*
X3074263Y3465626D01*
X3075990Y3465931D01*
X3086100Y3466795D01*
X3188309Y3466795D01*
X3192475Y3465880D01*
X3195929Y3463340D01*
X3198012Y3459581D01*
X3198368Y3455365D01*
X3196945Y3451301D01*
X3193999Y3448202D01*
X3192424Y3447135D01*
X3175152Y3433216D01*
X3159150Y3417824D01*
X3144469Y3401212D01*
X3131261Y3383330D01*
X3119628Y3364433D01*
X3109671Y3344621D01*
X3101390Y3324047D01*
X3094888Y3302812D01*
X3090214Y3281121D01*
X3087370Y3259124D01*
X3086455Y3236976D01*
X3087370Y3214776D01*
X3090214Y3192780D01*
X3094888Y3171088D01*
X3101390Y3149854D01*
X3109671Y3129280D01*
X3119628Y3109468D01*
X3131261Y3090570D01*
X3144469Y3072739D01*
X3159150Y3056077D01*
X3175152Y3040735D01*
X3192424Y3026765D01*
X3210814Y3014370D01*
X3230168Y3003550D01*
X3250387Y2994406D01*
X3271316Y2986989D01*
X3292805Y2981401D01*
X3314649Y2977642D01*
X3336747Y2975762D01*
X3358946Y2975762D01*
X3381044Y2977642D01*
X3402939Y2981401D01*
X3424428Y2986989D01*
X3445357Y2994406D01*
X3465576Y3003550D01*
X3484930Y3014370D01*
X3503320Y3026765D01*
X3520592Y3040735D01*
X3536594Y3056077D01*
X3551275Y3072739D01*
X3564432Y3090570D01*
X3576065Y3109468D01*
X3586073Y3129280D01*
X3594354Y3149854D01*
X3600856Y3171088D01*
X3605529Y3192780D01*
X3608324Y3214776D01*
X3609289Y3236976D01*
X3608324Y3259124D01*
X3605529Y3281121D01*
X3600856Y3302812D01*
X3594354Y3324047D01*
X3586073Y3344621D01*
X3576065Y3364433D01*
X3564432Y3383330D01*
X3551275Y3401212D01*
X3536594Y3417824D01*
X3520592Y3433216D01*
X3503320Y3447135D01*
X3501745Y3448202D01*
X3498748Y3451301D01*
X3497326Y3455365D01*
X3497681Y3459581D01*
X3499764Y3463340D01*
X3503218Y3465880D01*
X3507435Y3466795D01*
X3987444Y3466795D01*
X4001109Y3467709D01*
X4014165Y3470300D01*
X4026814Y3474567D01*
X4038752Y3480460D01*
X4049826Y3487877D01*
X4059834Y3496665D01*
X4068622Y3506673D01*
X4076039Y3517747D01*
X4081932Y3529685D01*
X4086199Y3542334D01*
X4088790Y3555390D01*
X4089704Y3569055D01*
X4089704Y3632200D01*
X4090720Y3640683D01*
X4091432Y3643223D01*
X4094175Y3649878D01*
X4095496Y3652215D01*
X4099915Y3657904D01*
X4101795Y3659784D01*
X4107484Y3664204D01*
X4109821Y3665524D01*
X4116476Y3668268D01*
X4119016Y3668979D01*
X4127500Y3669995D01*
X4571695Y3669995D01*
X4587697Y3670909D01*
X4603140Y3673500D01*
X4618228Y3677869D01*
X4632756Y3683863D01*
X4646472Y3691483D01*
X4659274Y3700526D01*
X4671009Y3710990D01*
X4681474Y3722725D01*
X4690516Y3735527D01*
X4698136Y3749243D01*
X4704130Y3763772D01*
X4708499Y3778859D01*
X4711090Y3794302D01*
X4712004Y3810304D01*
X4712004Y5028946D01*
X4711090Y5049164D01*
X4708296Y5068925D01*
X4703724Y5088382D01*
X4697374Y5107279D01*
X4689348Y5125567D01*
X4679594Y5142992D01*
X4668316Y5159502D01*
X4655566Y5174843D01*
X4641443Y5188966D01*
X4629962Y5198516D01*
X4627270Y5201970D01*
X4626305Y5206288D01*
X4627270Y5210606D01*
X4629962Y5214112D01*
X4633874Y5216144D01*
X4638294Y5216296D01*
X4644034Y5215178D01*
X4660087Y5210098D01*
X4675428Y5203139D01*
X4689754Y5194350D01*
X4702962Y5183936D01*
X4714849Y5171948D01*
X4725162Y5158689D01*
X4733798Y5144211D01*
X4740656Y5128869D01*
X4745583Y5112766D01*
X4748530Y5096205D01*
X4749495Y5080000D01*
X4749495Y3632200D01*
X4748733Y3628288D01*
X4748072Y3626713D01*
X4745837Y3623462D01*
X4742586Y3621227D01*
X4741011Y3620566D01*
X4737100Y3619804D01*
X4413605Y3619804D01*
X4393285Y3618941D01*
X4373321Y3616299D01*
X4353661Y3611930D01*
X4334459Y3605885D01*
X4315866Y3598164D01*
X4297984Y3588867D01*
X4281017Y3578047D01*
X4265015Y3565804D01*
X4250182Y3552190D01*
X4236567Y3537356D01*
X4224324Y3521354D01*
X4213504Y3504387D01*
X4208221Y3494278D01*
X4205478Y3490925D01*
X4201566Y3489045D01*
X4190746Y3486505D01*
X4178046Y3481578D01*
X4166057Y3475024D01*
X4155084Y3466947D01*
X4145279Y3457448D01*
X4136847Y3446779D01*
X4129887Y3435045D01*
X4124553Y3422446D01*
X4120946Y3409340D01*
X4119118Y3395776D01*
X4119118Y3382162D01*
X4120946Y3368649D01*
X4124553Y3355492D01*
X4129887Y3342944D01*
X4136847Y3331210D01*
X4145279Y3320491D01*
X4155084Y3311042D01*
X4166057Y3302914D01*
X4178046Y3296361D01*
X4190746Y3291484D01*
X4204004Y3288334D01*
X4217568Y3286963D01*
X4231233Y3287420D01*
X4244644Y3289655D01*
X4257700Y3293719D01*
X4270044Y3299460D01*
X4281576Y3306775D01*
X4291990Y3315614D01*
X4301134Y3325723D01*
X4308856Y3336950D01*
X4315002Y3349142D01*
X4319473Y3361994D01*
X4322165Y3375355D01*
X4323080Y3388969D01*
X4322165Y3402584D01*
X4319473Y3415944D01*
X4315002Y3428847D01*
X4308856Y3440988D01*
X4301134Y3452266D01*
X4291990Y3462375D01*
X4289704Y3464306D01*
X4287316Y3467201D01*
X4286148Y3470757D01*
X4286402Y3474516D01*
X4287977Y3477920D01*
X4293362Y3485438D01*
X4304944Y3498291D01*
X4317847Y3509721D01*
X4331970Y3519678D01*
X4347108Y3527958D01*
X4363059Y3534511D01*
X4379671Y3539236D01*
X4396740Y3542080D01*
X4413402Y3542995D01*
X4736744Y3542995D01*
X4749800Y3543909D01*
X4762246Y3546652D01*
X4774133Y3551072D01*
X4785309Y3557168D01*
X4795520Y3564788D01*
X4804511Y3573779D01*
X4812131Y3583990D01*
X4818227Y3595166D01*
X4822647Y3607054D01*
X4825390Y3619500D01*
X4826304Y3632555D01*
X4826304Y5079746D01*
X4825390Y5099964D01*
X4822596Y5119725D01*
X4818024Y5139182D01*
X4811674Y5158079D01*
X4803648Y5176367D01*
X4793894Y5193792D01*
X4782616Y5210302D01*
X4769866Y5225643D01*
X4755743Y5239766D01*
X4740402Y5252516D01*
X4723892Y5263794D01*
X4706467Y5273548D01*
X4688179Y5281574D01*
X4669282Y5287924D01*
X4649825Y5292496D01*
X4630064Y5295290D01*
X4609846Y5296204D01*
X2907842Y5296204D01*
X2903677Y5297119D01*
X2900222Y5299659D01*
X2898140Y5303367D01*
X2897784Y5307634D01*
X2899156Y5311648D01*
X2902102Y5314746D01*
X2907334Y5318302D01*
X2917342Y5327345D01*
X2926029Y5337657D01*
X2933293Y5349036D01*
X2938932Y5361228D01*
X2942945Y5374132D01*
X2945180Y5387390D01*
X2945638Y5400852D01*
X2944266Y5414264D01*
X2941167Y5427370D01*
X2936290Y5439968D01*
X2929839Y5451805D01*
X2928366Y5453735D01*
X2926588Y5457799D01*
X2926689Y5462270D01*
X2928721Y5466232D01*
X2932226Y5468975D01*
X2936544Y5469940D01*
X4702911Y5469940D01*
X4721352Y5468975D01*
X4738217Y5466435D01*
X4754778Y5462270D01*
X4770831Y5456428D01*
X4786274Y5449112D01*
X4800904Y5440273D01*
X4814570Y5430062D01*
X4827219Y5418582D01*
X4838649Y5405882D01*
X4848758Y5392115D01*
X4857496Y5377434D01*
X4864760Y5361990D01*
X4870450Y5345887D01*
X4874564Y5329326D01*
X4877054Y5312410D01*
X4877866Y5294985D01*
X4877866Y2358085D01*
X4876952Y2339746D01*
X4874412Y2322931D01*
X4870246Y2306421D01*
X4864455Y2290419D01*
X4857191Y2275027D01*
X4848402Y2260447D01*
X4838293Y2246782D01*
X4826863Y2234184D01*
X4814011Y2222449D01*
X4301845Y1799386D01*
X4287012Y1788363D01*
X4272280Y1779524D01*
X4256786Y1772208D01*
X4240580Y1766468D01*
X4223969Y1762302D01*
X4206951Y1759864D01*
X4189476Y1759000D01*
X3016554Y1759000D01*
X2992729Y1757730D01*
X2970834Y1754327D01*
X2952140Y1749653D01*
X2931261Y1742338D01*
X2911144Y1732991D01*
X2892044Y1721713D01*
X2889605Y1720088D01*
X2871927Y1706778D01*
X2855569Y1691741D01*
X2840786Y1675231D01*
X2827731Y1657350D01*
X2817825Y1640839D01*
X2808224Y1620875D01*
X2800604Y1600047D01*
X2799740Y1597253D01*
X2795066Y1578559D01*
X2791409Y1553768D01*
X2790444Y1532839D01*
X2790444Y231241D01*
X2789478Y212852D01*
X2786938Y195986D01*
X2782722Y179425D01*
X2776931Y163372D01*
X2769565Y147929D01*
X2760776Y133299D01*
X2750566Y119633D01*
X2739034Y106984D01*
X2726334Y95554D01*
X2712618Y85445D01*
X2697937Y76708D01*
X2682443Y69443D01*
X2666390Y63703D01*
X2649778Y59639D01*
X2632913Y57150D01*
X2615488Y56337D01*
G37*

%LPC*%
G36*
X1979320Y3520440D02*
G01*
X2019046Y3520440D01*
X2019046Y3561587D01*
X2005838Y3561587D01*
X1999488Y3560876D01*
X1994052Y3558997D01*
X1989124Y3555898D01*
X1985060Y3551834D01*
X1981962Y3546906D01*
X1980031Y3541471D01*
X1979320Y3535121D01*
G37*
G36*
X974547Y83058D02*
G01*
X990142Y83058D01*
X990142Y120142D01*
X948080Y120142D01*
X948080Y109575D01*
X948791Y103225D01*
X950721Y97790D01*
X953769Y92862D01*
X957884Y88798D01*
X962761Y85699D01*
X968248Y83769D01*
G37*
G36*
X585266Y1470507D02*
G01*
X607212Y1470507D01*
X629107Y1472387D01*
X650798Y1476095D01*
X672084Y1481632D01*
X692759Y1488948D01*
X712825Y1497990D01*
X731977Y1508709D01*
X750214Y1521002D01*
X767283Y1534820D01*
X783183Y1550060D01*
X797712Y1566519D01*
X810768Y1584198D01*
X822299Y1602943D01*
X832205Y1622552D01*
X840384Y1642922D01*
X846836Y1663954D01*
X851458Y1685442D01*
X854252Y1707235D01*
X855167Y1729181D01*
X854252Y1751177D01*
X851458Y1772970D01*
X846836Y1794459D01*
X840384Y1815439D01*
X832205Y1835861D01*
X822299Y1855470D01*
X810768Y1874215D01*
X797712Y1891842D01*
X783183Y1908352D01*
X767283Y1923592D01*
X750214Y1937359D01*
X731977Y1949704D01*
X712825Y1960422D01*
X692759Y1969465D01*
X672084Y1976780D01*
X650798Y1982317D01*
X629107Y1986025D01*
X607212Y1987905D01*
X585266Y1987905D01*
X563372Y1986025D01*
X541680Y1982317D01*
X520446Y1976780D01*
X499719Y1969465D01*
X479653Y1960422D01*
X460501Y1949704D01*
X442264Y1937359D01*
X425196Y1923592D01*
X409295Y1908352D01*
X394766Y1891842D01*
X381711Y1874215D01*
X370179Y1855470D01*
X360324Y1835861D01*
X352094Y1815439D01*
X345694Y1794459D01*
X341020Y1772970D01*
X338226Y1751177D01*
X337312Y1729181D01*
X338226Y1707235D01*
X341020Y1685442D01*
X345694Y1663954D01*
X352094Y1642922D01*
X360324Y1622552D01*
X370179Y1602943D01*
X381711Y1584198D01*
X394766Y1566519D01*
X409295Y1550060D01*
X425196Y1534820D01*
X442264Y1521002D01*
X460501Y1508709D01*
X479653Y1497990D01*
X499719Y1488948D01*
X520446Y1481632D01*
X541680Y1476095D01*
X563372Y1472387D01*
G37*
G36*
X2900578Y1922068D02*
G01*
X2916123Y1922068D01*
X2916123Y1959152D01*
X2874060Y1959152D01*
X2874060Y1948535D01*
X2874772Y1942236D01*
X2876702Y1936750D01*
X2879801Y1931873D01*
X2883865Y1927758D01*
X2888792Y1924710D01*
X2894228Y1922780D01*
G37*
G36*
X2973832Y1922068D02*
G01*
X2989427Y1922068D01*
X2995726Y1922780D01*
X3001213Y1924710D01*
X3006090Y1927758D01*
X3010204Y1931873D01*
X3013252Y1936750D01*
X3015183Y1942236D01*
X3015894Y1948535D01*
X3015894Y1959152D01*
X2973832Y1959152D01*
G37*
G36*
X1765300Y3536950D02*
G01*
X1841093Y3536950D01*
X1839366Y3541826D01*
X1836318Y3546703D01*
X1832203Y3550818D01*
X1827326Y3553866D01*
X1821840Y3555796D01*
X1815541Y3556508D01*
X1765300Y3556508D01*
G37*
G36*
X1047851Y83058D02*
G01*
X1063396Y83058D01*
X1069746Y83769D01*
X1075182Y85699D01*
X1080109Y88798D01*
X1084173Y92862D01*
X1087272Y97790D01*
X1089202Y103225D01*
X1089914Y109575D01*
X1089914Y120142D01*
X1047851Y120142D01*
G37*
G36*
X1143812Y2256282D02*
G01*
X1167384Y2257247D01*
X1190853Y2260193D01*
X1213916Y2265019D01*
X1236573Y2271776D01*
X1258570Y2280361D01*
X1279804Y2290724D01*
X1300073Y2302814D01*
X1319276Y2316530D01*
X1337310Y2331770D01*
X1354023Y2348484D01*
X1369263Y2366518D01*
X1382979Y2385720D01*
X1395069Y2405989D01*
X1405432Y2427224D01*
X1414018Y2449220D01*
X1420774Y2471826D01*
X1425600Y2494940D01*
X1428546Y2518410D01*
X1429512Y2541981D01*
X1428546Y2565552D01*
X1425600Y2589022D01*
X1420774Y2612136D01*
X1414018Y2634742D01*
X1405432Y2656738D01*
X1395069Y2677972D01*
X1382979Y2698242D01*
X1369263Y2717444D01*
X1354023Y2735478D01*
X1337310Y2752191D01*
X1319276Y2767431D01*
X1300073Y2781147D01*
X1279804Y2793238D01*
X1258570Y2803601D01*
X1236573Y2812186D01*
X1213916Y2818942D01*
X1190853Y2823768D01*
X1167384Y2826715D01*
X1143812Y2827680D01*
X1120190Y2826715D01*
X1096772Y2823768D01*
X1073658Y2818942D01*
X1051052Y2812186D01*
X1029055Y2803601D01*
X1007821Y2793238D01*
X987552Y2781147D01*
X968298Y2767431D01*
X950315Y2752191D01*
X933602Y2735478D01*
X918362Y2717444D01*
X904595Y2698242D01*
X892556Y2677972D01*
X882142Y2656738D01*
X873556Y2634742D01*
X866851Y2612136D01*
X861974Y2589022D01*
X859078Y2565552D01*
X858113Y2541981D01*
X859078Y2518410D01*
X861974Y2494940D01*
X866851Y2471826D01*
X873556Y2449220D01*
X882142Y2427224D01*
X892556Y2405989D01*
X904595Y2385720D01*
X918362Y2366518D01*
X933602Y2348484D01*
X950315Y2331770D01*
X968298Y2316530D01*
X987552Y2302814D01*
X1007821Y2290724D01*
X1029055Y2280361D01*
X1051052Y2271776D01*
X1073658Y2265019D01*
X1096772Y2260193D01*
X1120190Y2257247D01*
G37*
G36*
X2191816Y82092D02*
G01*
X2207412Y82092D01*
X2213711Y82804D01*
X2219198Y84683D01*
X2224074Y87782D01*
X2228189Y91897D01*
X2231288Y96774D01*
X2233168Y102260D01*
X2233879Y108559D01*
X2233879Y119126D01*
X2191816Y119126D01*
G37*
G36*
X1638706Y3536950D02*
G01*
X1714500Y3536950D01*
X1714500Y3556508D01*
X1664258Y3556508D01*
X1657959Y3555796D01*
X1652473Y3553866D01*
X1647596Y3550818D01*
X1643481Y3546703D01*
X1640433Y3541826D01*
G37*
G36*
X2118563Y82092D02*
G01*
X2134158Y82092D01*
X2134158Y119126D01*
X2092096Y119126D01*
X2092096Y108559D01*
X2092807Y102260D01*
X2094687Y96774D01*
X2097786Y91897D01*
X2101850Y87782D01*
X2106777Y84683D01*
X2112213Y82804D01*
G37*

%LPD*%
D12*
X3283229Y2092985D02*
G01*
X3148990Y2092985D01*
X4673854Y2547975D02*
G01*
X4559985Y2547975D01*
X740585Y3238500D02*
G01*
X998905Y3238500D01*
X444500Y3505200D02*
G01*
X444500Y3462741D01*
X444500Y3753037D02*
G01*
X444500Y3505200D01*
X-76200Y4000500D02*
G01*
X214998Y4000500D01*
X1130300Y3365500D02*
G01*
X998905Y3365500D01*
X1193800Y3200400D02*
G01*
X1193800Y3302000D01*
X-1401112Y3289300D02*
G01*
X-1104900Y3289300D01*
X114300Y3187700D02*
G01*
X262714Y3187700D01*
X19293Y3187700D02*
G01*
X114300Y3187700D01*
X876300Y254000D02*
G01*
X1018997Y254000D01*
X-1052982Y2564282D02*
G01*
X-1052982Y2599994D01*
X-805230Y2489200D02*
G01*
X-977900Y2489200D01*
X-469900Y2590800D02*
G01*
X-546100Y2590800D01*
X-467995Y2512695D02*
G01*
X-467995Y2355977D01*
X-933805Y2590800D02*
G01*
X-546100Y2590800D01*
X-694512Y3178987D02*
G01*
X-672007Y3178987D01*
X-825500Y2921482D02*
G01*
X-825500Y3048000D01*
X-768680Y9137980D02*
G01*
X-1361008Y9137980D01*
X-711200Y5499100D02*
G01*
X-711200Y9080500D01*
X-952500Y5435600D02*
G01*
X-774700Y5435600D01*
X-1282700Y4102100D02*
G01*
X-1270000Y5118100D01*
X-463600Y3073400D02*
G01*
X-368300Y3073400D01*
X-114300Y2806700D02*
G01*
X-114300Y2705100D01*
X-220979Y2493010D02*
G01*
X-220979Y2605989D01*
X-1193800Y5054600D02*
G01*
X-1193800Y4102100D01*
X-774700Y5372100D02*
G01*
X-876300Y5372100D01*
X-952500Y4184835D02*
G01*
X-952500Y4165600D01*
X-992779Y4282079D02*
G01*
X-990600Y4279900D01*
X-1028700Y4445000D02*
G01*
X-1028700Y4368800D01*
X1602282Y144018D02*
G01*
X1223010Y144018D01*
X1733097Y209097D02*
G01*
X1714500Y190500D01*
X2160534Y254000D02*
G01*
X1841500Y254000D01*
X2619502Y143002D02*
G01*
X2367000Y143002D01*
X2705100Y1409700D02*
G01*
X2705100Y228600D01*
X2705100Y1853082D02*
G01*
X2705100Y1409700D01*
X3380003Y1983003D02*
G01*
X3148990Y1983003D01*
X3467100Y2336800D02*
G01*
X3467100Y2070100D01*
X3721100Y2501900D02*
G01*
X3632200Y2501900D01*
X3987800Y2501900D02*
G01*
X3721100Y2501900D01*
X4025900Y2654300D02*
G01*
X4025900Y2540000D01*
X4191000Y2634985D02*
G01*
X4191000Y2654300D01*
X4355017Y2546995D02*
G01*
X4278990Y2546995D01*
X4638659Y2437993D02*
G01*
X4559985Y2437993D01*
X4710158Y2401841D02*
G01*
X4699000Y2413000D01*
X4699000Y2260600D02*
G01*
X4710158Y2271758D01*
X4694641Y2256241D02*
G01*
X4699000Y2260600D01*
X4389841Y2184400D02*
G01*
X4521200Y2184400D01*
X4168681Y2333718D02*
G01*
X4267200Y2235200D01*
X4114800Y2705100D02*
G01*
X4114800Y2463800D01*
X2045563Y3339236D02*
G01*
X2045563Y3302000D01*
X1981200Y3365500D02*
G01*
X2019300Y3365500D01*
X1955800Y3365500D02*
G01*
X1981200Y3365500D01*
X1739900Y3365500D02*
G01*
X1955800Y3365500D01*
X2895600Y2895600D02*
G01*
X3924300Y2895600D01*
X2819400Y3175000D02*
G01*
X2819400Y2971800D01*
X2196338Y3302000D02*
G01*
X2692400Y3302000D01*
X533400Y5384800D02*
G01*
X533400Y5397500D01*
X406400Y5321300D02*
G01*
X469900Y5321300D01*
X-838200Y5321300D02*
G01*
X406400Y5321300D01*
X-889000Y5321300D02*
G01*
X-838200Y5321300D01*
X-1130300Y4165600D02*
G01*
X-1130300Y5080000D01*
X-1130300Y3975100D02*
G01*
X-1130300Y4165600D01*
X-1308100Y3394887D02*
G01*
X-1308100Y3797300D01*
X825500Y5346700D02*
G01*
X825500Y5397500D01*
X-876300Y5270500D02*
G01*
X749300Y5270500D01*
X-1079500Y4381500D02*
G01*
X-1079500Y5067300D01*
X-1079500Y3850487D02*
G01*
X-1079500Y4381500D01*
X-787400Y5219700D02*
G01*
X1066800Y5219700D01*
X-863600Y5219700D02*
G01*
X-787400Y5219700D01*
X-1028700Y4686300D02*
G01*
X-1028700Y5054600D01*
X1422400Y5232400D02*
G01*
X1422400Y5397500D01*
X-774700Y5168900D02*
G01*
X1358900Y5168900D01*
X-850900Y5168900D02*
G01*
X-774700Y5168900D01*
X-977900Y4546600D02*
G01*
X-977900Y5041900D01*
X-977900Y4521200D02*
G01*
X-977900Y4546600D01*
X-495300Y4368800D02*
G01*
X-825500Y4368800D01*
X-292100Y4368800D02*
G01*
X-495300Y4368800D01*
X-215900Y4102100D02*
G01*
X-215900Y4292600D01*
X1739900Y5207000D02*
G01*
X1739900Y5397500D01*
X-279400Y5118100D02*
G01*
X1651000Y5118100D01*
X-838200Y5118100D02*
G01*
X-279400Y5118100D01*
X-927100Y4800600D02*
G01*
X-927100Y5029200D01*
X-927100Y4521200D02*
G01*
X-927100Y4800600D01*
X-647700Y4419600D02*
G01*
X-825500Y4419600D01*
X-522183Y4419600D02*
G01*
X-647700Y4419600D01*
X1371600Y4419600D02*
G01*
X-522183Y4419600D01*
X1460500Y4165600D02*
G01*
X1460500Y4330700D01*
X1189989Y2078989D02*
G01*
X1189989Y856995D01*
X1422400Y2171700D02*
G01*
X1282700Y2171700D01*
X1536700Y3035300D02*
G01*
X1536700Y2286000D01*
X1536700Y3314715D02*
G01*
X1536700Y3035300D01*
X2044700Y5219700D02*
G01*
X2044700Y5397500D01*
X3873500Y5156200D02*
G01*
X2108200Y5156200D01*
X4457700Y5156200D02*
G01*
X3873500Y5156200D01*
X4584700Y4610100D02*
G01*
X4584700Y5029200D01*
X4584700Y4330700D02*
G01*
X4584700Y4610100D01*
X3124200Y4267200D02*
G01*
X4521200Y4267200D01*
X2628900Y4267200D02*
G01*
X3124200Y4267200D01*
X1117600Y5372100D02*
G01*
X1117600Y5397500D01*
X-952500Y3238500D02*
G01*
X-952500Y3911600D01*
X-1663700Y3048000D02*
G01*
X-1143000Y3048000D01*
X-215900Y3771900D02*
G01*
X-215900Y4102100D01*
X-215900Y3092094D02*
G01*
X-215900Y3771900D01*
X-1701800Y2413000D02*
G01*
X-1701800Y3009900D01*
X-952169Y2336800D02*
G01*
X-1625600Y2336800D01*
X4787900Y5080000D02*
G01*
X4787900Y5054600D01*
X4546600Y5257800D02*
G01*
X4610100Y5257800D01*
X3416300Y5257800D02*
G01*
X4495800Y5257800D01*
X2882900Y5257800D02*
G01*
X3416300Y5257800D01*
X2844800Y5397500D02*
G01*
X2844800Y5295900D01*
X2425700Y5270500D02*
G01*
X2425700Y5397500D01*
X2705100Y5207000D02*
G01*
X2489200Y5207000D01*
X1460500Y4165600D02*
G01*
X1460500Y3594100D01*
X2196236Y3707536D02*
G01*
X2196236Y3492500D01*
X2196236Y3492500D02*
G01*
X2196236Y3513820D01*
X1406636Y3111507D02*
G01*
X998900Y3111507D01*
X-468010Y2398410D02*
G01*
X-468010Y2355984D01*
X-250705Y2809994D02*
G01*
X-220997Y2809994D01*
X-330200Y2730500D02*
G01*
X-330200Y2857500D01*
X-431800Y2959100D02*
G01*
X-584200Y2959100D01*
X-672000Y3046900D02*
G01*
X-672000Y3069013D01*
X-1471000Y9133499D02*
G01*
X-1471000Y9137992D01*
X2513599Y252999D02*
G01*
X2366987Y252999D01*
X1371597Y253997D02*
G01*
X1222989Y253997D01*
X4413399Y3581400D02*
G01*
X4737100Y3581400D01*
X4787900Y3632200D02*
G01*
X4787900Y5054600D01*
X2984500Y3036498D02*
G01*
X2984500Y3403600D01*
X3086100Y3505200D02*
G01*
X3797300Y3505200D01*
X3797300Y3505200D02*
G01*
X3987800Y3505200D01*
X4051300Y3568700D02*
G01*
X4051300Y3632200D01*
X4127500Y3708400D02*
G01*
X4572000Y3708400D01*
X4673600Y3810000D02*
G01*
X4673600Y3937000D01*
X4673600Y3937000D02*
G01*
X4673600Y5029200D01*
X4495800Y5207000D02*
G01*
X2705100Y5207000D01*
X4127500Y4368800D02*
G01*
X2298700Y4368800D01*
X2197100Y4267200D02*
G01*
X2197100Y3708400D01*
X2552700Y1286291D02*
G01*
X2552700Y1727200D01*
X998900Y3492507D02*
G01*
X1358907Y3492507D01*
X4495800Y5257800D02*
G01*
X4546600Y5257800D01*
X1117600Y5270500D02*
G01*
X1117600Y5397500D01*
X2552700Y3439210D02*
G01*
X2552700Y4191000D01*
X2552700Y1727200D02*
G01*
X2552700Y3177684D01*
X-1028700Y4445000D02*
G01*
X-1028700Y4686300D01*
X-952500Y3911600D02*
G01*
X-952500Y4165600D01*
X4178079Y4420387D02*
G01*
X4178079Y4490450D01*
D16*
G01*
X2425700Y5397500D03*
G01*
X2844800Y5397500D03*
G01*
X533400Y5397500D03*
G01*
X825500Y5397500D03*
G01*
X1117600Y5397500D03*
G01*
X1422400Y5397500D03*
G01*
X1739900Y5397500D03*
G01*
X2044700Y5397500D03*
G36*
X2155901Y3449299D02*
G01*
X2155901Y3535700D01*
X2236548Y3535700D01*
X2236548Y3449299D01*
G37*
G36*
X2085898Y3449299D02*
G01*
X2085898Y3535700D01*
X2005251Y3535700D01*
X2005251Y3449299D01*
G37*
D18*
G01*
X4355998Y2547975D03*
G01*
X4355998Y2437993D03*
G01*
X4559985Y2437993D03*
G01*
X4559985Y2547975D03*
G01*
X2945002Y2092985D03*
G01*
X3148990Y1983003D03*
G01*
X3148990Y2092985D03*
G01*
X2945002Y1983003D03*
G01*
X2162987Y252984D03*
G01*
X2162987Y143002D03*
G01*
X2367000Y143002D03*
G01*
X2367000Y252984D03*
G01*
X1018997Y254000D03*
G01*
X1018997Y143992D03*
G01*
X1223010Y144018D03*
G01*
X1223010Y254000D03*
D19*
G01*
X-220979Y2605989D03*
G01*
X-110997Y2605989D03*
G01*
X-110997Y2810002D03*
G01*
X-220979Y2810002D03*
D18*
G01*
X-672007Y2355977D03*
G01*
X-672007Y2245995D03*
G01*
X-467995Y2245995D03*
G01*
X-467995Y2355977D03*
D19*
G01*
X-943000Y2803982D03*
G01*
X-1053007Y2803982D03*
G01*
X-1052982Y2599994D03*
G01*
X-943000Y2599994D03*
G36*
X-512998Y3104001D02*
G01*
X-422998Y3104001D01*
X-422998Y3034002D01*
X-512998Y3034002D01*
G37*
G36*
X-513001Y3213994D02*
G01*
X-422998Y3213994D01*
X-422998Y3143994D01*
X-513001Y3143994D01*
G37*
G36*
X-716998Y3213983D02*
G01*
X-626998Y3213983D01*
X-626998Y3143984D01*
X-716998Y3143984D01*
G37*
G36*
X-716998Y3104001D02*
G01*
X-626998Y3104001D01*
X-626998Y3034002D01*
X-716998Y3034002D01*
G37*
G01*
X-1470990Y8933992D03*
G01*
X-1361008Y8933992D03*
G01*
X-1361008Y9137980D03*
G01*
X-1470990Y9137980D03*
G36*
X2155901Y3258799D02*
G01*
X2155901Y3345200D01*
X2236548Y3345200D01*
X2236548Y3258799D01*
G37*
G36*
X2085898Y3258799D02*
G01*
X2085898Y3345200D01*
X2005251Y3345200D01*
X2005251Y3258799D01*
G37*
G36*
X1663700Y3073400D02*
G01*
X1663700Y3149600D01*
X1816100Y3149600D01*
X1816100Y3073400D01*
G37*
G36*
X1663700Y3200400D02*
G01*
X1663700Y3276600D01*
X1816100Y3276600D01*
X1816100Y3200400D01*
G37*
G36*
X1663700Y3327400D02*
G01*
X1663700Y3403600D01*
X1816100Y3403600D01*
X1816100Y3327400D01*
G37*
G36*
X1663700Y3454400D02*
G01*
X1663700Y3530600D01*
X1816100Y3530600D01*
X1816100Y3454400D01*
G37*
G36*
X1075105Y3530600D02*
G01*
X1075105Y3454400D01*
X922705Y3454400D01*
X922705Y3530600D01*
G37*
G36*
X1075105Y3403600D02*
G01*
X1075105Y3327400D01*
X922705Y3327400D01*
X922705Y3403600D01*
G37*
G36*
X1075105Y3276600D02*
G01*
X1075105Y3200400D01*
X922705Y3200400D01*
X922705Y3276600D01*
G37*
G36*
X1075105Y3149600D02*
G01*
X1075105Y3073400D01*
X922705Y3073400D01*
X922705Y3149600D01*
G37*
D12*
G75*
G01*
X4178300Y4419600D02*
G02*
X4178079Y4420133I533J533D01*
G75*
G01*
X3289300Y2095500D02*
G02*
X3283229Y2092985I-6071J6071D01*
G75*
G01*
X4685995Y2553005D02*
G02*
X4673854Y2547976I-12141J12141D01*
G75*
G01*
X495300Y3340100D02*
G03*
X740585Y3238500I245285J245285D01*
G75*
G01*
X444500Y3462741D02*
G03*
X495300Y3340100I173441J1D01*
G75*
G01*
X368300Y3937000D02*
G02*
X444500Y3753038I-183962J-183963D01*
G75*
G01*
X214998Y4000500D02*
G02*
X368300Y3937000I0J-216802D01*
G75*
G01*
X1193800Y3302000D02*
G03*
X1130300Y3365500I-63500J0D01*
G75*
G01*
X-1410005Y3292983D02*
G03*
X-1401112Y3289300I8892J8893D01*
G75*
G01*
X-218999Y3088996D02*
G02*
X19294Y3187700I238293J-238293D01*
G75*
G01*
X-977900Y2489200D02*
G02*
X-1052982Y2564282I0J75082D01*
G75*
G01*
X-672008Y2355977D02*
G03*
X-805231Y2489200I-133223J0D01*
G75*
G01*
X-330200Y2730500D02*
G02*
X-469900Y2590800I-139700J0D01*
G75*
G01*
X-546100Y2590800D02*
G02*
X-467995Y2512695I0J-78105D01*
G75*
G01*
X-943000Y2599995D02*
G03*
X-933806Y2590800I9194J0D01*
G75*
G01*
X-825500Y3048000D02*
G02*
X-694512Y3178988I130988J0D01*
G75*
G01*
X-943000Y2803982D02*
G03*
X-825500Y2921483I0J117501D01*
G75*
G01*
X-711200Y9080500D02*
G03*
X-768680Y9137980I-57480J0D01*
G75*
G01*
X-774700Y5435600D02*
G03*
X-711200Y5499100I0J63500D01*
G75*
G01*
X-1270000Y5118100D02*
G02*
X-952500Y5435600I317500J0D01*
G75*
G01*
X-467995Y3069006D02*
G02*
X-463601Y3073400I4394J0D01*
G75*
G01*
X-110998Y2810002D02*
G03*
X-114300Y2806700I0J-3302D01*
G75*
G01*
X-467995Y2245995D02*
G03*
X-220980Y2493010I0J247015D01*
G75*
G01*
X-876300Y5372100D02*
G03*
X-1193800Y5054600I0J-317500D01*
G75*
G01*
X-647700Y5499100D02*
G02*
X-774700Y5372100I-127000J0D01*
G75*
G01*
X-992779Y4282079D02*
G02*
X-952500Y4184835I-97244J-97243D01*
G75*
G01*
X-1028700Y4368800D02*
G03*
X-992779Y4282079I122641J0D01*
G75*
G01*
X1714500Y190500D02*
G02*
X1602283Y144018I-112217J112217D01*
G75*
G01*
X1841500Y254000D02*
G03*
X1733098Y209098I0J-153302D01*
G75*
G01*
X2162988Y252984D02*
G03*
X2160534Y254000I-2453J-2454D01*
G75*
G01*
X2162988Y252984D02*
G03*
X2161972Y254000I-1016J0D01*
G75*
G01*
X2705100Y228600D02*
G02*
X2619502Y143002I-85598J0D01*
G75*
G01*
X2945003Y2092985D02*
G03*
X2705100Y1853082I0J-239903D01*
G75*
G01*
X3467100Y2070100D02*
G02*
X3380003Y1983003I-87097J0D01*
G75*
G01*
X3632200Y2501900D02*
G03*
X3467100Y2336800I0J-165100D01*
G75*
G01*
X4025900Y2540000D02*
G02*
X3987800Y2501900I-38100J0D01*
G75*
G01*
X4278991Y2546995D02*
G02*
X4191000Y2634986I0J87991D01*
G75*
G01*
X4355998Y2547976D02*
G02*
X4355018Y2546995I-980J0D01*
G75*
G01*
X4699000Y2413000D02*
G03*
X4638660Y2437994I-60340J-60340D01*
G75*
G01*
X4737100Y2336800D02*
G03*
X4710158Y2401842I-91981J0D01*
G75*
G01*
X4710158Y2271758D02*
G03*
X4737100Y2336800I-65039J65042D01*
G75*
G01*
X4521200Y2184400D02*
G03*
X4694641Y2256241I0J245285D01*
G75*
G01*
X4267200Y2235200D02*
G03*
X4389841Y2184400I122642J122641D01*
G75*
G01*
X4114800Y2463800D02*
G03*
X4168681Y2333719I183962J0D01*
G75*
G01*
X3924300Y2895600D02*
G02*
X4114800Y2705100I0J-190500D01*
G75*
G01*
X2019300Y3365500D02*
G02*
X2045564Y3339236I0J-26264D01*
G75*
G01*
X2819400Y2971800D02*
G03*
X2895600Y2895600I76200J0D01*
G75*
G01*
X2692400Y3302000D02*
G02*
X2819400Y3175000I0J-127000D01*
G75*
G01*
X469900Y5321300D02*
G03*
X533400Y5384800I0J63500D01*
G75*
G01*
X-1130300Y5080000D02*
G02*
X-889000Y5321300I241300J0D01*
G75*
G01*
X-1206500Y3898900D02*
G03*
X-1130300Y3975100I0J76200D01*
G75*
G01*
X-1308100Y3797300D02*
G02*
X-1206500Y3898900I101600J0D01*
G75*
G01*
X-1410005Y3292983D02*
G03*
X-1308100Y3394888I0J101905D01*
G75*
G01*
X749300Y5270500D02*
G03*
X825500Y5346700I0J76200D01*
G75*
G01*
X-1164996Y3764991D02*
G03*
X-1079500Y3850488I0J85497D01*
G75*
G01*
X-876300Y5270500D02*
G03*
X-1079500Y5067300I0J-203200D01*
G75*
G01*
X1066800Y5219700D02*
G03*
X1117600Y5270500I0J50800D01*
G75*
G01*
X-1028700Y5054600D02*
G02*
X-863600Y5219700I165100J0D01*
G75*
G01*
X1358900Y5168900D02*
G03*
X1422400Y5232400I0J63500D01*
G75*
G01*
X-977900Y5041900D02*
G02*
X-850900Y5168900I127000J0D01*
G75*
G01*
X-825500Y4368800D02*
G02*
X-977900Y4521200I0J152400D01*
G75*
G01*
X-215900Y4292600D02*
G03*
X-292100Y4368800I-76200J0D01*
G75*
G01*
X1651000Y5118100D02*
G03*
X1739900Y5207000I0J88900D01*
G75*
G01*
X-927100Y5029200D02*
G02*
X-838200Y5118100I88900J0D01*
G75*
G01*
X-825500Y4419600D02*
G02*
X-927100Y4521200I0J101600D01*
G75*
G01*
X1460500Y4330700D02*
G03*
X1371600Y4419600I-88900J0D01*
G75*
G01*
X1282700Y2171700D02*
G03*
X1189990Y2078990I0J-92710D01*
G75*
G01*
X1536700Y2286000D02*
G02*
X1422400Y2171700I-114300J0D01*
G75*
G01*
X1358908Y3492508D02*
G02*
X1536700Y3314715I0J-177793D01*
G75*
G01*
X2108200Y5156200D02*
G02*
X2044700Y5219700I0J63500D01*
G75*
G01*
X4584700Y5029200D02*
G03*
X4457700Y5156200I-127000J0D01*
G75*
G01*
X4521200Y4267200D02*
G03*
X4584700Y4330700I0J63500D01*
G75*
G01*
X2552700Y4191000D02*
G02*
X2628900Y4267200I76200J0D01*
G75*
G01*
X-1143000Y3048000D02*
G03*
X-952500Y3238500I0J190500D01*
G75*
G01*
X-218999Y3088996D02*
G03*
X-215900Y3092094I0J3098D01*
G75*
G01*
X-1701800Y3009900D02*
G02*
X-1663700Y3048000I38100J0D01*
G75*
G01*
X-1625600Y2336800D02*
G02*
X-1701800Y2413000I0J76200D01*
G75*
G01*
X-946988Y2341982D02*
G02*
X-952170Y2336800I-5182J0D01*
G75*
G01*
X4610100Y5257800D02*
G02*
X4787900Y5080000I0J-177800D01*
G75*
G01*
X2844800Y5295900D02*
G03*
X2882900Y5257800I38100J0D01*
G75*
G01*
X2489200Y5207000D02*
G02*
X2425700Y5270500I0J63500D01*
G75*
G01*
X-330200Y2730500D02*
G02*
X-250706Y2809994I79494J0D01*
G75*
G01*
X-330200Y2857500D02*
G03*
X-431800Y2959100I-101600J0D01*
G75*
G01*
X-584200Y2959100D02*
G02*
X-672000Y3046900I0J87800D01*
G75*
G01*
X-1562100Y9042400D02*
G03*
X-1471000Y9133500I0J91100D01*
G75*
G01*
X2514600Y254000D02*
G02*
X2513599Y252999I-1001J0D01*
G75*
G01*
X1371600Y254000D02*
G02*
X1371597Y253997I-3J0D01*
G75*
G01*
X2197100Y3708400D02*
G03*
X2196236Y3707536I0J-864D01*
G75*
G01*
X4220992Y3388992D02*
G02*
X4413400Y3581400I192408J0D01*
G75*
G01*
X4737100Y3581400D02*
G03*
X4787900Y3632200I0J50800D01*
G75*
G01*
X2980995Y3032994D02*
G03*
X2984500Y3036499I0J3505D01*
G75*
G01*
X2984500Y3403600D02*
G02*
X3086100Y3505200I101600J0D01*
G75*
G01*
X3987800Y3505200D02*
G03*
X4051300Y3568700I0J63500D01*
G75*
G01*
X4051300Y3632200D02*
G02*
X4127500Y3708400I76200J0D01*
G75*
G01*
X4572000Y3708400D02*
G03*
X4673600Y3810000I0J101600D01*
G75*
G01*
X4673600Y5029200D02*
G03*
X4495800Y5207000I-177800J0D01*
G75*
G01*
X4178300Y4419600D02*
G02*
X4127500Y4368800I-50800J0D01*
G75*
G01*
X2298700Y4368800D02*
G03*
X2197100Y4267200I0J-101600D01*
G75*
G01*
X2563995Y1274996D02*
G02*
X2552700Y1286292I0J11296D01*
G75*
G01*
X1460500Y3594100D02*
G02*
X1358908Y3492508I-101592J0D01*
D20*
G01*
X1189989Y856995D03*
G01*
X2564002Y1275003D03*
G01*
X2980994Y3032988D03*
G01*
X4220997Y3388995D03*
G01*
X-946988Y2341981D03*
G01*
X-218998Y3088995D03*
G01*
X-1410004Y3292982D03*
G01*
X-1164996Y3764991D03*
G36*
X4027998Y4752982D02*
G01*
X4327997Y4752982D01*
X4327997Y4452983D01*
X4027998Y4452983D01*
G37*
G36*
X-780000Y5013990D02*
G01*
X-480001Y5013990D01*
X-480001Y4613991D01*
X-780000Y4613991D01*
G37*
D23*
G01*
X-1557985Y8641969D03*
D13*
G01*
X1406626Y3111500D03*
G01*
X3289300Y2095500D03*
G01*
X4685995Y2553004D03*
G01*
X-351002Y2919120D03*
G01*
X-1562100Y9042400D03*
G01*
X2514600Y254000D03*
G01*
X1371600Y254000D03*
G01*
X2197100Y3708400D03*
D14*
G01*
X-838200Y4953000D03*
G01*
X-838200Y4826000D03*
G01*
X-838200Y4699000D03*
G01*
X4216400Y2438400D03*
G01*
X4356100Y2286000D03*
G01*
X4191000Y2654300D03*
G01*
X4025900Y2654300D03*
G01*
X4356100Y2095500D03*
G01*
X4229100Y1993900D03*
G01*
X-1193800Y4102100D03*
D15*
G01*
X-647700Y5499100D03*
D14*
G01*
X-838200Y4229100D03*
G01*
X-711200Y4229100D03*
G01*
X-584200Y4229100D03*
G01*
X-63500Y4229100D03*
G01*
X63500Y4229100D03*
G01*
X190500Y4229100D03*
D15*
G01*
X-101600Y3251200D03*
G01*
X-101600Y3378200D03*
G01*
X-317500Y3251200D03*
G01*
X-114300Y2705100D03*
D14*
G01*
X-1282700Y4102100D03*
D15*
G01*
X-368300Y3073400D03*
G01*
X-838200Y5511800D03*
G01*
X-838200Y5613400D03*
G01*
X-838200Y5715000D03*
G01*
X876300Y254000D03*
G01*
X-1104900Y3289300D03*
D14*
G01*
X-76200Y4000500D03*
D15*
G01*
X1193800Y3200400D03*
G01*
X262712Y3187700D03*
D14*
G01*
X2413000Y3035300D03*
G01*
X2679700Y3035300D03*
G01*
X2679700Y3454400D03*
G01*
X3746500Y2794000D03*
G01*
X3746500Y3022600D03*
G01*
X2552700Y3177692D03*
G01*
X2552700Y3439210D03*
M02*
