M48
METRIC,LZ,000.000
;FILE_FORMAT=3:3
;TYPE=PLATED
;Layer: Drill PTH
;EasyEDA v6.4.25, 2021-10-22T16:38:50--7:00
;a8c8939794724f679426a10ff434762e,1286d1f709c949e68cfeef46812bcf49,10
;Gerber Generator version 0.2
;Holesize 1 = 0.400 mm
T01C0.400
;Holesize 2 = 0.501 mm
T02C0.501
;Holesize 3 = 0.915 mm
T03C0.915
;Holesize 4 = 1.501 mm
T04C1.501
;Holesize 5 = 1.800 mm
T05C1.800
;Holesize 6 = 2.000 mm
T06C2.000
%
G05
G90
T01
X-008382Y049530
X-008382Y048260
X-008382Y046990
X042164Y024384
X043561Y022860
X041910Y026543
X040259Y026543
X043561Y020955
X042291Y019939
X-011938Y041021
X-006477Y054991
X-008382Y042291
X-007112Y042291
X-005842Y042291
X-000635Y042291
X000635Y042291
X001905Y042291
X-001016Y032512
X-001016Y033782
X-003175Y032512
X-001143Y027051
X-012827Y041021
X-003683Y030734
X-008382Y055118
X-008382Y056134
X-008382Y057150
X008763Y002540
X-011049Y032893
X-000762Y040005
X011938Y032004
X002627Y031877
X024130Y030353
X026797Y030353
X026797Y034544
X037465Y027940
X037465Y030226
X025527Y031777
X025527Y034392
T02
X014066Y031115
X032893Y020955
X046860Y025530
X-003510Y029191
X-015621Y090424
X025146Y002540
X013716Y002540
X021971Y037084
T03
X011900Y008570
X025640Y012750
X029810Y030330
X042210Y033890
X-009470Y023420
X-002190Y030890
X-014100Y032930
X-011650Y037650
T04
X-015830Y086420G85X-015330Y086420
T05
X041630Y046030G85X041930Y046030
T06
X-006300Y047490G85X-006300Y048790
M30
