G04 Layer: TopPasteMaskLayer*
G04 EasyEDA v6.4.25, 2021-10-22T16:38:50--7:00*
G04 a8c8939794724f679426a10ff434762e,1286d1f709c949e68cfeef46812bcf49,10*
G04 Gerber Generator version 0.2*
G04 Scale: 100 percent, Rotated: No, Reflected: No *
G04 Dimensions in millimeters *
G04 leading zeros omitted , absolute positions ,4 integer and 5 decimal *
%FSLAX45Y45*%
%MOMM*%

%ADD16C,1.5000*%
%ADD18R,0.9000X0.7000*%
%ADD19R,0.7000X0.9000*%

%LPD*%
G36*
X2160422Y3537508D02*
G01*
X2155393Y3532479D01*
X2155393Y3509721D01*
X2192375Y3509721D01*
X2192375Y3476701D01*
X2155393Y3476701D01*
X2155393Y3452520D01*
X2160422Y3447491D01*
X2240381Y3447491D01*
X2245410Y3452520D01*
X2245410Y3532479D01*
X2240381Y3537508D01*
G37*
G36*
X2001418Y3537508D02*
G01*
X1996389Y3532479D01*
X1996389Y3452520D01*
X2001418Y3447491D01*
X2080412Y3447491D01*
X2085390Y3452520D01*
X2085390Y3476701D01*
X2047392Y3476701D01*
X2047392Y3509721D01*
X2085390Y3509721D01*
X2085390Y3532479D01*
X2080412Y3537508D01*
G37*
G36*
X2160422Y3347008D02*
G01*
X2155393Y3341979D01*
X2155393Y3319221D01*
X2192375Y3319221D01*
X2192375Y3286201D01*
X2155393Y3286201D01*
X2155393Y3262020D01*
X2160422Y3256991D01*
X2240381Y3256991D01*
X2245410Y3262020D01*
X2245410Y3341979D01*
X2240381Y3347008D01*
G37*
G36*
X2001418Y3347008D02*
G01*
X1996389Y3341979D01*
X1996389Y3262020D01*
X2001418Y3256991D01*
X2080412Y3256991D01*
X2085390Y3262020D01*
X2085390Y3286201D01*
X2047392Y3286201D01*
X2047392Y3319221D01*
X2085390Y3319221D01*
X2085390Y3341979D01*
X2080412Y3347008D01*
G37*
D16*
G01*
X2425700Y5397500D03*
G01*
X2844800Y5397500D03*
G01*
X533400Y5397500D03*
G01*
X825500Y5397500D03*
G01*
X1117600Y5397500D03*
G01*
X1422400Y5397500D03*
G01*
X1739900Y5397500D03*
G01*
X2044700Y5397500D03*
D18*
G01*
X4355998Y2547975D03*
G01*
X4355998Y2437993D03*
G01*
X4559985Y2437993D03*
G01*
X4559985Y2547975D03*
G01*
X2945002Y2092985D03*
G01*
X3148990Y1983003D03*
G01*
X3148990Y2092985D03*
G01*
X2945002Y1983003D03*
G01*
X2162987Y252984D03*
G01*
X2162987Y143002D03*
G01*
X2367000Y143002D03*
G01*
X2367000Y252984D03*
G01*
X1018997Y254000D03*
G01*
X1018997Y143992D03*
G01*
X1223010Y144018D03*
G01*
X1223010Y254000D03*
D19*
G01*
X-220979Y2605989D03*
G01*
X-110997Y2605989D03*
G01*
X-110997Y2810002D03*
G01*
X-220979Y2810002D03*
D18*
G01*
X-672007Y2355977D03*
G01*
X-672007Y2245995D03*
G01*
X-467995Y2245995D03*
G01*
X-467995Y2355977D03*
D19*
G01*
X-943000Y2803982D03*
G01*
X-1053007Y2803982D03*
G01*
X-1052982Y2599994D03*
G01*
X-943000Y2599994D03*
G36*
X-512998Y3104001D02*
G01*
X-422998Y3104001D01*
X-422998Y3034002D01*
X-512998Y3034002D01*
G37*
G36*
X-513001Y3213994D02*
G01*
X-422998Y3213994D01*
X-422998Y3143994D01*
X-513001Y3143994D01*
G37*
G36*
X-716998Y3213983D02*
G01*
X-626998Y3213983D01*
X-626998Y3143984D01*
X-716998Y3143984D01*
G37*
G36*
X-716998Y3104001D02*
G01*
X-626998Y3104001D01*
X-626998Y3034002D01*
X-716998Y3034002D01*
G37*
G01*
X-1470990Y8933992D03*
G01*
X-1361008Y8933992D03*
G01*
X-1361008Y9137980D03*
G01*
X-1470990Y9137980D03*
G36*
X1663700Y3073400D02*
G01*
X1663700Y3149600D01*
X1816100Y3149600D01*
X1816100Y3073400D01*
G37*
G36*
X1663700Y3200400D02*
G01*
X1663700Y3276600D01*
X1816100Y3276600D01*
X1816100Y3200400D01*
G37*
G36*
X1663700Y3327400D02*
G01*
X1663700Y3403600D01*
X1816100Y3403600D01*
X1816100Y3327400D01*
G37*
G36*
X1663700Y3454400D02*
G01*
X1663700Y3530600D01*
X1816100Y3530600D01*
X1816100Y3454400D01*
G37*
G36*
X1075105Y3530600D02*
G01*
X1075105Y3454400D01*
X922705Y3454400D01*
X922705Y3530600D01*
G37*
G36*
X1075105Y3403600D02*
G01*
X1075105Y3327400D01*
X922705Y3327400D01*
X922705Y3403600D01*
G37*
G36*
X1075105Y3276600D02*
G01*
X1075105Y3200400D01*
X922705Y3200400D01*
X922705Y3276600D01*
G37*
G36*
X1075105Y3149600D02*
G01*
X1075105Y3073400D01*
X922705Y3073400D01*
X922705Y3149600D01*
G37*
M02*
