G04 Layer: BoardOutline*
G04 EasyEDA v6.4.25, 2021-10-22T16:38:50--7:00*
G04 a8c8939794724f679426a10ff434762e,1286d1f709c949e68cfeef46812bcf49,10*
G04 Gerber Generator version 0.2*
G04 Scale: 100 percent, Rotated: No, Reflected: No *
G04 Dimensions in millimeters *
G04 leading zeros omitted , absolute positions ,4 integer and 5 decimal *
%FSLAX45Y45*%
%MOMM*%

%ADD10C,0.1000*%
%ADD11C,0.2540*%
D10*
X4190329Y1733082D02*
G01*
X3016326Y1733082D01*
X2816326Y1533083D02*
G01*
X2816326Y230411D01*
X4831158Y2203041D02*
G01*
X4317702Y1778888D01*
X-1420342Y1562966D02*
G01*
X-1679582Y1562966D01*
X-1320342Y1432417D02*
G01*
X-1320342Y1462966D01*
X502838Y1332417D02*
G01*
X-1220343Y1332417D01*
X602838Y230411D02*
G01*
X602838Y1232418D01*
X2616327Y30408D02*
G01*
X802838Y30408D01*
X4903787Y5295844D02*
G01*
X4903787Y2357231D01*
X-374246Y5495846D02*
G01*
X4703782Y5495846D01*
X-574248Y9191388D02*
G01*
X-574248Y5695843D01*
X-1413362Y9291391D02*
G01*
X-674248Y9291391D01*
X-1573176Y8765801D02*
G01*
X-1573176Y8838039D01*
X-1473794Y8735801D02*
G01*
X-1543177Y8735801D01*
X-1443794Y8582167D02*
G01*
X-1443794Y8705801D01*
X-1543177Y8552167D02*
G01*
X-1473794Y8552167D01*
X-1573176Y8489203D02*
G01*
X-1573176Y8522167D01*
X-1217040Y8479203D02*
G01*
X-1563179Y8479203D01*
X-1167041Y5456189D02*
G01*
X-1167041Y8429203D01*
X-1429583Y3530942D02*
G01*
X-1429583Y5256189D01*
X-1579582Y3430943D02*
G01*
X-1529582Y3430943D01*
X-1779582Y1662965D02*
G01*
X-1779582Y3230943D01*
G75*
G01*
X-1779582Y3230943D02*
G02*
X-1579583Y3430943I199999J1D01*
G75*
G01*
X-1529583Y3430943D02*
G03*
X-1429583Y3530943I0J100000D01*
G75*
G01*
X-1429583Y5256190D02*
G02*
X-1329583Y5356189I100000J0D01*
G75*
G01*
X-1167041Y8429203D02*
G03*
X-1217041Y8479203I-50000J0D01*
G75*
G01*
X-1563177Y8479203D02*
G02*
X-1573177Y8489203I0J10000D01*
G75*
G01*
X-1573177Y8522167D02*
G02*
X-1543177Y8552167I30000J0D01*
G75*
G01*
X-1473794Y8552167D02*
G03*
X-1443794Y8582167I0J30000D01*
G75*
G01*
X-1443794Y8705802D02*
G03*
X-1473794Y8735802I-30000J0D01*
G75*
G01*
X-1543177Y8735802D02*
G02*
X-1573177Y8765802I0J30000D01*
G75*
G01*
X-1573177Y8838039D02*
G02*
X-1413363Y9291391I159811J198509D01*
G75*
G01*
X-674248Y9291391D02*
G02*
X-574246Y9191391I2J-100000D01*
G75*
G01*
X-574246Y5695846D02*
G03*
X-374246Y5495846I200000J0D01*
G75*
G01*
X4703783Y5495846D02*
G02*
X4903782Y5295847I0J-199999D01*
G75*
G01*
X4903782Y2357234D02*
G02*
X4831159Y2203041I-199999J-1D01*
G75*
G01*
X4317703Y1778889D02*
G02*
X4190329Y1733083I-127375J154193D01*
G75*
G01*
X3016326Y1733083D02*
G03*
X2816327Y1533083I0J-200000D01*
G75*
G01*
X2816327Y230411D02*
G02*
X2616327Y30409I-200000J-3D01*
G75*
G01*
X802838Y30409D02*
G02*
X602839Y230411I0J199999D01*
G75*
G01*
X602839Y1232418D02*
G03*
X502839Y1332418I-100000J0D01*
G75*
G01*
X-1220343Y1332418D02*
G02*
X-1320343Y1432418I0J100000D01*
G75*
G01*
X-1320343Y1462966D02*
G03*
X-1420343Y1562966I-100000J0D01*
G75*
G01*
X-1679583Y1562966D02*
G02*
X-1779582Y1662966I0J100000D01*
G75*
G01
X3047695Y3033319D02*
G03X3047695Y3033319I-66726J0D01*
G75*
G01
X3010967Y3033319D02*
G03X3010967Y3033319I-29997J0D01*
G75*
G01
X4250868Y3388563D02*
G03X4250868Y3388563I-29997J0D01*
G75*
G01
X4287596Y3388563D02*
G03X4287596Y3388563I-66726J0D01*
G75*
G01*
X-1167041Y5456189D02*
G02*
X-1267041Y5356189I-100000J0D01*
X-1267040Y5356189D02*
G01*
X-1329583Y5356189D01*
D11*
G75*
G01*
X363215Y1729199D02*
G02*
X829269Y1729199I233027J0D01*
G75*
G01*
X829269Y1729199D02*
G02*
X363215Y1729199I-233027J0D01*
X363214Y1729198D02*
G01*
X363214Y1729198D01*
G75*
G01*
X883996Y2541981D02*
G02*
X1403609Y2541981I259807J0D01*
G75*
G01*
X1403609Y2541981D02*
G02*
X883996Y2541981I-259806J0D01*
X883996Y2541981D02*
G01*
X883996Y2541981D01*
G75*
G01*
X2717317Y2508527D02*
G02*
X3377316Y2508527I330000J0D01*
G75*
G01*
X3377316Y2508527D02*
G02*
X2717317Y2508527I-329999J0D01*
X2717317Y2508526D02*
G01*
X2717317Y2508526D01*
X1489339Y336090D02*
G01*
X1489339Y686087D01*
X1489339Y686087D02*
G01*
X749343Y686087D01*
X749343Y686087D02*
G01*
X749343Y336090D01*
X749343Y336090D02*
G01*
X1489339Y336090D01*
X1489339Y336090D02*
G01*
X1489339Y336090D01*
X2638993Y690999D02*
G01*
X1888987Y690999D01*
X1888987Y690999D02*
G01*
X1888987Y330995D01*
X1888987Y330995D02*
G01*
X2638993Y330995D01*
X2638993Y330995D02*
G01*
X2638993Y690999D01*
G75*
G01*
X3112346Y3236963D02*
G02*
X3583381Y3236963I235518J0D01*
G75*
G01*
X3583381Y3236963D02*
G02*
X3112346Y3236963I-235517J0D01*
X3112345Y3236963D02*
G01*
X3112345Y3236963D01*
G75*
G01*
X4126260Y2966649D02*
G02*
X4786259Y2966649I330000J0D01*
G75*
G01*
X4786259Y2966649D02*
G02*
X4126260Y2966649I-329999J0D01*
X4126260Y2966648D02*
G01*
X4126260Y2966648D01*
G75*
G01*
X3616947Y2135812D02*
G02*
X4180804Y2135812I281929J0D01*
G75*
G01*
X4180804Y2135812D02*
G02*
X3616947Y2135812I-281928J0D01*
X3616947Y2135812D02*
G01*
X3616947Y2135812D01*
G75*
G01*
X3966019Y3990703D02*
G03*
X3816020Y4140703I-149999J0D01*
X3816019Y4140702D02*
G01*
X3553597Y4140702D01*
G75*
G01*
X3553597Y4140703D02*
G03*
X3403597Y3990703I0J-150000D01*
X3403597Y3990703D02*
G01*
X3403597Y3674064D01*
G75*
G01*
X3403597Y3674064D02*
G03*
X3503597Y3574064I100000J0D01*
X3503597Y3574064D02*
G01*
X3816019Y3574064D01*
G75*
G01*
X3816020Y3574064D02*
G03*
X3966019Y3724064I0J150000D01*
X3966019Y3724064D02*
G01*
X3966019Y3990703D01*
G75*
G01*
X-848483Y3505835D02*
G02*
X-288472Y3505835I280006J0D01*
G75*
G01*
X-288472Y3505835D02*
G02*
X-848483Y3505835I-280005J0D01*
X-848483Y3505835D02*
G01*
X-848483Y3505835D01*
G75*
G01*
X-62760Y2710586D02*
G02*
X497252Y2710586I280006J0D01*
G75*
G01*
X497252Y2710586D02*
G02*
X-62760Y2710586I-280006J0D01*
X-62759Y2710586D02*
G01*
X-62759Y2710586D01*
G75*
G01*
X-850261Y1916760D02*
G02*
X-290250Y1916760I280006J0D01*
G75*
G01*
X-290250Y1916760D02*
G02*
X-850261Y1916760I-280005J0D01*
X-850261Y1916760D02*
G01*
X-850261Y1916760D01*
G75*
G01*
X-1655492Y2705938D02*
G02*
X-1095479Y2705938I280006J0D01*
G75*
G01*
X-1095479Y2705938D02*
G02*
X-1655492Y2705938I-280007J0D01*
X-1655491Y2705938D02*
G01*
X-1655491Y2705938D01*
G75*
G01*
X3959992Y5074989D02*
G02*
X4053992Y4980988I0J-94001D01*
X4053992Y4980988D02*
G01*
X4053992Y4737991D01*
G75*
G01*
X4053992Y4737992D02*
G03*
X4099994Y4691990I46002J0D01*
X4099994Y4691989D02*
G01*
X4237992Y4691989D01*
G75*
G01*
X4237993Y4691990D02*
G02*
X4269991Y4659991I0J-31999D01*
X4269991Y4659990D02*
G01*
X4269991Y4549990D01*
G75*
G01*
X4269991Y4549991D02*
G02*
X4233992Y4513991I-35999J0D01*
X4233992Y4513991D02*
G01*
X4063992Y4513991D01*
G75*
G01*
X4063992Y4513991D02*
G03*
X4052992Y4502991I0J-11000D01*
X4052991Y4502990D02*
G01*
X4052991Y4470991D01*
G75*
G01*
X4052992Y4470992D02*
G02*
X4046990Y4464990I-6002J0D01*
X4046989Y4464989D02*
G01*
X-470999Y4464989D01*
G75*
G01*
X-471000Y4464990D02*
G02*
X-574998Y4568988I0J103998D01*
X-574997Y4568987D02*
G01*
X-574997Y4617991D01*
G75*
G01*
X-574998Y4617992D02*
G03*
X-610997Y4653991I-35999J0D01*
X-610996Y4653991D02*
G01*
X-687999Y4653991D01*
G75*
G01*
X-688000Y4653991D02*
G02*
X-721998Y4687989I0J33998D01*
X-721997Y4687989D02*
G01*
X-721997Y4933990D01*
G75*
G01*
X-721998Y4933991D02*
G02*
X-684997Y4970991I37001J0D01*
X-684997Y4970990D02*
G01*
X-609998Y4970990D01*
G75*
G01*
X-609999Y4970991D02*
G03*
X-574998Y5005992I0J35001D01*
X-574997Y5005992D02*
G01*
X-574997Y5052989D01*
G75*
G01*
X-574998Y5052990D02*
G02*
X-552999Y5074989I21999J0D01*
X-552998Y5074988D02*
G01*
X3956992Y5074988D01*
X3956992Y5074988D02*
G01*
X3959992Y5074988D01*

%LPD*%
M02*
