G04 Layer: TopSilkLayer*
G04 EasyEDA v6.4.25, 2021-10-22T16:38:50--7:00*
G04 a8c8939794724f679426a10ff434762e,1286d1f709c949e68cfeef46812bcf49,10*
G04 Gerber Generator version 0.2*
G04 Scale: 100 percent, Rotated: No, Reflected: No *
G04 Dimensions in millimeters *
G04 leading zeros omitted , absolute positions ,4 integer and 5 decimal *
%FSLAX45Y45*%
%MOMM*%

%ADD11C,0.2540*%
%ADD24C,0.1524*%
%ADD25C,0.2032*%
%ADD26C,0.1800*%
%ADD27C,0.1500*%

%LPD*%
G36*
X1792579Y1676806D02*
G01*
X1785366Y1676755D01*
X1778000Y1676400D01*
X1770938Y1675688D01*
X1764030Y1674622D01*
X1757172Y1673250D01*
X1750415Y1671472D01*
X1743862Y1669389D01*
X1737410Y1667002D01*
X1731162Y1664309D01*
X1725117Y1661363D01*
X1719275Y1658061D01*
X1713687Y1654556D01*
X1708302Y1650746D01*
X1703222Y1646732D01*
X1698396Y1642465D01*
X1693875Y1637995D01*
X1689709Y1633321D01*
X1685848Y1628444D01*
X1682343Y1623364D01*
X1679193Y1618132D01*
X1676501Y1612747D01*
X1674164Y1607210D01*
X1672386Y1600860D01*
X1670913Y1592224D01*
X1669694Y1581556D01*
X1668729Y1569313D01*
X1668018Y1555750D01*
X1667611Y1541221D01*
X1667510Y1510639D01*
X1668424Y1480362D01*
X1669237Y1466138D01*
X1670253Y1452981D01*
X1671523Y1441246D01*
X1673047Y1431290D01*
X1674723Y1423416D01*
X1676654Y1417980D01*
X1681683Y1409090D01*
X1687525Y1400860D01*
X1690725Y1397000D01*
X1697685Y1389837D01*
X1705254Y1383334D01*
X1713382Y1377594D01*
X1722069Y1372514D01*
X1731213Y1368094D01*
X1740662Y1364437D01*
X1750517Y1361490D01*
X1760575Y1359204D01*
X1770786Y1357630D01*
X1781149Y1356817D01*
X1786331Y1356614D01*
X1796745Y1356817D01*
X1807108Y1357731D01*
X1817319Y1359357D01*
X1827377Y1361694D01*
X1837131Y1364742D01*
X1846630Y1368501D01*
X1855724Y1373022D01*
X1864309Y1378204D01*
X1868474Y1381048D01*
X1876298Y1387297D01*
X1883511Y1394307D01*
X1890014Y1401978D01*
X1893011Y1406093D01*
X1895805Y1410411D01*
X1900580Y1418894D01*
X1902002Y1421892D01*
X1902155Y1424381D01*
X1900580Y1426718D01*
X1896922Y1429258D01*
X1890674Y1432458D01*
X1836674Y1457045D01*
X1829816Y1448358D01*
X1825904Y1444091D01*
X1821535Y1440434D01*
X1816658Y1437335D01*
X1811426Y1434846D01*
X1805889Y1432915D01*
X1800148Y1431544D01*
X1794306Y1430731D01*
X1788464Y1430477D01*
X1782673Y1430832D01*
X1777034Y1431747D01*
X1771650Y1433220D01*
X1766519Y1435252D01*
X1761845Y1437843D01*
X1757680Y1440992D01*
X1754124Y1444752D01*
X1751177Y1449019D01*
X1750466Y1451102D01*
X1749298Y1459433D01*
X1748332Y1472184D01*
X1747672Y1488236D01*
X1747266Y1506169D01*
X1747164Y1524812D01*
X1747316Y1542897D01*
X1747824Y1559052D01*
X1748586Y1572107D01*
X1749653Y1580743D01*
X1750364Y1583029D01*
X1752854Y1587296D01*
X1756105Y1591106D01*
X1759966Y1594358D01*
X1764436Y1597152D01*
X1769364Y1599387D01*
X1774647Y1601165D01*
X1780286Y1602333D01*
X1786128Y1603044D01*
X1792071Y1603197D01*
X1798066Y1602790D01*
X1804060Y1601876D01*
X1809902Y1600352D01*
X1815541Y1598320D01*
X1820875Y1595678D01*
X1825853Y1592478D01*
X1830324Y1588719D01*
X1839823Y1579575D01*
X1879396Y1595120D01*
X1891538Y1600098D01*
X1895602Y1602079D01*
X1898497Y1603959D01*
X1900275Y1605838D01*
X1901037Y1607870D01*
X1900885Y1610106D01*
X1899818Y1612798D01*
X1895602Y1619910D01*
X1888845Y1629968D01*
X1884934Y1635048D01*
X1880717Y1639874D01*
X1876298Y1644396D01*
X1871624Y1648663D01*
X1866747Y1652625D01*
X1861616Y1656283D01*
X1856282Y1659686D01*
X1850694Y1662785D01*
X1844954Y1665579D01*
X1839010Y1668068D01*
X1832914Y1670253D01*
X1826564Y1672132D01*
X1820113Y1673707D01*
X1813458Y1674977D01*
X1806651Y1675892D01*
X1799691Y1676501D01*
G37*
G36*
X1934870Y1672691D02*
G01*
X1934870Y1361135D01*
X2151888Y1361135D01*
X2151888Y1433931D01*
X2014067Y1433931D01*
X2014067Y1480413D01*
X2141626Y1481988D01*
X2143302Y1550416D01*
X2014067Y1550416D01*
X2014067Y1596999D01*
X2151888Y1596999D01*
X2151888Y1672691D01*
G37*
G36*
X1544878Y1672691D02*
G01*
X1544878Y1361135D01*
X1624025Y1361135D01*
X1624025Y1672691D01*
G37*
G36*
X1242822Y1672691D02*
G01*
X1242822Y1361135D01*
X1324914Y1361135D01*
X1324559Y1446276D01*
X1323746Y1471980D01*
X1323136Y1482953D01*
X1321358Y1502054D01*
X1316431Y1534312D01*
X1316126Y1537919D01*
X1316278Y1540002D01*
X1316786Y1540611D01*
X1317802Y1539697D01*
X1321308Y1533398D01*
X1332077Y1509420D01*
X1340713Y1491894D01*
X1352956Y1468628D01*
X1370990Y1436014D01*
X1414119Y1361135D01*
X1494993Y1361135D01*
X1494993Y1672691D01*
X1415846Y1672691D01*
X1415897Y1584147D01*
X1416405Y1554175D01*
X1417523Y1530959D01*
X1418285Y1521409D01*
X1419250Y1513078D01*
X1422755Y1491538D01*
X1423720Y1483156D01*
X1423619Y1481074D01*
X1423060Y1480515D01*
X1422095Y1481328D01*
X1420672Y1483664D01*
X1416354Y1492605D01*
X1406906Y1514398D01*
X1400606Y1528064D01*
X1393037Y1543202D01*
X1383131Y1561846D01*
X1351838Y1617675D01*
X1320546Y1672691D01*
G37*
G36*
X1201775Y1334922D02*
G01*
X1201775Y1311656D01*
X2201773Y1311656D01*
X2201773Y1334922D01*
G37*
G36*
X1892960Y1290777D02*
G01*
X1886457Y1290472D01*
X1879904Y1289812D01*
X1873300Y1288745D01*
X1866646Y1287272D01*
X1859991Y1285341D01*
X1854657Y1283512D01*
X1849526Y1281328D01*
X1844548Y1278839D01*
X1839772Y1276045D01*
X1835251Y1272997D01*
X1830933Y1269746D01*
X1826920Y1266190D01*
X1823161Y1262430D01*
X1819656Y1258468D01*
X1816557Y1254302D01*
X1813712Y1249934D01*
X1811274Y1245412D01*
X1810004Y1242314D01*
X1808835Y1238504D01*
X1806854Y1228801D01*
X1805330Y1216863D01*
X1804263Y1203248D01*
X1803603Y1188567D01*
X1803349Y1173276D01*
X1803603Y1157986D01*
X1804263Y1143254D01*
X1805381Y1129690D01*
X1806905Y1117803D01*
X1808886Y1108100D01*
X1810054Y1104290D01*
X1811324Y1101242D01*
X1813763Y1096772D01*
X1816506Y1092555D01*
X1819554Y1088542D01*
X1822805Y1084732D01*
X1826361Y1081227D01*
X1830120Y1077925D01*
X1834083Y1074826D01*
X1842566Y1069441D01*
X1847088Y1067054D01*
X1856536Y1063091D01*
X1861413Y1061466D01*
X1871522Y1058926D01*
X1881886Y1057402D01*
X1892350Y1056843D01*
X1902866Y1057249D01*
X1913229Y1058722D01*
X1918360Y1059789D01*
X1928266Y1062736D01*
X1937816Y1066698D01*
X1946706Y1071676D01*
X1950923Y1074572D01*
X1954936Y1077722D01*
X1958746Y1081074D01*
X1962353Y1084732D01*
X1965706Y1088694D01*
X1972056Y1097788D01*
X1974138Y1101648D01*
X1974900Y1104747D01*
X1974138Y1107440D01*
X1971700Y1109980D01*
X1967331Y1112621D01*
X1960880Y1115771D01*
X1928571Y1129944D01*
X1918360Y1120343D01*
X1914194Y1117092D01*
X1909622Y1114501D01*
X1904695Y1112621D01*
X1899513Y1111453D01*
X1894281Y1110894D01*
X1889048Y1111046D01*
X1883918Y1111859D01*
X1879092Y1113282D01*
X1874621Y1115314D01*
X1870608Y1118006D01*
X1867255Y1121257D01*
X1864614Y1125118D01*
X1863547Y1128064D01*
X1862683Y1132382D01*
X1861972Y1137920D01*
X1861210Y1151737D01*
X1861057Y1167841D01*
X1861566Y1184706D01*
X1862632Y1200556D01*
X1864258Y1213866D01*
X1865274Y1218996D01*
X1866392Y1222857D01*
X1867611Y1225296D01*
X1871116Y1229004D01*
X1875129Y1232052D01*
X1879549Y1234440D01*
X1884324Y1236167D01*
X1889353Y1237234D01*
X1894484Y1237589D01*
X1899666Y1237335D01*
X1904796Y1236370D01*
X1909825Y1234795D01*
X1914601Y1232509D01*
X1919020Y1229563D01*
X1922983Y1225905D01*
X1929587Y1218946D01*
X1959457Y1231493D01*
X1966112Y1234541D01*
X1970684Y1237030D01*
X1973427Y1239316D01*
X1974545Y1241653D01*
X1974240Y1244295D01*
X1972767Y1247495D01*
X1970328Y1251559D01*
X1966975Y1256487D01*
X1963318Y1261160D01*
X1959305Y1265478D01*
X1954987Y1269492D01*
X1950415Y1273149D01*
X1945538Y1276502D01*
X1940458Y1279499D01*
X1935124Y1282192D01*
X1929587Y1284478D01*
X1923846Y1286459D01*
X1917954Y1288084D01*
X1911908Y1289304D01*
X1905711Y1290167D01*
X1899412Y1290675D01*
G37*
G36*
X1999386Y1288338D02*
G01*
X1999386Y1058316D01*
X2058060Y1058316D01*
X2058060Y1145692D01*
X2122424Y1145692D01*
X2124049Y1059789D01*
X2181250Y1058113D01*
X2181250Y1288338D01*
X2122576Y1288338D01*
X2122576Y1201013D01*
X2058060Y1201013D01*
X2058060Y1288338D01*
G37*
G36*
X1541932Y1288338D02*
G01*
X1541932Y1233017D01*
X1603502Y1233017D01*
X1603502Y1058316D01*
X1662175Y1058316D01*
X1662175Y1233017D01*
X1723745Y1233017D01*
X1723745Y1288338D01*
G37*
G36*
X1462735Y1288338D02*
G01*
X1462735Y1058113D01*
X1519936Y1059789D01*
X1521460Y1288338D01*
G37*
G36*
X1367129Y1288338D02*
G01*
X1330147Y1202385D01*
X1326286Y1194257D01*
X1322984Y1188872D01*
X1321511Y1187145D01*
X1320088Y1186129D01*
X1318666Y1185824D01*
X1317294Y1186129D01*
X1315872Y1187145D01*
X1314399Y1188821D01*
X1311148Y1194257D01*
X1307338Y1202334D01*
X1270660Y1288237D01*
X1228852Y1288135D01*
X1219708Y1287475D01*
X1214170Y1286357D01*
X1211884Y1284681D01*
X1211478Y1277874D01*
X1211224Y1261110D01*
X1211072Y1205484D01*
X1212037Y1059789D01*
X1269847Y1058113D01*
X1268577Y1124356D01*
X1268374Y1158595D01*
X1268526Y1166571D01*
X1268730Y1167485D01*
X1273556Y1156258D01*
X1297940Y1094740D01*
X1338630Y1093012D01*
X1362811Y1154582D01*
X1367231Y1165047D01*
X1369872Y1170736D01*
X1370330Y1171346D01*
X1370482Y1169009D01*
X1369618Y1155344D01*
X1368298Y1140053D01*
X1367383Y1126490D01*
X1366672Y1111351D01*
X1366266Y1096416D01*
X1365961Y1058316D01*
X1424635Y1058316D01*
X1424635Y1288338D01*
G37*
G36*
X1751584Y1121968D02*
G01*
X1745589Y1121359D01*
X1739544Y1119530D01*
X1734057Y1116431D01*
X1729435Y1112113D01*
X1725675Y1106779D01*
X1722932Y1100683D01*
X1721357Y1094232D01*
X1720900Y1087526D01*
X1721815Y1081024D01*
X1724101Y1074877D01*
X1726895Y1070406D01*
X1730248Y1066647D01*
X1734108Y1063599D01*
X1738325Y1061262D01*
X1742846Y1059637D01*
X1747520Y1058672D01*
X1752295Y1058367D01*
X1757070Y1058722D01*
X1761743Y1059688D01*
X1766265Y1061313D01*
X1770481Y1063498D01*
X1774342Y1066342D01*
X1777695Y1069746D01*
X1780539Y1073708D01*
X1782673Y1078230D01*
X1784096Y1083310D01*
X1784705Y1089558D01*
X1784146Y1095502D01*
X1782572Y1101039D01*
X1780082Y1106170D01*
X1776730Y1110691D01*
X1772716Y1114602D01*
X1768043Y1117752D01*
X1762912Y1120089D01*
X1757375Y1121562D01*
G37*
D25*
X4221988Y4964684D02*
G01*
X4153915Y4964684D01*
X4147058Y4903215D01*
X4153915Y4910073D01*
X4174236Y4916931D01*
X4194809Y4916931D01*
X4215129Y4910073D01*
X4228845Y4896357D01*
X4235704Y4876037D01*
X4235704Y4862321D01*
X4228845Y4842002D01*
X4215129Y4828286D01*
X4194809Y4821428D01*
X4174236Y4821428D01*
X4153915Y4828286D01*
X4147058Y4835144D01*
X4140200Y4848860D01*
X4280661Y4916931D02*
G01*
X4321556Y4821428D01*
X4362450Y4916931D02*
G01*
X4321556Y4821428D01*
X-1158747Y4941062D02*
G01*
X-1172463Y4927600D01*
X-1185926Y4907026D01*
X-1199642Y4879847D01*
X-1206500Y4845557D01*
X-1206500Y4818379D01*
X-1199642Y4784344D01*
X-1185926Y4757165D01*
X-1172463Y4736592D01*
X-1158747Y4722876D01*
X-1113789Y4832095D02*
G01*
X-991107Y4832095D01*
X-946150Y4941062D02*
G01*
X-932434Y4927600D01*
X-918718Y4907026D01*
X-905255Y4879847D01*
X-898397Y4845557D01*
X-898397Y4818379D01*
X-905255Y4784344D01*
X-918718Y4757165D01*
X-932434Y4736592D01*
X-946150Y4722876D01*
X-801156Y7207514D02*
G01*
X-677204Y7207514D01*
X-801156Y7207514D02*
G01*
X-677204Y7290064D01*
X-801156Y7290064D02*
G01*
X-677204Y7290064D01*
X-801156Y7329180D02*
G01*
X-795314Y7335022D01*
X-801156Y7341118D01*
X-806998Y7335022D01*
X-801156Y7329180D01*
X-759754Y7335022D02*
G01*
X-677204Y7335022D01*
X-741974Y7450846D02*
G01*
X-753912Y7439162D01*
X-759754Y7427224D01*
X-759754Y7409444D01*
X-753912Y7397760D01*
X-741974Y7385822D01*
X-724448Y7379980D01*
X-712510Y7379980D01*
X-694730Y7385822D01*
X-683046Y7397760D01*
X-677204Y7409444D01*
X-677204Y7427224D01*
X-683046Y7439162D01*
X-694730Y7450846D01*
X-724448Y7489962D02*
G01*
X-724448Y7560828D01*
X-736132Y7560828D01*
X-748070Y7554986D01*
X-753912Y7548890D01*
X-759754Y7537206D01*
X-759754Y7519426D01*
X-753912Y7507742D01*
X-741974Y7495804D01*
X-724448Y7489962D01*
X-712510Y7489962D01*
X-694730Y7495804D01*
X-683046Y7507742D01*
X-677204Y7519426D01*
X-677204Y7537206D01*
X-683046Y7548890D01*
X-694730Y7560828D01*
X-801156Y7599690D02*
G01*
X-677204Y7599690D01*
X-801156Y7599690D02*
G01*
X-677204Y7647188D01*
X-801156Y7694432D02*
G01*
X-677204Y7647188D01*
X-801156Y7694432D02*
G01*
X-677204Y7694432D01*
X-801156Y7733294D02*
G01*
X-795314Y7739390D01*
X-801156Y7745232D01*
X-806998Y7739390D01*
X-801156Y7733294D01*
X-759754Y7739390D02*
G01*
X-677204Y7739390D01*
X-801156Y7801874D02*
G01*
X-700826Y7801874D01*
X-683046Y7807716D01*
X-677204Y7819654D01*
X-677204Y7831338D01*
X-759754Y7784094D02*
G01*
X-759754Y7825496D01*
X-741974Y7941320D02*
G01*
X-753912Y7929636D01*
X-759754Y7917698D01*
X-759754Y7899918D01*
X-753912Y7888234D01*
X-741974Y7876296D01*
X-724448Y7870454D01*
X-712510Y7870454D01*
X-694730Y7876296D01*
X-683046Y7888234D01*
X-677204Y7899918D01*
X-677204Y7917698D01*
X-683046Y7929636D01*
X-694730Y7941320D01*
X-801156Y7980436D02*
G01*
X-677204Y7980436D01*
X-736132Y7980436D02*
G01*
X-753912Y7998216D01*
X-759754Y8009900D01*
X-759754Y8027680D01*
X-753912Y8039364D01*
X-736132Y8045460D01*
X-677204Y8045460D01*
X-759754Y8246374D02*
G01*
X-665266Y8246374D01*
X-647486Y8240278D01*
X-641644Y8234436D01*
X-635802Y8222752D01*
X-635802Y8204972D01*
X-641644Y8193034D01*
X-741974Y8246374D02*
G01*
X-753912Y8234436D01*
X-759754Y8222752D01*
X-759754Y8204972D01*
X-753912Y8193034D01*
X-741974Y8181350D01*
X-724448Y8175254D01*
X-712510Y8175254D01*
X-694730Y8181350D01*
X-683046Y8193034D01*
X-677204Y8204972D01*
X-677204Y8222752D01*
X-683046Y8234436D01*
X-694730Y8246374D01*
X-801156Y8285236D02*
G01*
X-677204Y8285236D01*
X-741974Y8285236D02*
G01*
X-753912Y8297174D01*
X-759754Y8308858D01*
X-759754Y8326638D01*
X-753912Y8338576D01*
X-741974Y8350260D01*
X-724448Y8356102D01*
X-712510Y8356102D01*
X-694730Y8350260D01*
X-683046Y8338576D01*
X-677204Y8326638D01*
X-677204Y8308858D01*
X-683046Y8297174D01*
X-694730Y8285236D01*
X-741974Y8466084D02*
G01*
X-753912Y8454146D01*
X-759754Y8442462D01*
X-759754Y8424682D01*
X-753912Y8412998D01*
X-741974Y8401060D01*
X-724448Y8395218D01*
X-712510Y8395218D01*
X-694730Y8401060D01*
X-683046Y8412998D01*
X-677204Y8424682D01*
X-677204Y8442462D01*
X-683046Y8454146D01*
X-694730Y8466084D01*
X-801156Y8505200D02*
G01*
X-677204Y8505200D01*
X-801156Y8505200D02*
G01*
X-801156Y8558286D01*
X-795314Y8576066D01*
X-789472Y8581908D01*
X-777534Y8587750D01*
X-765850Y8587750D01*
X-753912Y8581908D01*
X-748070Y8576066D01*
X-741974Y8558286D01*
X-741974Y8505200D01*
X-741974Y8546348D02*
G01*
X-677204Y8587750D01*
X-771692Y8715512D02*
G01*
X-783376Y8709670D01*
X-795314Y8697732D01*
X-801156Y8685794D01*
X-801156Y8662172D01*
X-795314Y8650488D01*
X-783376Y8638550D01*
X-771692Y8632708D01*
X-753912Y8626866D01*
X-724448Y8626866D01*
X-706668Y8632708D01*
X-694730Y8638550D01*
X-683046Y8650488D01*
X-677204Y8662172D01*
X-677204Y8685794D01*
X-683046Y8697732D01*
X-694730Y8709670D01*
X-706668Y8715512D01*
X-724448Y8715512D01*
X-724448Y8685794D02*
G01*
X-724448Y8715512D01*
X-801156Y8754374D02*
G01*
X-677204Y8754374D01*
X-801156Y8754374D02*
G01*
X-801156Y8807714D01*
X-795314Y8825240D01*
X-789472Y8831336D01*
X-777534Y8837178D01*
X-765850Y8837178D01*
X-753912Y8831336D01*
X-748070Y8825240D01*
X-741974Y8807714D01*
X-741974Y8754374D02*
G01*
X-741974Y8807714D01*
X-736132Y8825240D01*
X-730290Y8831336D01*
X-718352Y8837178D01*
X-700826Y8837178D01*
X-688888Y8831336D01*
X-683046Y8825240D01*
X-677204Y8807714D01*
X-677204Y8754374D01*
X-759754Y8967226D02*
G01*
X-677204Y9002532D01*
X-759754Y9038092D02*
G01*
X-677204Y9002532D01*
X-771692Y9083050D02*
G01*
X-777534Y9083050D01*
X-789472Y9088892D01*
X-795314Y9094734D01*
X-801156Y9106672D01*
X-801156Y9130294D01*
X-795314Y9141978D01*
X-789472Y9148074D01*
X-777534Y9153916D01*
X-765850Y9153916D01*
X-753912Y9148074D01*
X-736132Y9136136D01*
X-677204Y9077208D01*
X-677204Y9159758D01*
D26*
X482600Y5256529D02*
G01*
X482600Y5161534D01*
X482600Y5161534D02*
G01*
X536955Y5161534D01*
X775715Y5256529D02*
G01*
X775715Y5188712D01*
X780287Y5175250D01*
X789178Y5166105D01*
X802894Y5161534D01*
X811784Y5161534D01*
X825500Y5166105D01*
X834389Y5175250D01*
X838962Y5188712D01*
X838962Y5256529D01*
X1077721Y5256529D02*
G01*
X1077721Y5161534D01*
X1077721Y5256529D02*
G01*
X1109471Y5256529D01*
X1122934Y5251957D01*
X1132078Y5243068D01*
X1136650Y5233923D01*
X1141221Y5220462D01*
X1141221Y5197855D01*
X1136650Y5184139D01*
X1132078Y5175250D01*
X1122934Y5166105D01*
X1109471Y5161534D01*
X1077721Y5161534D01*
X1379981Y5256529D02*
G01*
X1379981Y5161534D01*
X1379981Y5256529D02*
G01*
X1420621Y5256529D01*
X1434084Y5251957D01*
X1438655Y5247639D01*
X1443228Y5238495D01*
X1443228Y5229352D01*
X1438655Y5220462D01*
X1434084Y5215889D01*
X1420621Y5211318D01*
X1379981Y5211318D01*
X1411478Y5211318D02*
G01*
X1443228Y5161534D01*
X1675637Y5243068D02*
G01*
X1666747Y5251957D01*
X1653031Y5256529D01*
X1634997Y5256529D01*
X1621536Y5251957D01*
X1612392Y5243068D01*
X1612392Y5233923D01*
X1616963Y5225034D01*
X1621536Y5220462D01*
X1630426Y5215889D01*
X1657604Y5206745D01*
X1666747Y5202428D01*
X1671065Y5197855D01*
X1675637Y5188712D01*
X1675637Y5175250D01*
X1666747Y5166105D01*
X1653031Y5161534D01*
X1634997Y5161534D01*
X1621536Y5166105D01*
X1612392Y5175250D01*
X1705610Y5256529D02*
G01*
X1705610Y5161534D01*
X1705610Y5256529D02*
G01*
X1764284Y5256529D01*
X1705610Y5211318D02*
G01*
X1741678Y5211318D01*
X1705610Y5161534D02*
G01*
X1764284Y5161534D01*
X1794255Y5256529D02*
G01*
X1794255Y5161534D01*
X1794255Y5161534D02*
G01*
X1848357Y5161534D01*
X2011172Y5243068D02*
G01*
X2002281Y5251957D01*
X1988565Y5256529D01*
X1970531Y5256529D01*
X1957070Y5251957D01*
X1947925Y5243068D01*
X1947925Y5233923D01*
X1952497Y5225034D01*
X1957070Y5220462D01*
X1965959Y5215889D01*
X1993138Y5206745D01*
X2002281Y5202428D01*
X2006854Y5197855D01*
X2011172Y5188712D01*
X2011172Y5175250D01*
X2002281Y5166105D01*
X1988565Y5161534D01*
X1970531Y5161534D01*
X1957070Y5166105D01*
X1947925Y5175250D01*
X2072893Y5256529D02*
G01*
X2072893Y5161534D01*
X2041143Y5256529D02*
G01*
X2104390Y5256529D01*
X2134361Y5256529D02*
G01*
X2134361Y5161534D01*
X2134361Y5256529D02*
G01*
X2175002Y5256529D01*
X2188463Y5251957D01*
X2193036Y5247639D01*
X2197608Y5238495D01*
X2197608Y5229352D01*
X2193036Y5220462D01*
X2188463Y5215889D01*
X2175002Y5211318D01*
X2134361Y5211318D01*
X2165858Y5211318D02*
G01*
X2197608Y5161534D01*
X2436368Y5256529D02*
G01*
X2436368Y5161534D01*
X2436368Y5256529D02*
G01*
X2477008Y5256529D01*
X2490724Y5251957D01*
X2495295Y5247639D01*
X2499613Y5238495D01*
X2499613Y5229352D01*
X2495295Y5220462D01*
X2490724Y5215889D01*
X2477008Y5211318D01*
X2436368Y5211318D02*
G01*
X2477008Y5211318D01*
X2490724Y5206745D01*
X2495295Y5202428D01*
X2499613Y5193284D01*
X2499613Y5179821D01*
X2495295Y5170678D01*
X2490724Y5166105D01*
X2477008Y5161534D01*
X2436368Y5161534D01*
X2844291Y5256529D02*
G01*
X2808224Y5161534D01*
X2844291Y5256529D02*
G01*
X2880613Y5161534D01*
X2821686Y5193284D02*
G01*
X2866897Y5193284D01*
D24*
X2139975Y3514194D02*
G01*
X2101875Y3514194D01*
X2139975Y3514194D02*
G01*
X2139975Y3497938D01*
X2138197Y3492350D01*
X2136419Y3490572D01*
X2132863Y3488794D01*
X2129053Y3488794D01*
X2125497Y3490572D01*
X2123719Y3492350D01*
X2121941Y3497938D01*
X2121941Y3514194D01*
X2121941Y3501494D02*
G01*
X2101875Y3488794D01*
X2131085Y3474824D02*
G01*
X2132863Y3474824D01*
X2136419Y3473046D01*
X2138197Y3471268D01*
X2139975Y3467712D01*
X2139975Y3460346D01*
X2138197Y3456790D01*
X2136419Y3455012D01*
X2132863Y3452980D01*
X2129053Y3452980D01*
X2125497Y3455012D01*
X2120163Y3458568D01*
X2101875Y3476856D01*
X2101875Y3451202D01*
X4496335Y2517300D02*
G01*
X4448583Y2517300D01*
X4448583Y2517300D02*
G01*
X4448583Y2490122D01*
X4487191Y2475136D02*
G01*
X4489477Y2470564D01*
X4496335Y2463706D01*
X4448583Y2463706D01*
D27*
X4270801Y2607040D02*
G01*
X4274357Y2610342D01*
X4270801Y2613898D01*
X4267499Y2610342D01*
X4270801Y2607040D01*
D24*
X3084631Y2076180D02*
G01*
X3037133Y2076180D01*
X3037133Y2076180D02*
G01*
X3037133Y2048748D01*
X3073455Y2031476D02*
G01*
X3075741Y2031476D01*
X3080313Y2029190D01*
X3082345Y2026904D01*
X3084631Y2022586D01*
X3084631Y2013442D01*
X3082345Y2008870D01*
X3080313Y2006584D01*
X3075741Y2004298D01*
X3071169Y2004298D01*
X3066597Y2006584D01*
X3059739Y2011156D01*
X3037133Y2033762D01*
X3037133Y2002012D01*
D27*
X2863540Y2147813D02*
G01*
X2867096Y2151369D01*
X2863540Y2154671D01*
X2860238Y2151369D01*
X2863540Y2147813D01*
D24*
X2301300Y232951D02*
G01*
X2253548Y232951D01*
X2253548Y232951D02*
G01*
X2253548Y205773D01*
X2301300Y186215D02*
G01*
X2301300Y161069D01*
X2283012Y174785D01*
X2283012Y167927D01*
X2280980Y163355D01*
X2278694Y161069D01*
X2271836Y159037D01*
X2267264Y159037D01*
X2260406Y161069D01*
X2255834Y165641D01*
X2253548Y172499D01*
X2253548Y179357D01*
X2255834Y186215D01*
X2258120Y188501D01*
X2262692Y190787D01*
D27*
X2083231Y282674D02*
G01*
X2079675Y285976D01*
X2076373Y282674D01*
X2079675Y279118D01*
X2083231Y282674D01*
D24*
X1157544Y231998D02*
G01*
X1109792Y231998D01*
X1109792Y231998D02*
G01*
X1109792Y204820D01*
X1157544Y166974D02*
G01*
X1125540Y189834D01*
X1125540Y155544D01*
X1157544Y166974D02*
G01*
X1109792Y166974D01*
D27*
X938697Y279915D02*
G01*
X941999Y283217D01*
X938697Y286773D01*
X935141Y283217D01*
X938697Y279915D01*
D24*
X-198074Y2743441D02*
G01*
X-198074Y2695689D01*
X-198074Y2695689D02*
G01*
X-170642Y2695689D01*
X-128478Y2743441D02*
G01*
X-151084Y2743441D01*
X-153370Y2723121D01*
X-151084Y2725153D01*
X-144480Y2727439D01*
X-137622Y2727439D01*
X-130764Y2725153D01*
X-126192Y2720835D01*
X-123906Y2713977D01*
X-123906Y2709405D01*
X-126192Y2702547D01*
X-130764Y2697975D01*
X-137622Y2695689D01*
X-144480Y2695689D01*
X-151084Y2697975D01*
X-153370Y2700261D01*
X-155656Y2704833D01*
D27*
X-291917Y2545669D02*
G01*
X-295219Y2548971D01*
X-298775Y2545669D01*
X-295219Y2542113D01*
X-291917Y2545669D01*
D24*
X-531413Y2330693D02*
G01*
X-579165Y2330693D01*
X-579165Y2330693D02*
G01*
X-579165Y2303261D01*
X-538271Y2261097D02*
G01*
X-533699Y2263383D01*
X-531413Y2270241D01*
X-531413Y2274813D01*
X-533699Y2281671D01*
X-540557Y2285989D01*
X-551987Y2288275D01*
X-563417Y2288275D01*
X-572307Y2285989D01*
X-576879Y2281671D01*
X-579165Y2274813D01*
X-579165Y2272527D01*
X-576879Y2265669D01*
X-572307Y2261097D01*
X-565703Y2258811D01*
X-563417Y2258811D01*
X-556559Y2261097D01*
X-551987Y2265669D01*
X-549701Y2272527D01*
X-549701Y2274813D01*
X-551987Y2281671D01*
X-556559Y2285989D01*
X-563417Y2288275D01*
D27*
X-745530Y2414965D02*
G01*
X-741974Y2418267D01*
X-745530Y2421569D01*
X-748832Y2418267D01*
X-745530Y2414965D01*
D24*
X-967933Y2666839D02*
G01*
X-967933Y2714337D01*
X-967933Y2714337D02*
G01*
X-995365Y2714337D01*
X-1042101Y2666839D02*
G01*
X-1019495Y2714337D01*
X-1010351Y2666839D02*
G01*
X-1042101Y2666839D01*
D27*
X-886587Y2872145D02*
G01*
X-883030Y2868843D01*
X-879729Y2872145D01*
X-883030Y2875701D01*
X-886587Y2872145D01*
D24*
X-610417Y3085891D02*
G01*
X-562665Y3085891D01*
X-562665Y3085891D02*
G01*
X-562665Y3113323D01*
X-610417Y3139739D02*
G01*
X-608131Y3132881D01*
X-603559Y3130595D01*
X-598987Y3130595D01*
X-594669Y3132881D01*
X-592383Y3137453D01*
X-590097Y3146343D01*
X-587811Y3153201D01*
X-583239Y3157773D01*
X-578667Y3160059D01*
X-571809Y3160059D01*
X-567237Y3157773D01*
X-564951Y3155487D01*
X-562665Y3148629D01*
X-562665Y3139739D01*
X-564951Y3132881D01*
X-567237Y3130595D01*
X-571809Y3128309D01*
X-578667Y3128309D01*
X-583239Y3130595D01*
X-587811Y3135167D01*
X-590097Y3142025D01*
X-592383Y3150915D01*
X-594669Y3155487D01*
X-598987Y3157773D01*
X-603559Y3157773D01*
X-608131Y3155487D01*
X-610417Y3148629D01*
X-610417Y3139739D01*
D27*
X-394596Y3012041D02*
G01*
X-397898Y3008739D01*
X-394596Y3005437D01*
X-391294Y3008739D01*
X-394596Y3012041D01*
D24*
X-1448495Y9073837D02*
G01*
X-1448495Y9026085D01*
X-1448495Y9026085D02*
G01*
X-1421063Y9026085D01*
X-1376613Y9057835D02*
G01*
X-1378899Y9050977D01*
X-1383471Y9046405D01*
X-1390329Y9044119D01*
X-1392361Y9044119D01*
X-1399219Y9046405D01*
X-1403791Y9050977D01*
X-1406077Y9057835D01*
X-1406077Y9060121D01*
X-1403791Y9066979D01*
X-1399219Y9071551D01*
X-1392361Y9073837D01*
X-1390329Y9073837D01*
X-1383471Y9071551D01*
X-1378899Y9066979D01*
X-1376613Y9057835D01*
X-1376613Y9046405D01*
X-1378899Y9035229D01*
X-1383471Y9028371D01*
X-1390329Y9026085D01*
X-1394647Y9026085D01*
X-1401505Y9028371D01*
X-1403791Y9032943D01*
D27*
X-1515607Y8861292D02*
G01*
X-1518909Y8864594D01*
X-1522465Y8861292D01*
X-1518909Y8857736D01*
X-1515607Y8861292D01*
D24*
X2135926Y3327283D02*
G01*
X2097572Y3327283D01*
X2135926Y3327283D02*
G01*
X2135926Y3311027D01*
X2134148Y3305693D01*
X2132116Y3303661D01*
X2128560Y3301883D01*
X2125004Y3301883D01*
X2121448Y3303661D01*
X2119416Y3305693D01*
X2117638Y3311027D01*
X2117638Y3327283D01*
X2117638Y3314583D02*
G01*
X2097572Y3301883D01*
X2128560Y3289945D02*
G01*
X2130338Y3286389D01*
X2135926Y3280801D01*
X2097572Y3280801D01*
X1432278Y3239874D02*
G01*
X1432278Y3317852D01*
X1427198Y3333346D01*
X1416784Y3343760D01*
X1401036Y3348840D01*
X1390622Y3348840D01*
X1375128Y3343760D01*
X1364714Y3333346D01*
X1359634Y3317852D01*
X1359634Y3239874D01*
X1325344Y3260702D02*
G01*
X1314930Y3255368D01*
X1299182Y3239874D01*
X1299182Y3348840D01*
X2163521Y3426439D02*
G01*
X2259408Y3426439D01*
X2259408Y3558560D01*
X2163521Y3558560D01*
X2078278Y3426439D02*
G01*
X1982391Y3426439D01*
X1982391Y3558560D01*
X2078278Y3558560D01*
D11*
X4567991Y2377993D02*
G01*
X4347989Y2377993D01*
X4422990Y2417996D02*
G01*
X4422990Y2562994D01*
X4567994Y2607995D02*
G01*
X4347992Y2607995D01*
X3156993Y1922995D02*
G01*
X2936991Y1922995D01*
X3011992Y1962998D02*
G01*
X3011992Y2107996D01*
X3156996Y2152997D02*
G01*
X2936994Y2152997D01*
X2374996Y82999D02*
G01*
X2154994Y82999D01*
X2229995Y123002D02*
G01*
X2229995Y268000D01*
X2374999Y313001D02*
G01*
X2154996Y313001D01*
X1230998Y83997D02*
G01*
X1010996Y83997D01*
X1085997Y124000D02*
G01*
X1085997Y268998D01*
X1231000Y313999D02*
G01*
X1010998Y313999D01*
X-50998Y2817995D02*
G01*
X-50998Y2597993D01*
X-91000Y2672994D02*
G01*
X-235999Y2672994D01*
X-281000Y2817997D02*
G01*
X-281000Y2597995D01*
X-459999Y2185995D02*
G01*
X-680001Y2185995D01*
X-605000Y2225997D02*
G01*
X-605000Y2370996D01*
X-459996Y2415997D02*
G01*
X-679998Y2415997D01*
X-1113000Y2591993D02*
G01*
X-1113000Y2811995D01*
X-1072997Y2736994D02*
G01*
X-927999Y2736994D01*
X-882997Y2591991D02*
G01*
X-882997Y2811993D01*
X-679998Y3238995D02*
G01*
X-459996Y3238995D01*
X-534997Y3198992D02*
G01*
X-534997Y3053994D01*
X-680001Y3008993D02*
G01*
X-459999Y3008993D01*
X-1300995Y9145981D02*
G01*
X-1300995Y8925979D01*
X-1340998Y9000980D02*
G01*
X-1485996Y9000980D01*
X-1530997Y9145983D02*
G01*
X-1530997Y8925981D01*
D24*
X2163521Y3235939D02*
G01*
X2259408Y3235939D01*
X2259408Y3368060D01*
X2163521Y3368060D01*
X2078278Y3235939D02*
G01*
X1982391Y3235939D01*
X1982391Y3368060D01*
X2078278Y3368060D01*
D25*
X1066800Y3048000D02*
G01*
X1676400Y3048000D01*
X1676400Y3556000D02*
G01*
X1066800Y3556000D01*
D11*
G75*
G01*
X1701800Y2997200D02*
G03*
X1701800Y2997759I12697J279D01*
M02*
